<svg width="20" height="20" viewBox="0 0 20 20" fill="none" xmlns="http://www.w3.org/2000/svg">
<g clip-path="url(#clip0_247_10716)">
<path d="M16.9985 16.31V18C16.9985 18.5304 16.7878 19.0391 16.4127 19.4142C16.0377 19.7893 15.529 20 14.9985 20H4.99854C4.4681 20 3.95939 19.7893 3.58432 19.4142C3.20925 19.0391 2.99854 18.5304 2.99854 18V14.3C2.53854 14.12 1.94854 14 0.998535 14C0.733319 14 0.478965 13.8946 0.291428 13.7071C0.103892 13.5196 -0.00146484 13.2652 -0.00146484 13C-0.00146484 12.7348 0.103892 12.4804 0.291428 12.2929C0.478965 12.1054 0.733319 12 0.998535 12C1.81854 12 2.46854 12.08 2.99854 12.21V10.3C2.53854 10.12 1.94854 10 0.998535 10C0.733319 10 0.478965 9.89464 0.291428 9.70711C0.103892 9.51957 -0.00146484 9.26522 -0.00146484 9C-0.00146484 8.73478 0.103892 8.48043 0.291428 8.29289C0.478965 8.10536 0.733319 8 0.998535 8C1.81854 8 2.46854 8.08 2.99854 8.21V6.3C2.53854 6.12 1.94854 6 0.998535 6C0.733319 6 0.478965 5.89464 0.291428 5.70711C0.103892 5.51957 -0.00146484 5.26522 -0.00146484 5C-0.00146484 4.73478 0.103892 4.48043 0.291428 4.29289C0.478965 4.10536 0.733319 4 0.998535 4C1.81854 4 2.46854 4.08 2.99854 4.21V2C2.99854 1.46957 3.20925 0.960859 3.58432 0.585786C3.95939 0.210714 4.4681 0 4.99854 0H14.9985C15.529 0 16.0377 0.210714 16.4127 0.585786C16.7878 0.960859 16.9985 1.46957 16.9985 2V4.16C18.7785 4.47 19.5385 5.13 19.7085 5.29C20.0985 5.68 20.0985 6.32 19.7085 6.71C19.3185 7.1 18.7985 7.09 18.2885 6.71C18.2885 6.71 17.2485 6 14.9985 6C13.7385 6 12.9085 6.41 11.9485 6.9C10.9085 7.41 9.73853 8 7.99854 8C7.63854 8 7.30854 8 6.99854 7.96V5.95C7.29854 6 7.62854 6 7.99854 6C9.25854 6 10.0885 5.59 11.0485 5.11C12.0885 4.59 13.2685 4 14.9985 4V2H4.99854V18H14.9985V16C16.4985 16 16.9685 16.29 16.9985 16.31ZM14.9985 8C13.2685 8 12.0885 8.59 11.0485 9.11C10.0885 9.59 9.25854 10 7.99854 10C7.62854 10 7.29854 10 6.99854 9.95V11.96C7.30854 12 7.63854 12 7.99854 12C9.73853 12 10.9085 11.41 11.9485 10.9C12.9085 10.42 13.7385 10 14.9985 10C17.2485 10 18.2885 10.71 18.2885 10.71C18.7985 11.1 19.3185 11.1 19.7085 10.71C20.0985 10.32 20.0985 9.69 19.7085 9.29C19.4985 9.08 18.2485 8 14.9985 8ZM14.9985 12C13.2685 12 12.0885 12.59 11.0485 13.11C10.0885 13.59 9.25854 14 7.99854 14C7.62854 14 7.29854 14 6.99854 13.95V15.96C7.30854 16 7.63854 16 7.99854 16C9.73853 16 10.9085 15.41 11.9485 14.9C12.9085 14.42 13.7385 14 14.9985 14C17.2485 14 18.2885 14.71 18.2885 14.71C18.7985 15.1 19.3185 15.1 19.7085 14.71C20.0985 14.32 20.0985 13.69 19.7085 13.29C19.4985 13.08 18.2485 12 14.9985 12Z" fill="#485159"/>
</g>
<defs>
<clipPath id="clip0_247_10716">
<rect width="20" height="20" fill="white"/>
</clipPath>
</defs>
</svg>
