<svg width="20" height="20" viewBox="0 0 20 20" fill="none" xmlns="http://www.w3.org/2000/svg">
<mask id="path-1-outside-1_247_10658" maskUnits="userSpaceOnUse" x="-0.5" y="9" width="21" height="11" fill="black">
<rect fill="white" x="-0.5" y="9" width="21" height="11"/>
<path d="M1.00429 10.36C1.00429 10.36 0.800643 10.47 0.71165 10.75C0.622657 11.03 0.544496 14.35 0.544496 14.35C0.544496 14.35 0.5 16.5 0.5 18C0.5 18.5 1.25644 18.82 1.25644 18.82C1.25644 18.82 1.56792 19 2.65066 19C3.25878 19 3.94106 18.925 4.14871 18.82C4.63817 18.595 4.96448 17.98 4.96448 17.29C4.96448 16.765 4.96448 16.765 5.67642 16.72C6.37354 16.675 6.37354 16.675 6.41803 16.105L6.46253 15.55H10.0074H13.5523L13.5968 16.105C13.6413 16.675 13.6413 16.675 14.3532 16.72C15.0504 16.765 15.0504 16.765 15.0504 17.29C15.0504 17.98 15.3767 18.595 15.8661 18.82C16.0738 18.925 16.7561 19 17.3642 19C18.4469 19 18.7584 18.82 18.7584 18.82C18.7584 18.82 19.5 18.5 19.5 18C19.5 17.5 19.5 14.59 19.5 14.59C19.5 10.06 19.4703 10 17.201 10C15.9848 10 15.8958 10.015 15.4805 10.435C15.1393 10.795 15.0504 11.005 15.0504 11.56V12.235L14.3532 12.28C13.671 12.325 13.6413 12.34 13.5968 12.805L13.5523 13.3H10.0074H6.46253L6.41803 12.805C6.37354 12.34 6.34387 12.325 5.67642 12.28L4.96448 12.235V11.56C4.96448 11.005 4.87549 10.795 4.53435 10.435C4.11905 10.015 4.04489 10 2.75449 10C1.55308 10 1.5 10 1.00429 10.36ZM4.04489 10.93C4.14871 11.035 4.22287 11.365 4.22287 11.68V12.25L3.85207 12.01C3.65925 11.89 3.42194 11.815 3.33294 11.875C3.0363 12.055 3.19945 12.475 3.70375 12.82C4.10422 13.075 4.22287 13.255 4.22287 13.6C4.22287 14.035 4.03006 14.2 3.85207 13.9C3.80757 13.81 3.62959 13.75 3.46643 13.75C2.9918 13.75 3.12529 14.305 3.70375 14.68C4.11905 14.965 4.22287 15.115 4.22287 15.52C4.22287 16 4.22287 16 3.85207 15.76C3.65925 15.64 3.42194 15.565 3.33294 15.625C3.0363 15.805 3.19945 16.225 3.70375 16.57C4.10422 16.825 4.22287 17.005 4.22287 17.335C4.22287 18.04 3.89657 18.25 2.78415 18.25C1.65691 18.25 1.25644 18.01 1.25644 17.335C1.25644 17.02 1.38993 16.84 1.77557 16.6C2.27986 16.285 2.45785 15.82 2.14637 15.625C2.07221 15.58 1.83489 15.655 1.62724 15.79L1.25644 16.03V15.535C1.25644 15.115 1.36027 14.965 1.77557 14.68C2.35402 14.305 2.48751 13.75 2.01288 13.75C1.84973 13.75 1.67174 13.81 1.62724 13.9C1.44926 14.2 1.25644 14.035 1.25644 13.6C1.25644 13.255 1.3751 13.075 1.77557 12.82C2.27986 12.475 2.44301 12.055 2.14637 11.875C2.05738 11.815 1.82006 11.89 1.62724 12.01C1.25644 12.25 1.25644 12.25 1.25644 11.8C1.25644 10.885 1.43443 10.75 2.70999 10.75C3.4071 10.75 3.94106 10.825 4.04489 10.93ZM18.6101 11.035C18.6842 11.2 18.7584 11.545 18.7584 11.8C18.7584 12.25 18.7584 12.25 18.3876 12.01C18.1948 11.89 17.9575 11.815 17.8685 11.875C17.5718 12.055 17.735 12.475 18.2393 12.82C18.6397 13.075 18.7584 13.255 18.7584 13.6C18.7584 14.035 18.5656 14.2 18.3876 13.9C18.3431 13.81 18.1651 13.75 18.002 13.75C17.5273 13.75 17.6608 14.305 18.2393 14.68C18.6546 14.965 18.7584 15.115 18.7584 15.535V16.03L18.3876 15.79C18.1799 15.655 17.9426 15.58 17.8685 15.625C17.557 15.82 17.735 16.285 18.2393 16.6C18.8177 16.96 18.9364 17.515 18.5062 17.98C18.3283 18.19 18.0464 18.25 17.2603 18.25C16.1183 18.25 15.792 18.04 15.792 17.335C15.792 17.005 15.9106 16.825 16.3111 16.57C16.8154 16.225 16.9785 15.805 16.6819 15.625C16.5929 15.565 16.3556 15.64 16.1628 15.76C15.792 16 15.792 16 15.792 15.52C15.792 15.115 15.8958 14.965 16.3111 14.68C16.8895 14.305 17.023 13.75 16.5484 13.75C16.3852 13.75 16.2073 13.81 16.1628 13.9C15.9848 14.2 15.792 14.035 15.792 13.6C15.792 13.255 15.9106 13.075 16.3111 12.82C16.8154 12.475 16.9785 12.055 16.6819 11.875C16.5929 11.815 16.3556 11.89 16.1628 12.01L15.792 12.25V11.68C15.792 10.87 15.9848 10.75 17.3048 10.75C18.2838 10.75 18.4766 10.795 18.6101 11.035ZM5.70609 14.5V16H5.33528H4.96448V14.5V13H5.33528H5.70609V14.5ZM15.0504 14.5V16H14.6795H14.3087V14.5V13H14.6795H15.0504V14.5ZM13.5671 14.425V14.8H10.0074H6.4477V14.425V14.05H10.0074H13.5671V14.425Z"/>
</mask>
<path d="M1.00429 10.36C1.00429 10.36 0.800643 10.47 0.71165 10.75C0.622657 11.03 0.544496 14.35 0.544496 14.35C0.544496 14.35 0.5 16.5 0.5 18C0.5 18.5 1.25644 18.82 1.25644 18.82C1.25644 18.82 1.56792 19 2.65066 19C3.25878 19 3.94106 18.925 4.14871 18.82C4.63817 18.595 4.96448 17.98 4.96448 17.29C4.96448 16.765 4.96448 16.765 5.67642 16.72C6.37354 16.675 6.37354 16.675 6.41803 16.105L6.46253 15.55H10.0074H13.5523L13.5968 16.105C13.6413 16.675 13.6413 16.675 14.3532 16.72C15.0504 16.765 15.0504 16.765 15.0504 17.29C15.0504 17.98 15.3767 18.595 15.8661 18.82C16.0738 18.925 16.7561 19 17.3642 19C18.4469 19 18.7584 18.82 18.7584 18.82C18.7584 18.82 19.5 18.5 19.5 18C19.5 17.5 19.5 14.59 19.5 14.59C19.5 10.06 19.4703 10 17.201 10C15.9848 10 15.8958 10.015 15.4805 10.435C15.1393 10.795 15.0504 11.005 15.0504 11.56V12.235L14.3532 12.28C13.671 12.325 13.6413 12.34 13.5968 12.805L13.5523 13.3H10.0074H6.46253L6.41803 12.805C6.37354 12.34 6.34387 12.325 5.67642 12.28L4.96448 12.235V11.56C4.96448 11.005 4.87549 10.795 4.53435 10.435C4.11905 10.015 4.04489 10 2.75449 10C1.55308 10 1.5 10 1.00429 10.36ZM4.04489 10.93C4.14871 11.035 4.22287 11.365 4.22287 11.68V12.25L3.85207 12.01C3.65925 11.89 3.42194 11.815 3.33294 11.875C3.0363 12.055 3.19945 12.475 3.70375 12.82C4.10422 13.075 4.22287 13.255 4.22287 13.6C4.22287 14.035 4.03006 14.2 3.85207 13.9C3.80757 13.81 3.62959 13.75 3.46643 13.75C2.9918 13.75 3.12529 14.305 3.70375 14.68C4.11905 14.965 4.22287 15.115 4.22287 15.52C4.22287 16 4.22287 16 3.85207 15.76C3.65925 15.64 3.42194 15.565 3.33294 15.625C3.0363 15.805 3.19945 16.225 3.70375 16.57C4.10422 16.825 4.22287 17.005 4.22287 17.335C4.22287 18.04 3.89657 18.25 2.78415 18.25C1.65691 18.25 1.25644 18.01 1.25644 17.335C1.25644 17.02 1.38993 16.84 1.77557 16.6C2.27986 16.285 2.45785 15.82 2.14637 15.625C2.07221 15.58 1.83489 15.655 1.62724 15.79L1.25644 16.03V15.535C1.25644 15.115 1.36027 14.965 1.77557 14.68C2.35402 14.305 2.48751 13.75 2.01288 13.75C1.84973 13.75 1.67174 13.81 1.62724 13.9C1.44926 14.2 1.25644 14.035 1.25644 13.6C1.25644 13.255 1.3751 13.075 1.77557 12.82C2.27986 12.475 2.44301 12.055 2.14637 11.875C2.05738 11.815 1.82006 11.89 1.62724 12.01C1.25644 12.25 1.25644 12.25 1.25644 11.8C1.25644 10.885 1.43443 10.75 2.70999 10.75C3.4071 10.75 3.94106 10.825 4.04489 10.93ZM18.6101 11.035C18.6842 11.2 18.7584 11.545 18.7584 11.8C18.7584 12.25 18.7584 12.25 18.3876 12.01C18.1948 11.89 17.9575 11.815 17.8685 11.875C17.5718 12.055 17.735 12.475 18.2393 12.82C18.6397 13.075 18.7584 13.255 18.7584 13.6C18.7584 14.035 18.5656 14.2 18.3876 13.9C18.3431 13.81 18.1651 13.75 18.002 13.75C17.5273 13.75 17.6608 14.305 18.2393 14.68C18.6546 14.965 18.7584 15.115 18.7584 15.535V16.03L18.3876 15.79C18.1799 15.655 17.9426 15.58 17.8685 15.625C17.557 15.82 17.735 16.285 18.2393 16.6C18.8177 16.96 18.9364 17.515 18.5062 17.98C18.3283 18.19 18.0464 18.25 17.2603 18.25C16.1183 18.25 15.792 18.04 15.792 17.335C15.792 17.005 15.9106 16.825 16.3111 16.57C16.8154 16.225 16.9785 15.805 16.6819 15.625C16.5929 15.565 16.3556 15.64 16.1628 15.76C15.792 16 15.792 16 15.792 15.52C15.792 15.115 15.8958 14.965 16.3111 14.68C16.8895 14.305 17.023 13.75 16.5484 13.75C16.3852 13.75 16.2073 13.81 16.1628 13.9C15.9848 14.2 15.792 14.035 15.792 13.6C15.792 13.255 15.9106 13.075 16.3111 12.82C16.8154 12.475 16.9785 12.055 16.6819 11.875C16.5929 11.815 16.3556 11.89 16.1628 12.01L15.792 12.25V11.68C15.792 10.87 15.9848 10.75 17.3048 10.75C18.2838 10.75 18.4766 10.795 18.6101 11.035ZM5.70609 14.5V16H5.33528H4.96448V14.5V13H5.33528H5.70609V14.5ZM15.0504 14.5V16H14.6795H14.3087V14.5V13H14.6795H15.0504V14.5ZM13.5671 14.425V14.8H10.0074H6.4477V14.425V14.05H10.0074H13.5671V14.425Z" fill="#485159"/>
<path d="M1.00429 10.36C1.00429 10.36 0.800643 10.47 0.71165 10.75C0.622657 11.03 0.544496 14.35 0.544496 14.35C0.544496 14.35 0.5 16.5 0.5 18C0.5 18.5 1.25644 18.82 1.25644 18.82C1.25644 18.82 1.56792 19 2.65066 19C3.25878 19 3.94106 18.925 4.14871 18.82C4.63817 18.595 4.96448 17.98 4.96448 17.29C4.96448 16.765 4.96448 16.765 5.67642 16.72C6.37354 16.675 6.37354 16.675 6.41803 16.105L6.46253 15.55H10.0074H13.5523L13.5968 16.105C13.6413 16.675 13.6413 16.675 14.3532 16.72C15.0504 16.765 15.0504 16.765 15.0504 17.29C15.0504 17.98 15.3767 18.595 15.8661 18.82C16.0738 18.925 16.7561 19 17.3642 19C18.4469 19 18.7584 18.82 18.7584 18.82C18.7584 18.82 19.5 18.5 19.5 18C19.5 17.5 19.5 14.59 19.5 14.59C19.5 10.06 19.4703 10 17.201 10C15.9848 10 15.8958 10.015 15.4805 10.435C15.1393 10.795 15.0504 11.005 15.0504 11.56V12.235L14.3532 12.28C13.671 12.325 13.6413 12.34 13.5968 12.805L13.5523 13.3H10.0074H6.46253L6.41803 12.805C6.37354 12.34 6.34387 12.325 5.67642 12.28L4.96448 12.235V11.56C4.96448 11.005 4.87549 10.795 4.53435 10.435C4.11905 10.015 4.04489 10 2.75449 10C1.55308 10 1.5 10 1.00429 10.36ZM4.04489 10.93C4.14871 11.035 4.22287 11.365 4.22287 11.68V12.25L3.85207 12.01C3.65925 11.89 3.42194 11.815 3.33294 11.875C3.0363 12.055 3.19945 12.475 3.70375 12.82C4.10422 13.075 4.22287 13.255 4.22287 13.6C4.22287 14.035 4.03006 14.2 3.85207 13.9C3.80757 13.81 3.62959 13.75 3.46643 13.75C2.9918 13.75 3.12529 14.305 3.70375 14.68C4.11905 14.965 4.22287 15.115 4.22287 15.52C4.22287 16 4.22287 16 3.85207 15.76C3.65925 15.64 3.42194 15.565 3.33294 15.625C3.0363 15.805 3.19945 16.225 3.70375 16.57C4.10422 16.825 4.22287 17.005 4.22287 17.335C4.22287 18.04 3.89657 18.25 2.78415 18.25C1.65691 18.25 1.25644 18.01 1.25644 17.335C1.25644 17.02 1.38993 16.84 1.77557 16.6C2.27986 16.285 2.45785 15.82 2.14637 15.625C2.07221 15.58 1.83489 15.655 1.62724 15.79L1.25644 16.03V15.535C1.25644 15.115 1.36027 14.965 1.77557 14.68C2.35402 14.305 2.48751 13.75 2.01288 13.75C1.84973 13.75 1.67174 13.81 1.62724 13.9C1.44926 14.2 1.25644 14.035 1.25644 13.6C1.25644 13.255 1.3751 13.075 1.77557 12.82C2.27986 12.475 2.44301 12.055 2.14637 11.875C2.05738 11.815 1.82006 11.89 1.62724 12.01C1.25644 12.25 1.25644 12.25 1.25644 11.8C1.25644 10.885 1.43443 10.75 2.70999 10.75C3.4071 10.75 3.94106 10.825 4.04489 10.93ZM18.6101 11.035C18.6842 11.2 18.7584 11.545 18.7584 11.8C18.7584 12.25 18.7584 12.25 18.3876 12.01C18.1948 11.89 17.9575 11.815 17.8685 11.875C17.5718 12.055 17.735 12.475 18.2393 12.82C18.6397 13.075 18.7584 13.255 18.7584 13.6C18.7584 14.035 18.5656 14.2 18.3876 13.9C18.3431 13.81 18.1651 13.75 18.002 13.75C17.5273 13.75 17.6608 14.305 18.2393 14.68C18.6546 14.965 18.7584 15.115 18.7584 15.535V16.03L18.3876 15.79C18.1799 15.655 17.9426 15.58 17.8685 15.625C17.557 15.82 17.735 16.285 18.2393 16.6C18.8177 16.96 18.9364 17.515 18.5062 17.98C18.3283 18.19 18.0464 18.25 17.2603 18.25C16.1183 18.25 15.792 18.04 15.792 17.335C15.792 17.005 15.9106 16.825 16.3111 16.57C16.8154 16.225 16.9785 15.805 16.6819 15.625C16.5929 15.565 16.3556 15.64 16.1628 15.76C15.792 16 15.792 16 15.792 15.52C15.792 15.115 15.8958 14.965 16.3111 14.68C16.8895 14.305 17.023 13.75 16.5484 13.75C16.3852 13.75 16.2073 13.81 16.1628 13.9C15.9848 14.2 15.792 14.035 15.792 13.6C15.792 13.255 15.9106 13.075 16.3111 12.82C16.8154 12.475 16.9785 12.055 16.6819 11.875C16.5929 11.815 16.3556 11.89 16.1628 12.01L15.792 12.25V11.68C15.792 10.87 15.9848 10.75 17.3048 10.75C18.2838 10.75 18.4766 10.795 18.6101 11.035ZM5.70609 14.5V16H5.33528H4.96448V14.5V13H5.33528H5.70609V14.5ZM15.0504 14.5V16H14.6795H14.3087V14.5V13H14.6795H15.0504V14.5ZM13.5671 14.425V14.8H10.0074H6.4477V14.425V14.05H10.0074H13.5671V14.425Z" stroke="#485159" stroke-width="0.4" mask="url(#path-1-outside-1_247_10658)"/>
<path d="M12.9248 1.9209L15.5576 3.97266L15.6797 4.07812C15.9473 4.33302 16.0997 4.65762 16.0996 5L16.0908 5.14551C16.0539 5.43376 15.9083 5.70347 15.6787 5.92188L15.5566 6.02734L12.9238 8.0791L12.8623 8.12695L12.8008 8.0791L11.8867 7.36719L11.9883 7.28809L14.2246 5.54492L10 5.54004L5.77246 5.54492L8.01172 7.28809L8.11328 7.36719L7.19922 8.0791L7.1377 8.12695L7.07617 8.0791L4.44336 6.02734C4.10031 5.76017 3.90063 5.39151 3.90039 5L3.90918 4.85449C3.952 4.51807 4.14252 4.20662 4.44238 3.97266L7.0752 1.9209L7.13672 1.87305L7.19824 1.9209L8.00977 2.55371L8.11035 2.63281L8.00977 2.71191L5.79004 4.44043L10 4.44629L14.209 4.44043L11.9902 2.71191L11.8896 2.63281L11.9902 2.55371L12.8018 1.9209L12.8633 1.87305L12.9248 1.9209Z" fill="#485159" stroke="#485159" stroke-width="0.2"/>
</svg>
