<svg width="20" height="20" viewBox="0 0 20 20" fill="none" xmlns="http://www.w3.org/2000/svg">
<path d="M3.33333 9.16666H8.33333V10.8333H3.33333V9.16666ZM15 7.49999H13.3333V9.16666H11.6667V10.8333H13.3333V12.5H15V10.8333H16.6667V9.16666H15V7.49999ZM20 6.66666V18.3333H0V6.66666C0 6.00362 0.263392 5.36773 0.732233 4.89889C1.20107 4.43005 1.83696 4.16666 2.5 4.16666V1.66666H9.16667V4.16666H10.8333V1.66666H17.5V4.16666C18.163 4.16666 18.7989 4.43005 19.2678 4.89889C19.7366 5.36773 20 6.00362 20 6.66666ZM18.3333 6.66666C18.3333 6.44564 18.2455 6.23368 18.0893 6.0774C17.933 5.92112 17.721 5.83332 17.5 5.83332H15.8333V3.33332H12.5V5.83332H7.5V3.33332H4.16667V5.83332H2.5C2.27899 5.83332 2.06702 5.92112 1.91074 6.0774C1.75446 6.23368 1.66667 6.44564 1.66667 6.66666V16.6667H18.3333V6.66666Z" fill="#485159"/>
</svg>
