<svg width="20" height="20" viewBox="0 0 20 20" fill="none" xmlns="http://www.w3.org/2000/svg">
<g clip-path="url(#clip0_247_10750)">
<path d="M19.3827 13.5L17.216 5.69084C16.7533 4.02036 15.7452 2.55263 14.3521 1.52125C12.9589 0.489872 11.2608 -0.0458855 9.52806 -0.000752424C7.79528 0.0443806 6.12738 0.66781 4.78983 1.77031C3.45227 2.87282 2.52192 4.39104 2.14684 6.08334L0.471007 13.625C0.389918 13.9904 0.391896 14.3693 0.476795 14.7338C0.561694 15.0983 0.727348 15.4391 0.961536 15.731C1.19572 16.023 1.49247 16.2586 1.82988 16.4205C2.16729 16.5825 2.53675 16.6666 2.91101 16.6667H5.91684C6.1081 17.6086 6.61911 18.4554 7.36329 19.0637C8.10747 19.6719 9.03904 20.0042 10.0002 20.0042C10.9613 20.0042 11.8929 19.6719 12.6371 19.0637C13.3812 18.4554 13.8922 17.6086 14.0835 16.6667H16.9752C17.3603 16.6665 17.7401 16.5774 18.0851 16.4062C18.43 16.2351 18.7308 15.9866 18.9639 15.68C19.1971 15.3735 19.3562 15.0173 19.429 14.6392C19.5018 14.261 19.4854 13.8712 19.3827 13.5ZM10.0002 18.3333C9.48496 18.3312 8.98298 18.1699 8.56292 17.8716C8.14287 17.5733 7.82524 17.1524 7.65351 16.6667H12.3468C12.1751 17.1524 11.8575 17.5733 11.4374 17.8716C11.0174 18.1699 10.5154 18.3312 10.0002 18.3333ZM17.6377 14.6708C17.5599 14.7739 17.4592 14.8574 17.3434 14.9145C17.2276 14.9717 17.1001 15.001 16.971 15H2.91101C2.78622 15 2.66304 14.9719 2.55055 14.9179C2.43805 14.864 2.33912 14.7854 2.26105 14.688C2.18298 14.5907 2.12777 14.4771 2.0995 14.3555C2.07122 14.234 2.0706 14.1077 2.09767 13.9858L3.77351 6.44418C4.0688 5.11602 4.7996 3.92468 5.84972 3.05955C6.89984 2.19442 8.20903 1.70515 9.56915 1.66952C10.9293 1.63389 12.2623 2.05394 13.3563 2.8629C14.4502 3.67186 15.2424 4.8233 15.6068 6.13418L17.7735 13.9433C17.8089 14.0668 17.815 14.1969 17.7915 14.3231C17.7679 14.4494 17.7152 14.5684 17.6377 14.6708Z" fill="#485159"/>
</g>
<defs>
<clipPath id="clip0_247_10750">
<rect width="20" height="20" fill="white"/>
</clipPath>
</defs>
</svg>
