<svg width="20" height="20" viewBox="0 0 20 20" fill="none" xmlns="http://www.w3.org/2000/svg">
<g clip-path="url(#clip0_247_10762)">
<path d="M9.3335 19C14.0279 19 17.8335 15.1944 17.8335 10.5C17.8335 5.80558 14.0279 2 9.3335 2C4.63908 2 0.833496 5.80558 0.833496 10.5C0.833496 15.1944 4.63908 19 9.3335 19Z" stroke="#485159" stroke-width="1.5" stroke-linecap="round" stroke-linejoin="round"/>
<path d="M9.50016 12.3333C10.4206 12.3333 11.1668 11.5871 11.1668 10.6667C11.1668 9.74619 10.4206 9 9.50016 9C8.57969 9 7.8335 9.74619 7.8335 10.6667C7.8335 11.5871 8.57969 12.3333 9.50016 12.3333Z" fill="white" stroke="#485159" stroke-width="1.5" stroke-linecap="round" stroke-linejoin="round"/>
<path d="M10.8335 1C11.9278 1 13.0115 1.21555 14.0225 1.63434C15.0336 2.05312 15.9522 2.66695 16.726 3.44078C17.4999 4.21458 18.1137 5.13325 18.5325 6.14429C18.9513 7.15533 19.1668 8.239 19.1668 9.33333H15.8362C15.8362 8.67637 15.7068 8.02583 15.4554 7.41887C15.204 6.81196 14.8355 6.26046 14.3709 5.79592C13.9064 5.33138 13.3549 4.96288 12.748 4.71146C12.141 4.46004 11.4905 4.33067 10.8335 4.33067V1Z" fill="white" stroke="#485159" stroke-width="1.5" stroke-linecap="round" stroke-linejoin="round"/>
</g>
<defs>
<clipPath id="clip0_247_10762">
<rect width="20" height="20" fill="white"/>
</clipPath>
</defs>
</svg>
