<svg width="20" height="20" viewBox="0 0 20 20" fill="none" xmlns="http://www.w3.org/2000/svg">
<g clip-path="url(#clip0_247_10665)">
<path d="M3.33313 15H8.33313V10H3.33313V15ZM4.9998 11.6667H6.66646V13.3333H4.9998V11.6667ZM17.5015 1.66667H15.0015V0H13.3348V1.66667H6.66813V0H5.00146V1.66667H2.50146C1.12313 1.66667 0.00146484 2.78833 0.00146484 4.16667V20H20.0015V4.16667C20.0015 2.78833 18.8798 1.66667 17.5015 1.66667ZM2.50146 3.33333H17.5015C17.9615 3.33333 18.3348 3.7075 18.3348 4.16667V6.66667H1.66813V4.16667C1.66813 3.7075 2.04146 3.33333 2.50146 3.33333ZM1.66813 18.3333V8.33333H18.3348V18.3333H1.66813Z" fill="#485159"/>
</g>
<defs>
<clipPath id="clip0_247_10665">
<rect width="20" height="20" fill="white"/>
</clipPath>
</defs>
</svg>
