<svg width="20" height="20" viewBox="0 0 20 20" fill="none" xmlns="http://www.w3.org/2000/svg">
<g clip-path="url(#clip0_3958_1365)">
<path d="M17.5 3.33333H15.41L12.8383 0H7.16083L4.59 3.33333H2.5C1.83696 3.33333 1.20107 3.59673 0.732233 4.06557C0.263392 4.53441 0 5.17029 0 5.83333L0 20H20V5.83333C20 5.17029 19.7366 4.53441 19.2678 4.06557C18.7989 3.59673 18.163 3.33333 17.5 3.33333ZM7.98083 1.66667H12.02L13.305 3.33333H6.695L7.98083 1.66667ZM18.3333 18.3333H1.66667V5.83333C1.66667 5.61232 1.75446 5.40036 1.91074 5.24408C2.06702 5.0878 2.27899 5 2.5 5H17.5C17.721 5 17.933 5.0878 18.0893 5.24408C18.2455 5.40036 18.3333 5.61232 18.3333 5.83333V18.3333Z" fill="#485159"/>
<path d="M10 7C9.0111 7 8.0444 7.29325 7.22215 7.84265C6.39991 8.39206 5.75904 9.17295 5.3806 10.0866C5.00217 11.0002 4.90315 12.0055 5.09608 12.9755C5.289 13.9454 5.76521 14.8363 6.46447 15.5355C7.16373 16.2348 8.05465 16.711 9.02455 16.9039C9.99446 17.0969 10.9998 16.9978 11.9134 16.6194C12.827 16.241 13.6079 15.6001 14.1573 14.7779C14.7068 13.9556 15 12.9889 15 12C14.9987 10.6743 14.4715 9.40332 13.5341 8.46593C12.5967 7.52853 11.3257 7.00132 10 7ZM10 15.3333C9.34073 15.3333 8.69627 15.1378 8.1481 14.7716C7.59994 14.4053 7.1727 13.8847 6.9204 13.2756C6.66811 12.6665 6.6021 11.9963 6.73072 11.3497C6.85934 10.7031 7.1768 10.1092 7.64298 9.64298C8.10915 9.1768 8.7031 8.85933 9.3497 8.73072C9.9963 8.6021 10.6665 8.66811 11.2756 8.9204C11.8847 9.17269 12.4053 9.59994 12.7716 10.1481C13.1378 10.6963 13.3333 11.3407 13.3333 12C13.3333 12.8841 12.9821 13.7319 12.357 14.357C11.7319 14.9821 10.8841 15.3333 10 15.3333Z" fill="#485159"/>
</g>
<defs>
<clipPath id="clip0_3958_1365">
<rect width="20" height="20" fill="white"/>
</clipPath>
</defs>
</svg>
