<svg width="20" height="20" viewBox="0 0 20 20" fill="none" xmlns="http://www.w3.org/2000/svg">
<g clip-path="url(#clip0_247_10669)">
<path d="M16.2058 7.215C15.9993 6.79891 15.6804 6.44896 15.2853 6.20477C14.8901 5.96058 14.4345 5.83191 13.97 5.83334H6.02999C5.56545 5.83181 5.10978 5.96044 4.71461 6.20464C4.31944 6.44884 4.00058 6.79885 3.79415 7.215L1.88915 11.025C1.19611 12.415 0.834703 13.9468 0.83332 15.5V18.3333H2.49999V20H6.66665V18.3333H13.3333V20H17.5V18.3333H19.1667V15.5C19.1649 13.9476 18.8035 12.4168 18.1108 11.0275L16.2058 7.215ZM5.28915 7.965C5.35695 7.82609 5.46227 7.70892 5.59319 7.62675C5.72411 7.54457 5.87541 7.50067 6.02999 7.5H13.97C14.1248 7.49941 14.2768 7.54229 14.4085 7.62375C14.5402 7.70522 14.6464 7.82201 14.715 7.96084L16.5683 11.6667H3.43165L5.28915 7.965ZM17.5 16.6667H2.49999V15.5C2.50028 14.7683 2.59695 14.0398 2.78749 13.3333H4.16665V14.1667C4.16665 14.3877 4.25445 14.5996 4.41073 14.7559C4.56701 14.9122 4.77897 15 4.99999 15C5.221 15 5.43296 14.9122 5.58924 14.7559C5.74552 14.5996 5.83332 14.3877 5.83332 14.1667V13.3333H14.1667V14.1667C14.1667 14.3877 14.2545 14.5996 14.4107 14.7559C14.567 14.9122 14.779 15 15 15C15.221 15 15.433 14.9122 15.5892 14.7559C15.7455 14.5996 15.8333 14.3877 15.8333 14.1667V13.3333H17.2125C17.403 14.0398 17.4997 14.7683 17.5 15.5V16.6667ZM17.5 3.33334H19.8467C19.669 3.81408 19.3484 4.22885 18.9278 4.52179C18.5073 4.81474 18.0071 4.97178 17.4946 4.97178C16.9821 4.97178 16.4819 4.81474 16.0613 4.52179C15.6408 4.22885 15.3201 3.81408 15.1425 3.33334H4.85749C4.67986 3.81408 4.35919 4.22885 3.93865 4.52179C3.51811 4.81474 3.01791 4.97178 2.5054 4.97178C1.99289 4.97178 1.49269 4.81474 1.07216 4.52179C0.65162 4.22885 0.330947 3.81408 0.15332 3.33334H2.49999V1.66667H0.15332C0.330947 1.18593 0.65162 0.771158 1.07216 0.478216C1.49269 0.185274 1.99289 0.0282288 2.5054 0.0282288C3.01791 0.0282288 3.51811 0.185274 3.93865 0.478216C4.35919 0.771158 4.67986 1.18593 4.85749 1.66667H15.1425C15.3201 1.18593 15.6408 0.771158 16.0613 0.478216C16.4819 0.185274 16.9821 0.0282288 17.4946 0.0282288C18.0071 0.0282288 18.5073 0.185274 18.9278 0.478216C19.3484 0.771158 19.669 1.18593 19.8467 1.66667H17.5V3.33334Z" fill="#485159"/>
</g>
<defs>
<clipPath id="clip0_247_10669">
<rect width="20" height="20" fill="white"/>
</clipPath>
</defs>
</svg>
