<svg width="20" height="20" viewBox="0 0 20 20" fill="none" xmlns="http://www.w3.org/2000/svg">
<g clip-path="url(#clip0_247_10671)">
<path d="M20 10.8333C20 10.1703 19.7366 9.5344 19.2678 9.06556C18.7989 8.59672 18.163 8.33332 17.5 8.33332H17.1017L13.2 2.73749C12.9697 2.40698 12.663 2.13701 12.3059 1.95056C11.9488 1.76412 11.552 1.66672 11.1492 1.66666H5.31584C4.80901 1.66874 4.31466 1.824 3.89766 2.11207C3.48066 2.40013 3.16049 2.80754 2.97917 3.28082L0.812503 8.98749C0.55607 9.22167 0.35135 9.50681 0.211441 9.82465C0.0715322 10.1425 -0.0004834 10.486 2.44194e-06 10.8333V15H1.66667V15.4167C1.66667 16.1902 1.97396 16.9321 2.52094 17.4791C3.06792 18.026 3.80979 18.3333 4.58334 18.3333C5.35688 18.3333 6.09875 18.026 6.64573 17.4791C7.19271 16.9321 7.5 16.1902 7.5 15.4167V15H12.5V15.4167C12.5 16.1902 12.8073 16.9321 13.3543 17.4791C13.9013 18.026 14.6431 18.3333 15.4167 18.3333C16.1902 18.3333 16.9321 18.026 17.4791 17.4791C18.026 16.9321 18.3333 16.1902 18.3333 15.4167V15H20V10.8333ZM11.8333 3.68999L15.07 8.33332H9.16667V3.33332H11.1492C11.2835 3.33322 11.4159 3.3656 11.535 3.42771C11.6541 3.48981 11.7565 3.57979 11.8333 3.68999ZM4.53917 3.87082C4.59914 3.7129 4.70568 3.57693 4.84469 3.48094C4.98369 3.38495 5.14858 3.33347 5.3175 3.33332H7.5V8.33332H2.84667L4.53917 3.87082ZM5.83334 15.4167C5.83334 15.7482 5.70164 16.0661 5.46722 16.3005C5.2328 16.535 4.91486 16.6667 4.58334 16.6667C4.25182 16.6667 3.93387 16.535 3.69945 16.3005C3.46503 16.0661 3.33334 15.7482 3.33334 15.4167V15H5.83334V15.4167ZM16.6667 15.4167C16.6667 15.7482 16.535 16.0661 16.3006 16.3005C16.0661 16.535 15.7482 16.6667 15.4167 16.6667C15.0851 16.6667 14.7672 16.535 14.5328 16.3005C14.2984 16.0661 14.1667 15.7482 14.1667 15.4167V15H16.6667V15.4167ZM18.3333 13.3333H1.66667V10.8333C1.66667 10.6123 1.75447 10.4003 1.91075 10.2441C2.06703 10.0878 2.27899 9.99999 2.5 9.99999H17.5C17.721 9.99999 17.933 10.0878 18.0893 10.2441C18.2455 10.4003 18.3333 10.6123 18.3333 10.8333V13.3333Z" fill="#485159"/>
</g>
<defs>
<clipPath id="clip0_247_10671">
<rect width="20" height="20" fill="white"/>
</clipPath>
</defs>
</svg>
