<svg width="20" height="20" viewBox="0 0 20 20" fill="none" xmlns="http://www.w3.org/2000/svg">
<g clip-path="url(#clip0_247_10667)">
<path d="M17.015 2.47918C16.8389 1.99758 16.5194 1.58158 16.0994 1.28728C15.6795 0.992985 15.1794 0.834548 14.6667 0.833344H5.33334C4.82056 0.834548 4.32049 0.992985 3.90057 1.28728C3.48066 1.58158 3.1611 1.99758 2.98501 2.47918L1.19834 7.39084C0.40393 9.57047 -0.00167049 11.8726 5.17077e-06 14.1925V15.8333H1.66667V19.1667H6.66667V15.8333H13.3333V19.1667H18.3333V15.8333H20V14.1925C20.0017 11.8726 19.5961 9.57047 18.8017 7.39084L17.015 2.47918ZM4.55084 3.04834C4.60929 2.88773 4.71572 2.74898 4.8557 2.65089C4.99567 2.5528 5.16242 2.50013 5.33334 2.50001H14.6667C14.8376 2.50013 15.0043 2.5528 15.1443 2.65089C15.2843 2.74898 15.3907 2.88773 15.4492 3.04834L17.2358 7.96501C17.38 8.36251 17.5 8.76668 17.6158 9.17084H2.38417C2.50001 8.76668 2.62001 8.36251 2.76417 7.96501L4.55084 3.04834ZM5.00001 17.5H3.33334V15.8333H5.00001V17.5ZM16.6667 17.5H15V15.8333H16.6667V17.5ZM1.66667 14.1667C1.67041 13.0482 1.77697 11.9324 1.98501 10.8333H3.33334V11.6667C3.33334 11.8877 3.42114 12.0997 3.57742 12.2559C3.7337 12.4122 3.94566 12.5 4.16667 12.5C4.38769 12.5 4.59965 12.4122 4.75593 12.2559C4.91221 12.0997 5.00001 11.8877 5.00001 11.6667V10.8333H15V11.6667C15 11.8877 15.0878 12.0997 15.2441 12.2559C15.4004 12.4122 15.6123 12.5 15.8333 12.5C16.0544 12.5 16.2663 12.4122 16.4226 12.2559C16.5789 12.0997 16.6667 11.8877 16.6667 11.6667V10.8333H18.015C18.223 11.9324 18.3296 13.0482 18.3333 14.1667H1.66667Z" fill="#485159"/>
</g>
<defs>
<clipPath id="clip0_247_10667">
<rect width="20" height="20" fill="white"/>
</clipPath>
</defs>
</svg>
