<svg width="20" height="20" viewBox="0 0 20 20" fill="none" xmlns="http://www.w3.org/2000/svg">
<path d="M17.1621 4.81836L18.1719 5.76855L18.3643 5.95117L18.1719 6.13281L9.19238 14.5918C8.96987 14.8017 8.70604 14.9674 8.41699 15.0801C8.12807 15.1926 7.81868 15.2495 7.50684 15.249V15.25C7.19488 15.2505 6.88571 15.1926 6.59668 15.0801C6.37977 14.9956 6.17674 14.8817 5.99512 14.7412L5.82129 14.5918L1.82812 10.832L1.63574 10.6494L1.82812 10.4678L2.83789 9.5166L3.00977 9.35449L3.18066 9.51562L7.17285 13.2773L7.24414 13.332C7.31995 13.3795 7.41132 13.4062 7.50684 13.4062C7.63437 13.4062 7.75391 13.3583 7.83984 13.2773L16.8193 4.81836L16.9902 4.65625L17.1621 4.81836Z" fill="#485159" stroke="#485159" stroke-width="0.5"/>
</svg>
