<svg width="20" height="20" viewBox="0 0 20 20" fill="none" xmlns="http://www.w3.org/2000/svg">
<g clip-path="url(#clip0_247_10744)">
<path d="M10 0C4.48583 0 0 4.48583 0 10C0 15.5142 4.48583 20 10 20C15.5142 20 20 15.5142 20 10C20 4.48583 15.5142 0 10 0ZM10 18.3333C5.405 18.3333 1.66667 14.595 1.66667 10C1.66667 5.405 5.405 1.66667 10 1.66667C14.595 1.66667 18.3333 5.405 18.3333 10C18.3333 14.595 14.595 18.3333 10 18.3333Z" fill="#485159"/>
<path d="M6.5 15.1818V5H10.3182C11.1004 5 11.7566 5.13589 12.2869 5.40767C12.8205 5.67945 13.2232 6.06061 13.495 6.55114C13.7701 7.03835 13.9077 7.60677 13.9077 8.25639C13.9077 8.90933 13.7685 9.47609 13.4901 9.95668C13.215 10.4339 12.8089 10.8035 12.272 11.0653C11.7351 11.3239 11.0755 11.4531 10.2933 11.4531H7.57386V9.92188H10.0447C10.5021 9.92188 10.8767 9.8589 11.1683 9.73295C11.46 9.60369 11.6754 9.41643 11.8146 9.17116C11.9571 8.92259 12.0284 8.61766 12.0284 8.25639C12.0284 7.89512 11.9571 7.58688 11.8146 7.33168C11.6721 7.07315 11.455 6.8776 11.1634 6.74503C10.8717 6.60914 10.4955 6.54119 10.0348 6.54119H8.34446V15.1818H6.5ZM11.7599 10.5682L14.2805 15.1818H12.2223L9.74645 10.5682H11.7599Z" fill="#485159"/>
</g>
<defs>
<clipPath id="clip0_247_10744">
<rect width="20" height="20" fill="white"/>
</clipPath>
</defs>
</svg>
