<svg width="20" height="20" viewBox="0 0 20 20" fill="none" xmlns="http://www.w3.org/2000/svg">
<g clip-path="url(#clip0_247_10700)">
<path d="M19.1167 0.883386C18.5501 0.317717 17.7823 0 16.9817 0C16.1811 0 15.4132 0.317717 14.8467 0.883386L0 15.7301V20.0001H4.27L19.1167 5.15339C19.6821 4.58674 19.9997 3.81891 19.9997 3.01839C19.9997 2.21786 19.6821 1.45003 19.1167 0.883386ZM3.58333 18.3334H1.66667V16.4167L12.7583 5.33339L14.675 7.25005L3.58333 18.3334ZM17.9383 3.97505L15.8492 6.06422L13.9367 4.14755L16.025 2.06172C16.2792 1.80755 16.6239 1.66476 16.9833 1.66476C17.3428 1.66476 17.6875 1.80755 17.9417 2.06172C18.1958 2.31589 18.3386 2.66061 18.3386 3.02005C18.3386 3.3795 18.1958 3.72422 17.9417 3.97839L17.9383 3.97505Z" fill="#485159"/>
</g>
<defs>
<clipPath id="clip0_247_10700">
<rect width="20" height="20" fill="white"/>
</clipPath>
</defs>
</svg>
