<svg width="20" height="20" viewBox="0 0 20 20" fill="none" xmlns="http://www.w3.org/2000/svg">
<path d="M6.46875 2.38461C6.23438 2.73846 6.23438 2.79999 6.46875 3.15384C6.70312 3.50768 6.8125 3.53845 7.96875 3.53845H9.21875V4.13844V4.73844L7.92188 4.78459C6.21875 4.86152 6.09375 4.96921 6.09375 6.32304V7.38457H4.9375C3.6875 7.38457 3.54688 7.4615 3.375 8.26149L3.26562 8.73841L1.89062 8.79995C1.03125 8.83072 0.421875 8.92302 0.265625 9.06148C0.03125 9.2461 0 9.69225 0 12.6922C0 15.6922 0.03125 16.1384 0.265625 16.323C0.421875 16.4614 1.03125 16.5537 1.875 16.5845L3.25 16.646L3.34375 17.123C3.53125 18.0306 3.25 17.9999 10 17.9999C16.75 17.9999 16.4688 18.0306 16.6562 17.123L16.75 16.646L18.125 16.5845C18.9688 16.5537 19.5781 16.4614 19.7344 16.323C19.9688 16.1384 20 15.6922 20 12.6922C20 9.69225 19.9688 9.2461 19.7344 9.06148C19.5781 8.92302 18.9688 8.83072 18.1094 8.79995L16.7344 8.73841L16.625 8.26149C16.4531 7.4615 16.3125 7.38457 15.0625 7.38457H13.9062V6.32304C13.9062 4.96921 13.7812 4.86152 12.0781 4.78459L10.7812 4.73844V4.13844V3.53845H12.0312C13.1875 3.53845 13.2969 3.50768 13.5312 3.15384C13.7656 2.79999 13.7656 2.73846 13.5312 2.38461C13.3753 2.14473 13.1086 2 12.8225 2H10H7.17747C6.89137 2 6.62468 2.14473 6.46875 2.38461ZM12.3438 6.92304V7.38457H10H7.65625V6.92304V6.4615H10H12.3438V6.92304ZM15 12.6922V16.4614H10H5V12.6922V8.92302H10H15V12.6922ZM3.28125 12.6922V14.923H2.42188H1.5625V12.6922V10.4615H2.42188H3.28125V12.6922ZM18.4375 12.6922V14.923H17.5781H16.7188V12.6922V10.4615H17.5781H18.4375V12.6922Z" fill="#485159"/>
</svg>
