<svg width="20" height="20" viewBox="0 0 20 20" fill="none" xmlns="http://www.w3.org/2000/svg">
<g clip-path="url(#clip0_247_10706)">
<path d="M10 0.75C10.1334 0.75 10.2691 0.779551 10.4004 0.84082L10.5303 0.913086C10.7004 1.02366 10.8555 1.19067 10.9707 1.4082V1.40918L19.0723 17.0205V17.0215C19.1858 17.2485 19.2493 17.5123 19.25 17.7861C19.2507 18.06 19.1888 18.3247 19.0762 18.5527C18.9918 18.7235 18.8837 18.8657 18.7617 18.9756L18.6348 19.0742C18.4631 19.1908 18.2783 19.2476 18.0977 19.25H1.90234C1.76682 19.2482 1.62904 19.2156 1.49609 19.1504L1.36523 19.0742C1.19224 18.9567 1.03632 18.7805 0.923828 18.5527C0.839368 18.3817 0.783093 18.19 0.760742 17.9893L0.75 17.7861C0.750668 17.5123 0.814189 17.2485 0.927734 17.0215L0.926758 17.0205L9.0293 1.40918L9.02832 1.4082C9.11462 1.24508 9.2241 1.11072 9.34473 1.00684L9.46973 0.913086C9.59735 0.830168 9.73179 0.779685 9.86621 0.759766L10 0.75Z" stroke="#485159" stroke-width="1.5" stroke-linecap="round" stroke-linejoin="round"/>
<path d="M10 16H10.0083" stroke="#485159" stroke-width="2" stroke-linecap="round" stroke-linejoin="round"/>
<path d="M11 6H9V14H11V6Z" fill="#485159"/>
</g>
<defs>
<clipPath id="clip0_247_10706">
<rect width="20" height="20" fill="white"/>
</clipPath>
</defs>
</svg>
