<svg width="20" height="20" viewBox="0 0 20 20" fill="none" xmlns="http://www.w3.org/2000/svg">
<path d="M19.8507 9.3175C19.1191 7.7175 16.2499 2.5 9.99989 2.5C3.74989 2.5 0.880726 7.7175 0.149059 9.3175C0.0508413 9.53192 0 9.76499 0 10.0008C0 10.2367 0.0508413 10.4697 0.149059 10.6842C0.880726 12.2825 3.74989 17.5 9.99989 17.5C16.2499 17.5 19.1191 12.2825 19.8507 10.6825C19.9487 10.4683 19.9995 10.2355 19.9995 10C19.9995 9.76446 19.9487 9.53168 19.8507 9.3175ZM9.99989 15.8333C4.74406 15.8333 2.29156 11.3617 1.66656 10.0092C2.29156 8.63833 4.74406 4.16667 9.99989 4.16667C15.2432 4.16667 17.6966 8.61917 18.3332 10C17.6966 11.3808 15.2432 15.8333 9.99989 15.8333Z" fill="#485159"/>
<path d="M10.0002 5.83334C9.17608 5.83334 8.37049 6.07771 7.68529 6.53555C7.00008 6.99339 6.46603 7.64414 6.15067 8.4055C5.8353 9.16686 5.75279 10.0046 5.91356 10.8129C6.07433 11.6211 6.47117 12.3636 7.05389 12.9463C7.63661 13.529 8.37903 13.9258 9.18729 14.0866C9.99554 14.2474 10.8333 14.1649 11.5947 13.8495C12.356 13.5341 13.0068 13.0001 13.4646 12.3149C13.9225 11.6297 14.1668 10.8241 14.1668 10C14.1655 8.89535 13.7261 7.83631 12.945 7.05519C12.1639 6.27408 11.1048 5.83467 10.0002 5.83334ZM10.0002 12.5C9.50571 12.5 9.02236 12.3534 8.61124 12.0787C8.20012 11.804 7.87968 11.4135 7.69047 10.9567C7.50125 10.4999 7.45174 9.99724 7.5482 9.51228C7.64466 9.02733 7.88277 8.58187 8.2324 8.23224C8.58203 7.88261 9.02749 7.64451 9.51244 7.54805C9.99739 7.45158 10.5001 7.50109 10.9569 7.69031C11.4137 7.87953 11.8041 8.19996 12.0788 8.61108C12.3535 9.02221 12.5002 9.50556 12.5002 10C12.5002 10.6631 12.2368 11.2989 11.7679 11.7678C11.2991 12.2366 10.6632 12.5 10.0002 12.5Z" fill="#485159"/>
</svg>
