<svg width="20" height="20" viewBox="0 0 20 20" fill="none" xmlns="http://www.w3.org/2000/svg">
<path d="M19.8507 9.31751C19.0456 7.57144 17.8664 6.02378 16.3966 4.78418L18.9232 2.25751L17.7441 1.07751L14.9999 3.81918C13.481 2.94061 11.7545 2.4851 9.99989 2.50001C3.74989 2.50001 0.880726 7.71751 0.149059 9.31751C0.0508413 9.53193 0 9.76501 0 10.0008C0 10.2367 0.0508413 10.4698 0.149059 10.6842C0.954173 12.4303 2.13341 13.9779 3.60323 15.2175L1.07739 17.7442L2.25573 18.9225L4.99989 16.1808C6.51876 17.0594 8.2453 17.5149 9.99989 17.5C16.2499 17.5 19.1191 12.2825 19.8507 10.6825C19.9487 10.4683 19.9995 10.2356 19.9995 10C19.9995 9.76447 19.9487 9.53169 19.8507 9.31751ZM1.66656 10.0092C2.29156 8.63835 4.74406 4.16668 9.99989 4.16668C11.3079 4.15904 12.5988 4.46418 13.7649 5.05668L12.2941 6.52751C11.494 5.99635 10.5348 5.75834 9.57925 5.85389C8.62369 5.94943 7.73061 6.37263 7.05156 7.05168C6.37251 7.73074 5.94931 8.62381 5.85376 9.57937C5.75822 10.5349 5.99623 11.4941 6.52739 12.2942L4.79489 14.0267C3.46187 12.9412 2.39229 11.5676 1.66656 10.0092ZM12.4999 10C12.4999 10.6631 12.2365 11.2989 11.7677 11.7678C11.2988 12.2366 10.6629 12.5 9.99989 12.5C9.62865 12.4986 9.26256 12.4131 8.92906 12.25L12.2499 8.92918C12.413 9.26268 12.4985 9.62878 12.4999 10ZM7.49989 10C7.49989 9.33697 7.76328 8.70109 8.23213 8.23225C8.70097 7.76341 9.33685 7.50001 9.99989 7.50001C10.3711 7.50145 10.7372 7.58692 11.0707 7.75001L7.74989 11.0708C7.5868 10.7373 7.50133 10.3713 7.49989 10ZM9.99989 15.8333C8.6919 15.841 7.40102 15.5358 6.23489 14.9433L7.70573 13.4725C8.50578 14.0037 9.46497 14.2417 10.4205 14.1461C11.3761 14.0506 12.2692 13.6274 12.9482 12.9483C13.6273 12.2693 14.0505 11.3762 14.146 10.4207C14.2416 9.46509 14.0036 8.5059 13.4724 7.70585L15.2041 5.97418C16.5397 7.06069 17.6099 8.43756 18.3332 10C17.6966 11.3808 15.2432 15.8333 9.99989 15.8333Z" fill="#485159"/>
</svg>
