<svg width="20" height="20" viewBox="0 0 20 20" fill="none" xmlns="http://www.w3.org/2000/svg">
<path d="M12.4545 20L7.54545 16.25V11.9833L1 4.48333V2.5C1 1.83696 1.2586 1.20107 1.71892 0.732233C2.17924 0.263392 2.80356 0 3.45455 0L16.5455 0C17.1964 0 17.8208 0.263392 18.2811 0.732233C18.7414 1.20107 19 1.83696 19 2.5V4.48333L12.4545 11.9833V20ZM9.18182 15.4167L10.8182 16.6667V11.35L17.3636 3.85V2.5C17.3636 2.27899 17.2774 2.06702 17.124 1.91074C16.9706 1.75446 16.7624 1.66667 16.5455 1.66667H3.45455C3.23755 1.66667 3.02944 1.75446 2.876 1.91074C2.72256 2.06702 2.63636 2.27899 2.63636 2.5V3.85L9.18182 11.35V15.4167Z" fill="#485159"/>
</svg>
