<svg width="20" height="20" viewBox="0 0 20 20" fill="none" xmlns="http://www.w3.org/2000/svg">
<g clip-path="url(#clip0_247_10718)">
<path d="M8.72168 19.0889C8.87996 19.0623 9.05163 18.9876 9.24902 18.8633C9.64246 18.6154 10.166 18.1533 10.9336 17.4121C11.703 16.6692 12.7251 15.6379 14.1172 14.2471H14.1182C15.5354 12.8382 16.5878 11.798 17.3486 11.0117C18.1077 10.2273 18.5833 9.68811 18.8428 9.28223C19.1038 8.87369 19.1603 8.57687 19.04 8.29102C18.9828 8.15501 18.888 8.02859 18.7744 7.89941L18.3701 7.4707L17.6904 6.75488L18.2129 6.23242L18.3506 6.08887C18.4805 5.94589 18.5869 5.80763 18.666 5.67871C18.7698 5.50952 18.834 5.34596 18.834 5.20605C18.834 5.15146 18.8118 5.09189 18.7852 5.03711C18.7569 4.97907 18.716 4.91232 18.667 4.83984C18.5689 4.6948 18.4299 4.51758 18.2637 4.32129C17.9303 3.92765 17.4816 3.45007 17.0186 2.98926C16.5556 2.52851 16.0759 2.08261 15.6807 1.75098C15.4833 1.58542 15.3058 1.44624 15.1602 1.34863C15.0874 1.29989 15.0201 1.26049 14.9619 1.23242C14.907 1.20594 14.8474 1.18359 14.793 1.18359C14.658 1.18374 14.4972 1.25337 14.332 1.35742C14.1629 1.46397 13.9744 1.61593 13.7812 1.80176L13.7803 1.80371L13.2568 2.3252L12.5537 1.66211L12.5547 1.66113C12.3937 1.50884 12.2491 1.36245 12.1221 1.24707C11.9934 1.13023 11.8691 1.03231 11.7363 0.970703C11.6002 0.907631 11.457 0.883252 11.2949 0.911133C11.1359 0.938497 10.9639 1.0154 10.7646 1.1416C10.3677 1.39305 9.83788 1.8604 9.05957 2.6123C8.66947 2.98917 8.21526 3.43936 7.68164 3.97168L5.8291 5.82422C4.41557 7.23641 3.36856 8.27245 2.61426 9.05176C1.86174 9.82923 1.39332 10.3584 1.1416 10.7549C1.01527 10.9539 0.938525 11.1262 0.911133 11.2852C0.883226 11.4471 0.907613 11.5896 0.970703 11.7256C1.03237 11.8584 1.13096 11.9827 1.24805 12.1113C1.36342 12.2381 1.50889 12.3823 1.66113 12.543L2.32617 13.2461L1.80469 13.7676C1.61074 13.9613 1.45697 14.1504 1.35156 14.3223C1.24794 14.4912 1.18372 14.6542 1.18359 14.7939C1.18359 14.8484 1.20585 14.9082 1.23242 14.9629C1.26066 15.0209 1.30159 15.0877 1.35059 15.1602C1.44872 15.3053 1.5875 15.4832 1.75391 15.6797C2.08723 16.0733 2.53605 16.55 2.99902 17.0107C3.46198 17.4715 3.94064 17.9183 4.33594 18.25C4.53324 18.4155 4.71178 18.5537 4.85742 18.6514C4.93016 18.7001 4.9975 18.7405 5.05566 18.7686C5.11049 18.795 5.17026 18.8164 5.22461 18.8164C5.35955 18.8162 5.5204 18.7476 5.68555 18.6436C5.81256 18.5636 5.95024 18.4575 6.09277 18.3311L6.23633 18.1982L6.2373 18.1973L6.75977 17.6758L7.46289 18.3398L7.89648 18.7529C8.0254 18.8696 8.14956 18.9678 8.28223 19.0293C8.41802 19.0922 8.56047 19.1159 8.72168 19.0889ZM13.9912 6.03516L10.7236 2.77148L10.9541 2.51855H10.9551C11.0354 2.43166 11.1215 2.35536 11.1963 2.30176C11.2337 2.27495 11.2666 2.25502 11.293 2.24219C11.3024 2.23762 11.3105 2.23558 11.3164 2.2334C11.3283 2.24201 11.3445 2.25354 11.3643 2.26953C11.4149 2.31056 11.4864 2.37258 11.5762 2.45312C11.7556 2.61403 12.0064 2.84788 12.3096 3.13672C12.9157 3.71418 13.7314 4.51156 14.6104 5.38965L15.8594 6.64062C16.243 7.02957 16.588 7.38461 16.8779 7.68652C17.1679 7.9885 17.4021 8.23764 17.5635 8.41504C17.6441 8.50361 17.7058 8.5735 17.7471 8.62305C17.7617 8.64061 17.7727 8.65575 17.7812 8.66699C17.7794 8.67144 17.7774 8.67743 17.7744 8.68359C17.7612 8.71063 17.7413 8.74545 17.7148 8.78516C17.6883 8.82499 17.6564 8.86855 17.6211 8.91309L17.5059 9.04688L17.2666 9.30762L13.9912 6.03516ZM15.4688 4.55859L14.1719 3.26367L14.4434 2.96875H14.4443C14.5336 2.87266 14.6228 2.78699 14.6934 2.72656C14.7258 2.69876 14.7535 2.67771 14.7744 2.66309C14.7949 2.6788 14.8224 2.70104 14.8564 2.73047C14.9335 2.79714 15.0399 2.89468 15.168 3.01562C15.4238 3.2572 15.7645 3.59 16.1299 3.95508L17.3945 5.21973L17.0742 5.52734L17.0713 5.53027L16.7617 5.85156L15.4688 4.55859ZM3.89062 10.1436L3.61719 9.84863L6.70215 6.7666L7.9375 5.53809C8.31967 5.15979 8.6663 4.81858 8.95996 4.53223C9.25333 4.24615 9.49378 4.0151 9.66406 3.85547C9.74925 3.77561 9.81624 3.71388 9.86328 3.67285C9.87328 3.66413 9.88283 3.65695 9.89062 3.65039C9.90892 3.66322 9.93309 3.67944 9.95996 3.70215C10.0249 3.75702 10.1065 3.83509 10.1885 3.92383L10.4189 4.17773L7.29199 7.30078L4.15723 10.4326L3.89062 10.1436ZM5.69824 11.8535C5.67118 11.8404 5.63649 11.8204 5.59668 11.7939C5.5569 11.7675 5.51322 11.7354 5.46875 11.7002L5.33398 11.5859L5.07227 11.3477L8.20801 8.21484L11.334 5.0918L11.5879 5.32227C11.6747 5.40243 11.7511 5.48888 11.8047 5.56348C11.8315 5.6008 11.8515 5.63389 11.8643 5.66016C11.8689 5.6697 11.8709 5.67774 11.873 5.68359C11.8638 5.69643 11.8507 5.71362 11.833 5.73535C11.7902 5.78796 11.7263 5.86154 11.6436 5.95312C11.4784 6.13595 11.2415 6.38768 10.9561 6.68555C10.3852 7.2813 9.62183 8.05898 8.85254 8.83105C8.08326 9.60312 7.30854 10.3694 6.71484 10.9424C6.41789 11.229 6.16663 11.467 5.98438 11.6328C5.89325 11.7157 5.81999 11.7793 5.76758 11.8223C5.74598 11.84 5.7286 11.8531 5.71582 11.8623C5.71098 11.8603 5.70536 11.857 5.69824 11.8535ZM6.88672 13.1221L6.88379 13.1191L6.5625 12.8115L9.65723 9.71973L10.8936 8.49023C11.2754 8.11225 11.6216 7.77153 11.915 7.48535C12.2086 7.19914 12.4488 6.96729 12.6191 6.80762C12.7044 6.72773 12.7713 6.66603 12.8184 6.625C12.8281 6.61647 12.8371 6.609 12.8447 6.60254C12.8653 6.61713 12.8928 6.6365 12.9238 6.66309C12.9944 6.72351 13.0826 6.8092 13.1719 6.90527L13.4443 7.2002L10.3184 10.3232L7.19531 13.4434L6.88672 13.1221ZM8.42969 14.6787C8.34273 14.5985 8.26652 14.5122 8.21289 14.4375C8.18603 14.4001 8.16616 14.3671 8.15332 14.3408C8.14864 14.3312 8.14574 14.3233 8.14355 14.3174C8.15278 14.3045 8.16651 14.2868 8.18457 14.2646C8.22738 14.2121 8.29146 14.1392 8.37402 14.0479C8.53924 13.865 8.776 13.6124 9.06152 13.3145C9.63237 12.7187 10.3958 11.941 11.165 11.1689C11.9343 10.3969 12.7091 9.63053 13.3027 9.05762C13.5996 8.77115 13.851 8.53395 14.0332 8.36816C14.1245 8.28511 14.1975 8.22071 14.25 8.17773C14.2711 8.16047 14.2881 8.14785 14.3008 8.13867C14.3057 8.1407 14.312 8.14292 14.3193 8.14648C14.3465 8.15967 14.381 8.18044 14.4209 8.20703C14.5006 8.26011 14.5956 8.33393 14.6836 8.41504L14.9443 8.6543L11.8096 11.7852L8.68164 14.9102L8.42969 14.6787ZM9.86523 16.1123L9.57617 15.8467L12.7109 12.7139L15.8486 9.58008L16.1299 9.86035L16.4102 10.1416L13.2871 13.2617L10.1602 16.3857L9.86523 16.1123ZM8.64551 17.7246C8.59073 17.6797 8.51441 17.6128 8.41895 17.5264C8.22818 17.3536 7.96477 17.106 7.65332 16.8076C7.0306 16.2109 6.21716 15.4131 5.40918 14.6094C4.60125 13.8057 3.7991 12.9965 3.19922 12.377C2.89927 12.0672 2.65026 11.805 2.47656 11.6152C2.38972 11.5203 2.32247 11.4442 2.27734 11.3896C2.25873 11.3672 2.24416 11.3493 2.23438 11.3359C2.23643 11.331 2.23951 11.3249 2.24316 11.3174C2.25634 11.2903 2.27618 11.2556 2.30273 11.2158C2.35586 11.1362 2.43053 11.042 2.51172 10.9541V10.9531L2.75 10.6934L6.02637 13.9658L9.29395 17.2305L9.0625 17.4824C8.98223 17.5693 8.89601 17.6457 8.82129 17.6992C8.78385 17.726 8.75096 17.746 8.72461 17.7588C8.71514 17.7634 8.70705 17.7654 8.70117 17.7676C8.68757 17.7578 8.66892 17.7438 8.64551 17.7246ZM3.92969 16.0869L2.63184 14.792L2.90527 14.4971L3.03613 14.3623C3.07827 14.3215 3.11806 14.2851 3.15332 14.2549C3.18606 14.2268 3.21431 14.2061 3.23535 14.1914C3.25585 14.2071 3.28339 14.2294 3.31738 14.2588C3.39445 14.3255 3.50083 14.423 3.62891 14.5439C3.88473 14.7855 4.2254 15.1183 4.59082 15.4834L5.85547 16.748L5.53516 17.0566L5.53223 17.0586L5.22266 17.3799L3.92969 16.0869Z" fill="#485159" stroke="#485159" stroke-width="0.2"/>
</g>
<defs>
<clipPath id="clip0_247_10718">
<rect width="20" height="20" fill="white"/>
</clipPath>
</defs>
</svg>
