<svg width="20" height="20" viewBox="0 0 20 20" fill="none" xmlns="http://www.w3.org/2000/svg">
<g clip-path="url(#clip0_247_10724)">
<path d="M2.4575 4.74001L4.16667 7.04501L2.82917 8.03751L0.1125 4.37584L0.780833 3.87918C3.46083 1.88668 6.64917 0.833344 10 0.833344C13.3508 0.833344 16.5392 1.88668 19.2192 3.87918L19.89 4.37751L17.1542 8.04084L15.8192 7.04334L17.5392 4.73918C15.5292 3.42334 13.2383 2.67251 10.8325 2.53001V5.83334H9.16583V2.53001C6.75917 2.67251 4.4675 3.42418 2.45667 4.74084L2.4575 4.74001ZM16.2083 9.31251L12.3267 14.51C12.6917 14.9975 12.9158 15.595 12.9158 16.2492C12.9158 17.8575 11.6075 19.1658 9.99917 19.1658C8.39083 19.1658 7.0825 17.8575 7.0825 16.2492C7.0825 14.6408 8.39083 13.3325 9.99917 13.3325C10.3475 13.3325 10.6775 13.4042 10.9883 13.5167L14.8733 8.31418L16.2083 9.31251ZM11.25 16.2492C11.25 15.56 10.6892 14.9992 10 14.9992C9.31083 14.9992 8.75 15.56 8.75 16.2492C8.75 16.9383 9.31083 17.4992 10 17.4992C10.6892 17.4992 11.25 16.9383 11.25 16.2492ZM0 19.1667H3.33333V17.5H1.66667V16.6667H3.33333V15H1.66667V14.1667H3.33333V12.5H0V19.1667ZM20 14.1667V12.5H16.6667V19.1667H18.3333V16.6667H20V15H18.3333V14.1667H20Z" fill="#485159"/>
</g>
<defs>
<clipPath id="clip0_247_10724">
<rect width="20" height="20" fill="white"/>
</clipPath>
</defs>
</svg>
