<svg width="20" height="20" viewBox="0 0 20 20" fill="none" xmlns="http://www.w3.org/2000/svg">
<g clip-path="url(#clip0_247_10730)">
<path d="M10 20C8.02219 20 6.08879 19.4135 4.4443 18.3147C2.79981 17.2159 1.51809 15.6541 0.761209 13.8268C0.00433286 11.9996 -0.193701 9.98891 0.192152 8.0491C0.578004 6.10929 1.53041 4.32746 2.92894 2.92894C4.32746 1.53041 6.10929 0.578004 8.0491 0.192152C9.98891 -0.193701 11.9996 0.00433286 13.8268 0.761209C15.6541 1.51809 17.2159 2.79981 18.3147 4.4443C19.4135 6.08879 20 8.02219 20 10C19.9971 12.6513 18.9426 15.1932 17.0679 17.0679C15.1932 18.9426 12.6513 19.9971 10 20ZM10 1.66667C8.35183 1.66667 6.74066 2.15541 5.37025 3.07109C3.99984 3.98677 2.93174 5.28826 2.30101 6.81098C1.67028 8.33369 1.50525 10.0092 1.82679 11.6258C2.14834 13.2423 2.94201 14.7271 4.10745 15.8926C5.27289 17.058 6.75774 17.8517 8.37425 18.1732C9.99076 18.4948 11.6663 18.3297 13.189 17.699C14.7118 17.0683 16.0132 16.0002 16.9289 14.6298C17.8446 13.2593 18.3333 11.6482 18.3333 10C18.3309 7.79061 17.4522 5.67241 15.8899 4.11013C14.3276 2.54785 12.2094 1.6691 10 1.66667Z" fill="#485159"/>
<path d="M10.8332 12.4997H9.1665V11.8805C9.15419 11.2925 9.29947 10.712 9.58727 10.1991C9.87507 9.68623 10.2949 9.25972 10.8032 8.96386C11.1111 8.79428 11.3575 8.53169 11.5071 8.21364C11.6568 7.89559 11.7021 7.53836 11.6365 7.19303C11.5716 6.86403 11.41 6.56186 11.1725 6.3251C10.935 6.08835 10.6324 5.92777 10.3032 5.86386C10.0629 5.8194 9.81586 5.82829 9.57945 5.88991C9.34303 5.95154 9.12306 6.06438 8.9351 6.22046C8.74714 6.37654 8.59579 6.57203 8.49177 6.79309C8.38775 7.01415 8.33361 7.25538 8.33317 7.4997H6.6665C6.66671 6.91178 6.82241 6.33439 7.1178 5.82607C7.41319 5.31776 7.83776 4.89661 8.34846 4.60535C8.85915 4.31409 9.43779 4.16308 10.0257 4.16764C10.6136 4.1722 11.1898 4.33217 11.6959 4.63131C12.202 4.93046 12.62 5.35814 12.9075 5.87098C13.195 6.38381 13.3417 6.96355 13.3328 7.5514C13.3239 8.13924 13.1596 8.71427 12.8568 9.21816C12.5539 9.72205 12.1231 10.1369 11.6082 10.4205C11.3621 10.5744 11.1609 10.7903 11.0249 11.0466C10.8888 11.3029 10.8227 11.5905 10.8332 11.8805V12.4997Z" fill="#485159"/>
<path d="M10.8332 14.1664H9.1665V15.8331H10.8332V14.1664Z" fill="#485159"/>
</g>
<defs>
<clipPath id="clip0_247_10730">
<rect width="20" height="20" fill="white"/>
</clipPath>
</defs>
</svg>
