<svg width="20" height="20" viewBox="0 0 20 20" fill="none" xmlns="http://www.w3.org/2000/svg">
<g clip-path="url(#clip0_247_10738)">
<path d="M9.965 20.0067L9.3841 19.5087C8.58328 18.8382 1.59082 12.7992 1.59082 8.3819C1.59082 3.75698 5.34008 0.00772095 9.965 0.00772095C14.5899 0.00772095 18.3392 3.75698 18.3392 8.3819C18.3392 12.7993 11.3467 18.8382 10.5492 19.5121L9.965 20.0067ZM9.965 1.81846C6.34184 1.82256 3.4057 4.7587 3.4016 8.38186C3.4016 11.1569 7.70363 15.5901 9.965 17.6191C12.2264 15.5892 16.5284 11.1536 16.5284 8.38186C16.5243 4.7587 13.5882 1.8226 9.965 1.81846Z" fill="#485159"/>
<path d="M9.96496 11.7014C8.13168 11.7014 6.64551 10.2152 6.64551 8.38192C6.64551 6.54864 8.13168 5.06247 9.96496 5.06247C11.7982 5.06247 13.2844 6.54864 13.2844 8.38192C13.2844 10.2152 11.7983 11.7014 9.96496 11.7014ZM9.96496 6.72216C9.04832 6.72216 8.30523 7.46524 8.30523 8.38188C8.30523 9.29852 9.04832 10.0416 9.96496 10.0416C10.8816 10.0416 11.6247 9.29852 11.6247 8.38188C11.6247 7.46524 10.8816 6.72216 9.96496 6.72216Z" fill="#485159"/>
</g>
<defs>
<clipPath id="clip0_247_10738">
<rect width="20" height="20" fill="white"/>
</clipPath>
</defs>
</svg>
