<svg width="44" height="44" viewBox="0 0 44 44" fill="none" xmlns="http://www.w3.org/2000/svg">
<rect width="44" height="44" rx="22" fill="#48A72C"/>
<path d="M29.1621 16.8184L30.1719 17.7686L30.3643 17.9512L30.1719 18.1328L21.1924 26.5918C20.9699 26.8017 20.706 26.9674 20.417 27.0801C20.1281 27.1926 19.8187 27.2495 19.5068 27.249C19.1949 27.2495 18.8857 27.1926 18.5967 27.0801C18.3075 26.9674 18.0439 26.8017 17.8213 26.5918L13.8281 22.832L13.6357 22.6494L13.8281 22.4678L14.8379 21.5166L15.0098 21.3545L15.1807 21.5156L19.1729 25.2773L19.2441 25.332C19.32 25.3795 19.4113 25.4062 19.5068 25.4062C19.6344 25.4062 19.7539 25.3583 19.8398 25.2773L28.8193 16.8184L28.9902 16.6562L29.1621 16.8184Z" fill="white" stroke="white" stroke-width="0.5"/>
</svg>
