<svg width="44" height="44" viewBox="0 0 44 44" fill="none" xmlns="http://www.w3.org/2000/svg">
<rect width="44" height="44" rx="22" fill="#F4AE35"/>
<g clip-path="url(#clip0_19_1525)">
<path d="M22 10.75C22.178 10.75 22.3602 10.8026 22.5303 10.9131C22.7004 11.0237 22.8555 11.1907 22.9707 11.4082V11.4092L31.0723 27.0205V27.0215C31.1858 27.2485 31.2493 27.5123 31.25 27.7861C31.2507 28.06 31.1888 28.3247 31.0762 28.5527C30.9637 28.7805 30.8078 28.9567 30.6348 29.0742C30.4631 29.1908 30.2783 29.2476 30.0977 29.25H13.9023C13.7217 29.2476 13.5369 29.1908 13.3652 29.0742C13.1922 28.9567 13.0363 28.7805 12.9238 28.5527C12.8112 28.3247 12.7493 28.06 12.75 27.7861C12.7507 27.5123 12.8132 27.2475 12.9268 27.0205L21.0283 11.4082C21.1435 11.1905 21.2995 11.0237 21.4697 10.9131C21.6398 10.8026 21.822 10.75 22 10.75Z" stroke="white" stroke-width="1.5" stroke-linecap="round" stroke-linejoin="round"/>
<path d="M22 26H22.0083" stroke="white" stroke-width="2" stroke-linecap="round" stroke-linejoin="round"/>
<mask id="path-4-inside-1_19_1525" fill="white">
<path d="M23 16H21V24H23V16Z"/>
</mask>
<path d="M23 16H21V24H23V16Z" fill="#485159"/>
<path d="M21 16V-5.33333H-0.333334V16H21ZM23 16H44.3333V-5.33333H23V16ZM23 24V45.3333H44.3333V24H23ZM21 24H-0.333334V45.3333H21V24ZM21 16V37.3333H23V16V-5.33333H21V16ZM23 16H1.66667V24H23H44.3333V16H23ZM23 24V2.66667H21V24V45.3333H23V24ZM21 24H42.3333V16H21H-0.333334V24H21Z" fill="white" mask="url(#path-4-inside-1_19_1525)"/>
</g>
<defs>
<clipPath id="clip0_19_1525">
<rect width="20" height="20" fill="white" transform="translate(12 10)"/>
</clipPath>
</defs>
</svg>
