<svg width="44" height="44" viewBox="0 0 44 44" fill="none" xmlns="http://www.w3.org/2000/svg">
<rect width="44" height="44" rx="22" fill="#ED4647"/>
<mask id="path-2-inside-1_19_1528" fill="white">
<path d="M14.0325 15.8956L19.9477 21.7538C20.0662 21.8711 20.0662 22.0627 19.9477 22.1801L14 28.07L15.9488 30L21.866 24.1403C21.9829 24.0245 22.1712 24.0245 22.2882 24.1403L28.0511 29.8474L30 27.9175L24.2412 22.2144C24.1226 22.097 24.1226 21.9055 24.2412 21.7881L29.9982 16.087L28.0678 14.1753L22.3066 19.8805C22.1897 19.9963 22.0014 19.9963 21.8844 19.8805L15.9467 14L14.0325 15.8956Z"/>
</mask>
<path d="M14.0325 15.8956L19.9477 21.7538C20.0662 21.8711 20.0662 22.0627 19.9477 22.1801L14 28.07L15.9488 30L21.866 24.1403C21.9829 24.0245 22.1712 24.0245 22.2882 24.1403L28.0511 29.8474L30 27.9175L24.2412 22.2144C24.1226 22.097 24.1226 21.9055 24.2412 21.7881L29.9982 16.087L28.0678 14.1753L22.3066 19.8805C22.1897 19.9963 22.0014 19.9963 21.8844 19.8805L15.9467 14L14.0325 15.8956Z" fill="white"/>
<path d="M14.0325 15.8956L-0.978707 0.737324L-16.2852 15.8952L-0.979115 31.0536L14.0325 15.8956ZM14 28.07L-1.01117 12.9117L-16.3176 28.0695L-1.01169 43.2279L14 28.07ZM15.9488 30L0.93708 45.1578L15.9483 60.0243L30.96 45.1584L15.9488 30ZM28.0511 29.8474L13.0397 45.0056L28.0509 59.8714L43.0623 45.0058L28.0511 29.8474ZM30 27.9175L45.0112 43.0759L60.3179 27.9177L45.0114 12.7594L30 27.9175ZM29.9982 16.087L45.0094 31.2453L60.3163 16.087L45.0094 0.928643L29.9982 16.087ZM28.0678 14.1753L43.079 -0.983018L28.0678 -15.8485L13.0566 -0.983019L28.0678 14.1753ZM15.9467 14L30.9585 -1.15776L15.9473 -16.0244L0.93552 -1.15832L15.9467 14ZM22.3066 19.8805L7.29544 4.72221L22.3066 19.8805ZM21.8844 19.8805L6.87267 35.0383L21.8844 19.8805ZM24.2412 22.2144L9.22978 37.3725L24.2412 22.2144ZM24.2412 21.7881L39.2524 36.9464L24.2412 21.7881ZM21.866 24.1403L6.85479 8.9819L21.866 24.1403ZM22.2882 24.1403L37.2996 8.98213L22.2882 24.1403ZM19.9477 21.7538L34.9593 6.59584L19.9477 21.7538ZM19.9477 22.1801L4.93653 7.02172L19.9477 22.1801ZM14.0325 15.8956L-0.979115 31.0536L4.93609 36.9117L19.9477 21.7538L34.9593 6.59584L29.0441 0.737729L14.0325 15.8956ZM19.9477 22.1801L4.93653 7.02172L-1.01117 12.9117L14 28.07L29.0112 43.2284L34.9589 37.3384L19.9477 22.1801ZM14 28.07L-1.01169 43.2279L0.93708 45.1578L15.9488 30L30.9605 14.8422L29.0117 12.9122L14 28.07ZM15.9488 30L30.96 45.1584L36.8771 39.2986L21.866 24.1403L6.85479 8.9819L0.937589 14.8416L15.9488 30ZM22.2882 24.1403L7.27675 39.2984L13.0397 45.0056L28.0511 29.8474L43.0625 14.6893L37.2996 8.98213L22.2882 24.1403ZM28.0511 29.8474L43.0623 45.0058L45.0112 43.0759L30 27.9175L14.9888 12.7591L13.04 14.6891L28.0511 29.8474ZM30 27.9175L45.0114 12.7594L39.2526 7.05629L24.2412 22.2144L9.22978 37.3725L14.9886 43.0756L30 27.9175ZM24.2412 21.7881L39.2524 36.9464L45.0094 31.2453L29.9982 16.087L14.987 0.92864L9.22999 6.62976L24.2412 21.7881ZM29.9982 16.087L45.0094 0.928643L43.079 -0.983018L28.0678 14.1753L13.0566 29.3336L14.987 31.2453L29.9982 16.087ZM28.0678 14.1753L13.0566 -0.983019L7.29544 4.72221L22.3066 19.8805L37.3179 35.0389L43.079 29.3336L28.0678 14.1753ZM21.8844 19.8805L36.8962 4.72276L30.9585 -1.15776L15.9467 14L0.934956 29.1578L6.87267 35.0383L21.8844 19.8805ZM15.9467 14L0.93552 -1.15832L-0.978707 0.737324L14.0325 15.8956L29.0437 31.054L30.9579 29.1583L15.9467 14ZM22.3066 19.8805L7.29544 4.72221C15.4928 -3.39558 28.6992 -3.3953 36.8962 4.72276L21.8844 19.8805L6.87267 35.0383C15.3035 43.3879 28.8867 43.3882 37.3179 35.0389L22.3066 19.8805ZM24.2412 22.2144L39.2526 7.05629C47.5633 15.2866 47.5633 28.7162 39.2524 36.9464L24.2412 21.7881L9.22999 6.62976C0.681984 15.0948 0.681958 28.9075 9.22978 37.3725L24.2412 22.2144ZM21.866 24.1403L36.8771 39.2986C28.6799 47.4163 15.4738 47.4161 7.27675 39.2984L22.2882 24.1403L37.2996 8.98213C28.8687 0.632863 15.2859 0.632679 6.85479 8.9819L21.866 24.1403ZM19.9477 21.7538L4.93609 36.9117C-3.37451 28.6813 -3.37431 15.2519 4.93653 7.02172L19.9477 22.1801L34.9589 37.3384C43.5068 28.8735 43.507 15.061 34.9593 6.59584L19.9477 21.7538Z" fill="white" mask="url(#path-2-inside-1_19_1528)"/>
</svg>
