<svg width="20" height="20" viewBox="0 0 20 20" fill="none" xmlns="http://www.w3.org/2000/svg">
<path d="M11.0652 19.9825L7.56516 13.1158L5.32708 15.089C4.55214 15.7723 3.3335 15.222 3.3335 14.1889V1.6825C3.33349 1.37191 3.42026 1.0675 3.58404 0.8036C3.74781 0.539699 3.98207 0.326813 4.26039 0.188954C4.53871 0.0510945 4.85001 -0.00625225 5.15919 0.0233822C5.46836 0.0530167 5.7631 0.168453 6.01016 0.356671L15.516 8.56567C16.3089 9.25036 15.9052 10.5511 14.864 10.6666L12.0835 10.975L15.5377 17.75L11.0652 19.9825ZM8.07016 10.445L11.7985 17.75L13.2893 17.005L9.50016 9.58334L12.9318 9.2032C13.1921 9.17437 13.2931 8.84922 13.0949 8.67801L5.45829 2.08036C5.2636 1.91216 4.96138 2.051 4.96216 2.30829L4.99315 12.4962C4.99393 12.7541 5.29825 12.8909 5.49164 12.7203L8.07016 10.445Z" fill="#485159"/>
</svg>
