<svg width="20" height="20" viewBox="0 0 20 20" fill="none" xmlns="http://www.w3.org/2000/svg">
<g clip-path="url(#clip0_3698_12977)">
<path d="M3.29785 9.87598C4.18983 8.96804 5.80724 8.96804 6.69922 9.87598V9.875L8.49023 11.418C10.4851 13.4106 10.485 16.5851 8.53516 18.5352C7.58985 19.4796 6.33342 20 4.99805 20C3.66269 20 2.40637 19.4796 1.46191 18.5352C-0.487888 16.5851 -0.487779 13.4111 1.46191 11.4609L3.29785 9.87598ZM4.99902 10.8291C4.79979 10.8291 4.61425 10.9086 4.47754 11.0537C4.44817 11.0834 2.61907 12.6615 2.5957 12.6816C1.34034 13.9388 1.34041 16.0548 2.64062 17.3555C3.90024 18.6152 6.096 18.6161 7.35645 17.3555C8.65665 16.0557 8.65769 13.9402 7.35742 12.6396C7.35742 12.6396 5.53954 11.0746 5.51953 11.0537C5.38285 10.9088 5.19813 10.8291 4.99902 10.8291ZM13.8408 5.63086C14.7027 4.78724 16.135 4.78742 17.0137 5.64746L18.6367 7.14648H18.6377C20.4491 8.95736 20.4492 11.866 18.6611 13.6543C17.795 14.5204 16.6435 14.9971 15.4189 14.9971C14.1946 14.997 13.0438 14.5203 12.1777 13.6543C11.3117 12.789 10.8341 11.6367 10.834 10.4121C10.834 9.18736 11.3116 8.03519 12.1777 7.16895L13.8408 5.63086ZM17.4805 12.4756C18.6183 11.3375 18.6184 9.48667 17.4805 8.34863L15.8643 6.85547C15.736 6.7299 15.5729 6.6671 15.4131 6.66699C15.2581 6.66699 15.1059 6.72478 14.9893 6.83887L13.332 8.37109C12.8044 8.89967 12.501 9.63262 12.501 10.4121C12.5011 11.1915 12.8045 11.9246 13.3555 12.4756C14.4581 13.5781 16.3784 13.5769 17.4805 12.4756ZM7.16309 0.489258C7.82416 -0.158433 8.84161 -0.156154 9.4668 0.454102L10.7188 1.83105C11.9907 3.10164 11.9917 5.217 10.6914 6.51758C10.0613 7.1478 9.22403 7.49405 8.33301 7.49414C7.44197 7.49414 6.60397 7.1469 5.97461 6.51758C5.34522 5.88811 4.99805 5.04961 4.99805 4.15918C4.99816 3.26891 5.34546 2.43113 5.97559 1.80176L7.16309 0.489258ZM7.18262 2.95117C6.83927 3.2954 6.66515 3.71412 6.66504 4.15918C6.66504 4.60439 6.83919 5.02372 7.1543 5.33887C7.78374 5.96878 8.88162 5.96901 9.51172 5.33887H9.5127C10.1624 4.68858 10.1626 3.63162 9.5127 2.98145L8.33301 1.68262L7.18262 2.95117Z" fill="#485159"/>
</g>
<defs>
<clipPath id="clip0_3698_12977">
<rect width="20" height="20" fill="white"/>
</clipPath>
</defs>
</svg>
