<svg width="20" height="20" viewBox="0 0 20 20" fill="none" xmlns="http://www.w3.org/2000/svg">
<path d="M15.525 4.16667H11.7V1.66667C11.7 1.22464 11.5209 0.800716 11.2021 0.488155C10.8833 0.175595 10.4509 0 10 0L7.45 0C6.99913 0 6.56673 0.175595 6.24792 0.488155C5.92911 0.800716 5.75 1.22464 5.75 1.66667V4.40833C4.52182 4.76732 3.4447 5.50551 2.67893 6.51302C1.91316 7.52053 1.49967 8.74353 1.5 10V20H18.5V7.08333C18.5 6.30978 18.1866 5.56792 17.6286 5.02094C17.0707 4.47396 16.314 4.16667 15.525 4.16667ZM7.45 1.66667H10V4.16667H7.45V1.66667ZM3.71 8.01667C4.07474 7.356 4.61488 6.8043 5.27325 6.41995C5.93163 6.03561 6.68374 5.83292 7.45 5.83333H12.55V9.81667H3.251C3.26406 9.19047 3.42095 8.57522 3.71 8.01667ZM16.8 18.3333H3.2V11.4833H12.55V12.0833C12.55 12.8569 12.8634 13.5987 13.4214 14.1457C13.9793 14.6927 14.736 15 15.525 15H16.8V18.3333ZM16.8 13.3333H15.525C15.1868 13.3333 14.8625 13.2016 14.6234 12.9672C14.3843 12.7328 14.25 12.4149 14.25 12.0833V5.83333H15.525C15.8632 5.83333 16.1875 5.96503 16.4266 6.19945C16.6657 6.43387 16.8 6.75181 16.8 7.08333V13.3333Z" fill="#485159"/>
</svg>
