<svg width="20" height="20" viewBox="0 0 20 20" fill="none" xmlns="http://www.w3.org/2000/svg">
<g clip-path="url(#clip0_247_10692)">
<path d="M7.81661 0.231636C9.15328 -0.0616745 10.5363 -0.0769625 11.8791 0.186715C14.5259 0.727527 16.8504 2.294 18.343 4.54218C19.1801 5.80409 19.7181 7.24072 19.9152 8.7414C19.9501 9.0057 19.974 9.27295 19.9865 9.54316C20.0326 10.515 19.9652 11.5404 19.7434 12.4924C19.5932 13.1334 19.3149 13.7001 18.7209 14.0666C17.5985 14.7595 16.7402 13.6332 15.5305 13.2551C14.1637 12.8279 12.246 13.4387 11.6779 14.7463C11.1099 16.0539 11.6916 17.5986 11.5822 18.9855C11.5445 19.459 11.346 19.8483 10.844 19.9396C10.1756 20.0612 9.48644 19.9741 8.81759 19.9016C8.15182 19.8232 7.49605 19.6752 6.86154 19.4592C5.63079 19.0528 4.48932 18.4146 3.49923 17.5793C3.04147 17.192 2.62162 16.7619 2.24435 16.2961C0.0589366 13.5931 -0.610478 9.81318 0.591028 6.54414C1.28098 4.68271 2.5044 3.06512 4.10861 1.89277C5.21708 1.09088 6.47965 0.525074 7.81661 0.231636ZM9.30001 1.6789C7.59818 1.81036 5.97778 2.46253 4.66036 3.54609C1.61726 6.07831 0.742852 10.2505 2.52755 13.7707C3.3543 15.3827 4.68177 16.6848 6.31075 17.4816C7.3344 17.9811 8.45069 18.2631 9.58908 18.3107C9.68412 18.3164 9.77912 18.2918 9.85861 18.2394C9.93809 18.1871 9.9983 18.1102 10.0305 18.0207C10.11 17.8217 10.0827 17.6095 10.0686 17.4006C10.0508 17.1505 10.0209 16.9015 9.9963 16.6525C9.92726 15.9517 9.9489 15.2542 10.177 14.5832C10.3711 14.021 10.6749 13.5024 11.0705 13.0578C11.6648 12.3843 12.4388 11.8938 13.302 11.6428C13.5943 11.5595 13.8944 11.5049 14.1975 11.4816C14.7352 11.4477 15.275 11.5038 15.7942 11.6477C16.108 11.7296 16.3928 11.8745 16.6789 12.0207C16.8024 12.0818 16.9322 12.1656 17.0666 12.2355C17.3589 12.3874 17.6863 12.4503 17.9504 12.2082C18.1633 12.0134 18.2583 11.7204 18.2981 11.4348C18.4628 10.2268 18.3754 8.9977 18.0402 7.82539C17.3524 5.38315 15.5366 3.28769 13.1877 2.30586C11.9597 1.79338 10.6271 1.57835 9.30001 1.6789ZM6.17599 11.6584C6.3409 11.6577 6.50499 11.6894 6.65743 11.7521C6.80979 11.8149 6.94826 11.9071 7.06466 12.0236C7.1811 12.1402 7.27365 12.2785 7.33615 12.4309C7.39865 12.5832 7.43003 12.7467 7.42892 12.9113C7.42553 13.2396 7.29303 13.5539 7.06075 13.7863C6.82852 14.0184 6.51437 14.1504 6.18575 14.1545C5.85305 14.155 5.53352 14.0239 5.29708 13.7902C5.06086 13.5566 4.92687 13.2394 4.92404 12.9074C4.92341 12.7431 4.95503 12.5799 5.01779 12.4279C5.08054 12.276 5.17281 12.1378 5.28927 12.0217C5.40573 11.9056 5.54427 11.8136 5.6965 11.7512C5.84858 11.6888 6.01158 11.6576 6.17599 11.6584ZM6.18185 6.65449C6.3466 6.65448 6.51026 6.68687 6.66232 6.75019C6.81437 6.81351 6.95265 6.90674 7.06857 7.02363C7.18436 7.14046 7.27527 7.27951 7.33712 7.43183C7.39895 7.58413 7.43053 7.747 7.42892 7.91132C7.42496 8.24021 7.29217 8.55514 7.0588 8.7873C6.82537 9.01947 6.50939 9.1508 6.1799 9.15351C5.84737 9.15235 5.52831 9.0201 5.29318 8.78535C5.05818 8.55066 4.92622 8.23242 4.92501 7.90058C4.92487 7.73615 4.95745 7.57291 5.02072 7.42109C5.08395 7.26939 5.17636 7.13156 5.29318 7.01582C5.41006 6.90004 5.54887 6.80824 5.70138 6.74628C5.85384 6.68438 6.01727 6.65309 6.18185 6.65449ZM14.549 6.65253C14.7123 6.6539 14.8744 6.68734 15.0246 6.75117C15.1748 6.81499 15.3109 6.90816 15.425 7.02461C15.539 7.141 15.6291 7.27873 15.6897 7.42988C15.7503 7.58122 15.7807 7.74346 15.7785 7.90644C15.7785 8.071 15.7452 8.23402 15.6818 8.38593C15.6185 8.53779 15.5254 8.67532 15.4084 8.79121C15.2914 8.9071 15.1528 8.99961 15.0002 9.06171C14.8477 9.12371 14.6844 9.15472 14.5197 9.15351C14.1905 9.1485 13.8762 9.01525 13.6438 8.78242C13.4113 8.54939 13.2792 8.23431 13.2756 7.90546C13.2749 7.73924 13.3073 7.57457 13.3713 7.42109C13.4353 7.26751 13.529 7.12768 13.6477 7.01093C13.7664 6.89422 13.908 6.803 14.0627 6.7414C14.2174 6.67989 14.3826 6.64938 14.549 6.65253ZM10.3654 4.15253C10.6948 4.15501 11.0099 4.28772 11.2424 4.5207C11.4749 4.75367 11.6064 5.0688 11.6076 5.39765C11.6049 5.72909 11.4713 6.04609 11.2365 6.28046C11.0017 6.51483 10.6838 6.64799 10.3518 6.65058C10.1871 6.65012 10.0241 6.61737 9.87228 6.5539C9.72025 6.49035 9.58196 6.39742 9.46603 6.28046C9.35011 6.16352 9.25856 6.02467 9.1965 5.87226C9.13443 5.71983 9.10339 5.55633 9.1047 5.39179C9.10428 5.22732 9.13696 5.06409 9.2004 4.9123C9.2638 4.76076 9.35665 4.62325 9.47384 4.508C9.59127 4.39262 9.73096 4.30137 9.884 4.24043C10.037 4.17952 10.2008 4.14952 10.3654 4.15253Z" fill="#485159"/>
</g>
<defs>
<clipPath id="clip0_247_10692">
<rect width="20" height="20" fill="white"/>
</clipPath>
</defs>
</svg>
