<svg width="20" height="20" viewBox="0 0 20 20" fill="none" xmlns="http://www.w3.org/2000/svg">
<g clip-path="url(#clip0_247_10722)">
<path d="M14.9998 7.08335C14.9998 7.63588 14.7803 8.16579 14.3896 8.55649C13.9989 8.94719 13.469 9.16668 12.9165 9.16668C12.3639 9.16668 11.834 8.94719 11.4433 8.55649C11.0526 8.16579 10.8331 7.63588 10.8331 7.08335C10.8331 6.53081 11.0526 6.00091 11.4433 5.61021C11.834 5.21951 12.3639 5.00001 12.9165 5.00001C13.469 5.00001 13.9989 5.21951 14.3896 5.61021C14.7803 6.00091 14.9998 6.53081 14.9998 7.08335ZM14.9948 12.805C14.949 14.1291 14.6185 15.4277 14.0256 16.6125C13.4794 17.6455 12.6592 18.5081 11.6551 19.1056C10.6509 19.7032 9.50158 20.0126 8.33314 20H7.49981V15.4167C7.49609 14.6443 7.1876 13.9046 6.64142 13.3584C6.09525 12.8122 5.35555 12.5037 4.58314 12.5H-0.0001888V11.6667C-0.0128041 10.4982 0.29664 9.3489 0.894195 8.34474C1.49175 7.34058 2.35433 6.52041 3.38731 5.97418C4.57212 5.38135 5.87076 5.05079 7.19481 5.00501C8.40885 3.43688 9.96795 2.16962 11.7511 1.30162C13.5342 0.43362 15.4934 -0.0117744 17.4765 1.44403e-05C17.8065 -0.00207074 18.1336 0.0610002 18.4392 0.185611C18.7448 0.310222 19.0227 0.493921 19.2571 0.726177C19.4916 0.958433 19.6778 1.23468 19.8053 1.53907C19.9327 1.84346 19.9988 2.17002 19.9998 2.50001C20.0139 4.48686 19.5697 6.4502 18.7017 8.23745C17.8336 10.0247 16.5651 11.5877 14.9948 12.805ZM1.73648 10.8333H3.62148C4.24035 9.455 4.96734 8.1278 5.79564 6.86418C5.22032 6.99803 4.66284 7.19943 4.13481 7.46418C3.49976 7.79952 2.95206 8.27892 2.53559 8.86399C2.11912 9.44905 1.84544 10.1235 1.73648 10.8333ZM13.1356 14.2042C11.872 15.0325 10.5448 15.7595 9.16648 16.3783V18.2633C9.87632 18.1544 10.5508 17.8807 11.1358 17.4642C11.7209 17.0478 12.2003 16.5001 12.5356 15.865C12.8004 15.337 13.0018 14.7795 13.1356 14.2042ZM18.3331 2.47668C18.3271 2.25974 18.2366 2.05372 18.081 1.90245C17.9253 1.75118 17.7168 1.6666 17.4998 1.66668C13.1998 1.78918 10.2915 3.43668 7.48481 7.35168C6.7016 8.47935 6.01287 9.66979 5.42564 10.9108C6.33558 11.0803 7.17288 11.5213 7.82736 12.1758C8.48185 12.8303 8.92284 13.6676 9.09231 14.5775C10.3334 13.9903 11.5238 13.3016 12.6515 12.5183C16.5631 9.70835 18.2106 6.80001 18.3331 2.47668ZM5.10148 14.8992C5.56712 15.3696 5.82831 16.0048 5.82831 16.6667C5.82831 17.3286 5.56712 17.9638 5.10148 18.4342C4.34564 19.1892 2.08314 19.655 1.14481 19.8208L-0.0268555 20.0267L0.178978 18.855C0.345645 17.9167 0.810644 15.6542 1.56564 14.8983C2.0421 14.4439 2.67529 14.1904 3.33373 14.1906C3.99216 14.1907 4.62524 14.4445 5.10148 14.8992ZM4.16648 16.6667C4.16677 16.5572 4.14535 16.4488 4.10343 16.3476C4.06152 16.2465 3.99996 16.1547 3.92231 16.0775C3.76604 15.9213 3.55411 15.8335 3.33314 15.8335C3.11217 15.8335 2.90025 15.9213 2.74398 16.0775C2.42626 16.6511 2.20312 17.2721 2.08314 17.9167C2.72798 17.7962 3.34925 17.5728 3.92314 17.255C4.00054 17.1779 4.06189 17.0862 4.10366 16.9852C4.14542 16.8842 4.16677 16.776 4.16648 16.6667Z" fill="#485159"/>
</g>
<defs>
<clipPath id="clip0_247_10722">
<rect width="20" height="20" fill="white"/>
</clipPath>
</defs>
</svg>
