<svg width="20" height="20" viewBox="0 0 20 20" fill="none" xmlns="http://www.w3.org/2000/svg">
<g clip-path="url(#clip0_247_10782)">
<path d="M9.9565 20.0075L9.6615 19.8767C9.33317 19.7325 1.6665 16.27 1.6665 10V4.56334C1.6668 4.04015 1.83216 3.53039 2.13904 3.10665C2.44592 2.68291 2.87867 2.3668 3.37567 2.20334L9.99984 0.00750732L16.624 2.20334C17.121 2.3668 17.5538 2.68291 17.8606 3.10665C18.1675 3.53039 18.3329 4.04015 18.3332 4.56334V10C18.3332 17.1475 10.5932 19.7958 10.2632 19.9058L9.9565 20.0075ZM9.99984 1.75501L3.90317 3.77667C3.73729 3.83085 3.59281 3.93614 3.49042 4.07745C3.38804 4.21875 3.33299 4.38884 3.33317 4.56334V10C3.33317 14.5783 8.69984 17.5483 10.039 18.2175C11.3757 17.68 16.6665 15.2192 16.6665 10V4.56334C16.6667 4.38884 16.6116 4.21875 16.5093 4.07745C16.4069 3.93614 16.2624 3.83085 16.0965 3.77667L9.99984 1.75501Z" fill="#485159"/>
<path d="M9.25897 12.1183H9.23147C9.02054 12.1151 8.81246 12.0691 8.61981 11.9832C8.42716 11.8973 8.25394 11.7731 8.11063 11.6183L6.18896 9.61835L7.3898 8.46668L9.2598 10.4167L13.5773 6.09918L14.7556 7.27752L10.3715 11.6617C10.2254 11.8076 10.0519 11.9231 9.86096 12.0015C9.67 12.0798 9.46539 12.1196 9.25897 12.1183Z" fill="#485159"/>
</g>
<defs>
<clipPath id="clip0_247_10782">
<rect width="20" height="20" fill="white"/>
</clipPath>
</defs>
</svg>
