<svg width="20" height="20" viewBox="0 0 20 20" fill="none" xmlns="http://www.w3.org/2000/svg">
<g clip-path="url(#clip0_247_10776)">
<path d="M15.8333 0H2.5C1.83696 0 1.20107 0.263392 0.732233 0.732233C0.263392 1.20107 0 1.83696 0 2.5L0 20H20V4.16667L15.8333 0ZM5.83333 1.66667H14.1667V5H5.83333V1.66667ZM18.3333 18.3333H1.66667V2.5C1.66667 2.27899 1.75446 2.06702 1.91074 1.91074C2.06702 1.75446 2.27899 1.66667 2.5 1.66667H4.16667V6.66667H15.8333V2.35667L18.3333 4.85667V18.3333Z" fill="#485159"/>
<path d="M9.99984 8.33331C9.34057 8.33331 8.6961 8.52881 8.14794 8.89508C7.59977 9.26135 7.17253 9.78195 6.92024 10.391C6.66795 11.0001 6.60194 11.6703 6.73055 12.3169C6.85917 12.9636 7.17664 13.5575 7.64282 14.0237C8.10899 14.4898 8.70293 14.8073 9.34954 14.9359C9.99614 15.0645 10.6664 14.9985 11.2755 14.7462C11.8845 14.494 12.4051 14.0667 12.7714 13.5185C13.1377 12.9704 13.3332 12.3259 13.3332 11.6666C13.3332 10.7826 12.982 9.93474 12.3569 9.30962C11.7317 8.6845 10.8839 8.33331 9.99984 8.33331ZM9.99984 13.3333C9.6702 13.3333 9.34797 13.2356 9.07389 13.0524C8.79981 12.8693 8.58619 12.609 8.46004 12.3045C8.33389 11.9999 8.30089 11.6648 8.3652 11.3415C8.42951 11.0182 8.58824 10.7212 8.82133 10.4881C9.05442 10.255 9.35139 10.0963 9.67469 10.032C9.99799 9.9677 10.3331 10.0007 10.6376 10.1268C10.9422 10.253 11.2025 10.4666 11.3856 10.7407C11.5688 11.0148 11.6665 11.337 11.6665 11.6666C11.6665 12.1087 11.4909 12.5326 11.1784 12.8452C10.8658 13.1577 10.4419 13.3333 9.99984 13.3333Z" fill="#485159"/>
</g>
<defs>
<clipPath id="clip0_247_10776">
<rect width="20" height="20" fill="white"/>
</clipPath>
</defs>
</svg>
