<svg width="20" height="20" viewBox="0 0 20 20" fill="none" xmlns="http://www.w3.org/2000/svg">
<path d="M20 3.33333H15V1.66667C15 1.22464 14.7893 0.800716 14.4142 0.488155C14.0391 0.175595 13.5304 0 13 0H7C6.46957 0 5.96086 0.175595 5.58579 0.488155C5.21071 0.800716 5 1.22464 5 1.66667V3.33333H0V5H2V17.5C2 18.163 2.31607 18.7989 2.87868 19.2678C3.44129 19.7366 4.20435 20 5 20H15C15.7957 20 16.5587 19.7366 17.1213 19.2678C17.6839 18.7989 18 18.163 18 17.5V5H20V3.33333ZM7 1.66667H13V3.33333H7V1.66667ZM16 17.5C16 17.721 15.8946 17.933 15.7071 18.0893C15.5196 18.2455 15.2652 18.3333 15 18.3333H5C4.73478 18.3333 4.48043 18.2455 4.29289 18.0893C4.10536 17.933 4 17.721 4 17.5V5H16V17.5Z" fill="#485159"/>
<path d="M9 8.33334H7V15H9V8.33334Z" fill="#485159"/>
<path d="M13 8.33334H11V15H13V8.33334Z" fill="#485159"/>
</svg>
