<svg width="20" height="20" viewBox="0 0 20 20" fill="none" xmlns="http://www.w3.org/2000/svg">
<g clip-path="url(#clip0_493_30)">
<path d="M13.5098 0.5C13.7228 0.500058 13.919 0.600112 14.042 0.762695L14.0908 0.836914L14.0986 0.851562L14.1084 0.866211L15.3604 2.77441L15.5078 3H17.0908C17.6646 3 18.0224 3.24544 18.2559 3.58691C18.5045 3.95075 18.621 4.44472 18.6211 4.90234V9H19.5908V14.5H18.6211V18.0811C18.621 18.8583 17.9801 19.5 17.1826 19.5H2.0293C1.23184 19.4999 0.590938 18.8583 0.59082 18.0811V4.90234L0.595703 4.72754C0.620301 4.31722 0.731753 3.89633 0.939453 3.57715C1.16162 3.23577 1.49612 3.00004 2.0293 3H7.89746L7.99609 2.95508L13.1523 0.599609L13.1689 0.591797L13.1855 0.583008C13.2845 0.528725 13.3973 0.5 13.5098 0.5ZM15.5107 9.58398C14.3499 9.58398 13.3975 10.5203 13.3975 11.6816V11.8467C13.3977 13.0079 14.3501 13.9434 15.5107 13.9434H19.1211V12.9434H19.0908V10.584H19.1211V9.58398H15.5107ZM15.8418 11.4473C16.0431 11.4472 16.1981 11.6078 16.1982 11.7949C16.1982 11.9823 16.0434 12.1426 15.8418 12.1426C15.6403 12.1424 15.4863 11.9822 15.4863 11.7949C15.4865 11.6313 15.6042 11.4884 15.7686 11.4551L15.8418 11.4482V11.4473ZM13.6738 0.913086C13.5328 0.87395 13.2277 0.871523 13.0605 1.1582C13.0565 1.1652 13.0535 1.17268 13.0498 1.17969L6.85156 4.56055L7.09082 5.5H15.8359L15.5234 4.79688L14.1543 1.71777L14.1934 1.69727L14.0684 1.47363C14.069 1.46592 14.072 1.45811 14.0723 1.4502C14.0845 1.11016 13.8138 0.951943 13.6738 0.913086ZM16.0049 4.24512L16.4404 5.01953L16.583 5.27441H18.2422L18.1787 4.71777C18.146 4.43072 18.0846 4.07798 17.8369 3.82324C17.5707 3.54956 17.2062 3.5 16.876 3.5H15.5869L16.0049 4.24512ZM13.0977 11.6787C13.0948 10.9675 13.3714 10.3 13.7783 9.80273C14.1906 9.2989 14.6873 9.02655 15.0879 9H18.126L18.1367 8.51074L18.1816 6.51074L18.1934 6H3.16602C3.15633 5.99695 3.14544 5.99404 3.13379 5.99023C3.07258 5.97023 2.98749 5.94092 2.89551 5.90332C2.7435 5.84119 2.61018 5.77197 2.51953 5.70801L2.44434 5.64648C2.27871 5.48086 2.19449 5.35983 2.15039 5.27734C2.19148 5.27572 2.23274 5.27442 2.27148 5.27441H4.63477L4.72754 5.23633L6.58691 4.46191L6.39453 3.5H2.0293C1.83841 3.50001 1.61712 3.52359 1.42676 3.6416C1.20207 3.78097 1.10896 3.99276 1.07715 4.17676C1.05025 4.33238 1.06208 4.49903 1.07031 4.6123C1.07998 4.74524 1.09082 4.8642 1.09082 5V17.0977C1.09083 17.3266 1.09576 17.5566 1.125 17.7656C1.15411 17.9736 1.21205 18.1994 1.3418 18.3994C1.63619 18.8531 2.14154 18.9599 2.69824 18.9189L16.6787 19H16.6816C17.4313 19 18.1816 18.3827 18.1816 17.5V14.5H14.9863C14.529 14.5 14.0644 14.2382 13.6963 13.7441C13.3758 13.3138 13.1554 12.738 13.1074 12.1172L13.0977 11.8486V11.6787Z" fill="#485159" stroke="#485159"/>
</g>
<defs>
<clipPath id="clip0_493_30">
<rect width="20" height="20" fill="white"/>
</clipPath>
</defs>
</svg>
