<svg width="20" height="20" viewBox="0 0 20 20" fill="none" xmlns="http://www.w3.org/2000/svg">
<g clip-path="url(#clip0_247_10769)">
<path d="M10 0C7.34872 0.00287687 4.80684 1.06079 2.9321 2.94161C1.05736 4.82244 0.00286757 7.37256 0 10.0324C0.5 23.3254 19.5 23.3196 20 10.0324C19.9971 7.37256 18.9426 4.82244 17.0679 2.94161C15.1932 1.06079 12.6513 0.00287687 10 0ZM10 18.3928C7.79061 18.3904 5.6724 17.5088 4.11012 15.9414C2.54785 14.3741 1.66909 12.249 1.66667 10.0324C2.08333 -1.04338 17.9167 -1.04087 18.3333 10.0324C18.3309 12.249 17.4522 14.3741 15.8899 15.9414C14.3276 17.5088 12.2094 18.3904 10 18.3928ZM10 3.34415C8.2325 3.34614 6.53796 4.05144 5.28815 5.30531C4.03833 6.55917 3.33532 8.25921 3.33333 10.0324C3.64667 18.8844 16.355 18.8819 16.6667 10.0324C16.6647 8.25921 15.9617 6.55917 14.7119 5.30531C13.462 4.05144 11.7675 3.34614 10 3.34415ZM9.305 10.9404C9.28739 10.7104 9.2472 10.4827 9.185 10.2607C9.12242 10.0402 9.0387 9.82627 8.935 9.62195C9.33732 9.46331 9.70064 9.21917 10 8.90631C10.2986 9.21887 10.6611 9.46299 11.0625 9.62195C10.9588 9.82627 10.8751 10.0402 10.8125 10.2607C10.7503 10.4827 10.7101 10.7104 10.6925 10.9404C10.2348 10.8454 9.76266 10.8454 9.305 10.9404ZM14.2667 7.419L12.6583 8.06442C12.4564 8.1448 12.2379 8.17444 12.0219 8.15078C11.8059 8.12711 11.599 8.05085 11.4191 7.92863C11.2391 7.80641 11.0917 7.64193 10.9897 7.44951C10.8876 7.25708 10.8339 7.04255 10.8333 6.82457V5.08645C11.5383 5.20706 12.2095 5.47761 12.8016 5.87993C13.3938 6.28224 13.8933 6.80701 14.2667 7.419ZM9.16667 5.08645V6.82457C9.16609 7.04255 9.11243 7.25708 9.01034 7.44951C8.90826 7.64193 8.76085 7.80641 8.58095 7.92863C8.40104 8.05085 8.19409 8.12711 7.9781 8.15078C7.76211 8.17444 7.54363 8.1448 7.34167 8.06442L5.73333 7.419C6.10666 6.80701 6.60619 6.28224 7.19836 5.87993C7.79054 5.47761 8.46166 5.20706 9.16667 5.08645ZM5 10.0324C4.99999 9.67581 5.03771 9.32017 5.1125 8.97152L6.52917 9.54086C6.78174 9.64196 7.00776 9.79999 7.18974 10.0027C7.37172 10.2055 7.50479 10.4475 7.57866 10.71C7.65252 10.9726 7.66521 11.2487 7.61573 11.5169C7.56626 11.7852 7.45595 12.0385 7.29333 12.2571L6.37667 13.4853C5.49216 12.5548 4.9991 11.3182 5 10.0324ZM7.70917 14.4902L8.66667 13.2094C8.82735 13.0099 9.03048 12.8489 9.26119 12.7384C9.49189 12.6278 9.74433 12.5705 10 12.5705C10.2557 12.5705 10.5081 12.6278 10.7388 12.7384C10.9695 12.8489 11.1727 13.0099 11.3333 13.2094L12.2908 14.4894C11.5816 14.853 10.7966 15.0427 10.0001 15.0428C9.20364 15.0429 8.41851 14.8536 7.70917 14.4902ZM13.6258 13.487L13.0792 12.7571L12.7108 12.2638C12.5472 12.0452 12.4359 11.7917 12.3857 11.523C12.3355 11.2543 12.3477 10.9776 12.4214 10.7144C12.4951 10.4511 12.6282 10.2085 12.8105 10.0053C12.9928 9.80205 13.2193 9.6437 13.4725 9.54253L14.8892 8.97319C15.0584 9.77189 15.0317 10.5999 14.8112 11.3859C14.5907 12.1719 14.183 12.8924 13.6233 13.4853L13.6258 13.487Z" fill="#485159"/>
</g>
<defs>
<clipPath id="clip0_247_10769">
<rect width="20" height="20" fill="white"/>
</clipPath>
</defs>
</svg>
