<svg width="20" height="20" viewBox="0 0 20 20" fill="none" xmlns="http://www.w3.org/2000/svg">
<path d="M16.999 16.31V18C16.999 18.5304 16.7883 19.0391 16.4132 19.4142C16.0382 19.7893 15.5295 20 14.999 20H4.99902C4.46859 20 3.95988 19.7893 3.58481 19.4142C3.20974 19.0391 2.99902 18.5304 2.99902 18V14.3C2.53902 14.12 1.94902 14 0.999023 14C0.733807 14 0.479453 13.8946 0.291917 13.7071C0.10438 13.5196 -0.000976562 13.2652 -0.000976562 13C-0.000976562 12.7348 0.10438 12.4804 0.291917 12.2929C0.479453 12.1054 0.733807 12 0.999023 12C1.81902 12 2.46902 12.08 2.99902 12.21V10.3C2.53902 10.12 1.94902 10 0.999023 10C0.733807 10 0.479453 9.89464 0.291917 9.70711C0.10438 9.51957 -0.000976562 9.26522 -0.000976562 9C-0.000976562 8.73478 0.10438 8.48043 0.291917 8.29289C0.479453 8.10536 0.733807 8 0.999023 8C1.81902 8 2.46902 8.08 2.99902 8.21V6.3C2.53902 6.12 1.94902 6 0.999023 6C0.733807 6 0.479453 5.89464 0.291917 5.70711C0.10438 5.51957 -0.000976562 5.26522 -0.000976562 5C-0.000976562 4.73478 0.10438 4.48043 0.291917 4.29289C0.479453 4.10536 0.733807 4 0.999023 4C1.81902 4 2.46902 4.08 2.99902 4.21V2C2.99902 1.46957 3.20974 0.960859 3.58481 0.585786C3.95988 0.210714 4.46859 0 4.99902 0H14.999C15.5295 0 16.0382 0.210714 16.4132 0.585786C16.7883 0.960859 16.999 1.46957 16.999 2V4.16C18.779 4.47 19.539 5.13 19.709 5.29C20.099 5.68 20.099 6.32 19.709 6.71C19.319 7.1 18.799 7.09 18.289 6.71C18.289 6.71 17.249 6 14.999 6C13.739 6 12.909 6.41 11.949 6.9C10.909 7.41 9.73902 8 7.99902 8C7.63902 8 7.30902 8 6.99902 7.96V5.95C7.29902 6 7.62902 6 7.99902 6C9.25902 6 10.089 5.59 11.049 5.11C12.089 4.59 13.269 4 14.999 4V2H4.99902V18H14.999V16C16.499 16 16.969 16.29 16.999 16.31ZM14.999 8C13.269 8 12.089 8.59 11.049 9.11C10.089 9.59 9.25902 10 7.99902 10C7.62902 10 7.29902 10 6.99902 9.95V11.96C7.30902 12 7.63902 12 7.99902 12C9.73902 12 10.909 11.41 11.949 10.9C12.909 10.42 13.739 10 14.999 10C17.249 10 18.289 10.71 18.289 10.71C18.799 11.1 19.319 11.1 19.709 10.71C20.099 10.32 20.099 9.69 19.709 9.29C19.499 9.08 18.249 8 14.999 8ZM14.999 12C13.269 12 12.089 12.59 11.049 13.11C10.089 13.59 9.25902 14 7.99902 14C7.62902 14 7.29902 14 6.99902 13.95V15.96C7.30902 16 7.63902 16 7.99902 16C9.73902 16 10.909 15.41 11.949 14.9C12.909 14.42 13.739 14 14.999 14C17.249 14 18.289 14.71 18.289 14.71C18.799 15.1 19.319 15.1 19.709 14.71C20.099 14.32 20.099 13.69 19.709 13.29C19.499 13.08 18.249 12 14.999 12Z" fill="#76828B"/>
</svg>
