<svg width="20" height="18" viewBox="0 0 20 18" fill="none" xmlns="http://www.w3.org/2000/svg">
<path d="M3.33333 8.16602H8.33333V9.83268H3.33333V8.16602ZM15 6.49935H13.3333V8.16602H11.6667V9.83268H13.3333V11.4993H15V9.83268H16.6667V8.16602H15V6.49935ZM20 5.66602V17.3327H0V5.66602C0 5.00297 0.263392 4.36709 0.732233 3.89825C1.20107 3.42941 1.83696 3.16602 2.5 3.16602V0.666016H9.16667V3.16602H10.8333V0.666016H17.5V3.16602C18.163 3.16602 18.7989 3.42941 19.2678 3.89825C19.7366 4.36709 20 5.00297 20 5.66602ZM18.3333 5.66602C18.3333 5.445 18.2455 5.23304 18.0893 5.07676C17.933 4.92048 17.721 4.83268 17.5 4.83268H15.8333V2.33268H12.5V4.83268H7.5V2.33268H4.16667V4.83268H2.5C2.27899 4.83268 2.06702 4.92048 1.91074 5.07676C1.75446 5.23304 1.66667 5.445 1.66667 5.66602V15.666H18.3333V5.66602Z" fill="#5B6871"/>
</svg>
