<svg width="20" height="16" viewBox="0 0 20 16" fill="none" xmlns="http://www.w3.org/2000/svg">
<path d="M6.46875 0.384612C6.23438 0.738456 6.23438 0.799994 6.46875 1.15384C6.70312 1.50768 6.8125 1.53845 7.96875 1.53845H9.21875V2.13844V2.73844L7.92188 2.78459C6.21875 2.86152 6.09375 2.96921 6.09375 4.32304V5.38457H4.9375C3.6875 5.38457 3.54688 5.4615 3.375 6.26149L3.26562 6.73841L1.89062 6.79995C1.03125 6.83072 0.421875 6.92302 0.265625 7.06148C0.03125 7.2461 0 7.69225 0 10.6922C0 13.6922 0.03125 14.1384 0.265625 14.323C0.421875 14.4614 1.03125 14.5537 1.875 14.5845L3.25 14.646L3.34375 15.123C3.53125 16.0306 3.25 15.9999 10 15.9999C16.75 15.9999 16.4688 16.0306 16.6562 15.123L16.75 14.646L18.125 14.5845C18.9688 14.5537 19.5781 14.4614 19.7344 14.323C19.9688 14.1384 20 13.6922 20 10.6922C20 7.69225 19.9688 7.2461 19.7344 7.06148C19.5781 6.92302 18.9688 6.83072 18.1094 6.79995L16.7344 6.73841L16.625 6.26149C16.4531 5.4615 16.3125 5.38457 15.0625 5.38457H13.9062V4.32304C13.9062 2.96921 13.7812 2.86152 12.0781 2.78459L10.7812 2.73844V2.13844V1.53845H12.0312C13.1875 1.53845 13.2969 1.50768 13.5312 1.15384C13.7656 0.799994 13.7656 0.738456 13.5312 0.384612L13.2812 0H10H6.71875L6.46875 0.384612ZM12.3438 4.92304V5.38457H10H7.65625V4.92304V4.4615H10H12.3438V4.92304ZM15 10.6922V14.4614H10H5V10.6922V6.92302H10H15V10.6922ZM3.28125 10.6922V12.923H2.42188H1.5625V10.6922V8.46147H2.42188H3.28125V10.6922ZM18.4375 10.6922V12.923H17.5781H16.7188V10.6922V8.46147H17.5781H18.4375V10.6922Z" fill="#76828B"/>
</svg>
