<svg width="20" height="20" viewBox="0 0 20 20" fill="none" xmlns="http://www.w3.org/2000/svg">
<path d="M5.44702 5.43776C-0.834228 11.719 -0.568603 11.2815 0.822022 12.7503L1.63452 13.6096L0.978272 14.2659C0.556397 14.6878 0.322022 15.0784 0.322022 15.3284C0.322022 15.8753 4.15015 19.6878 4.69702 19.6878C4.9314 19.6878 5.32202 19.4378 5.7439 19.0315L6.40015 18.3753L7.25952 19.1878C8.72827 20.5784 8.3064 20.8284 14.4939 14.6409C20.7908 8.37526 20.572 8.70338 19.2126 7.26588L18.3845 6.39088L19.0408 5.73463C19.4626 5.31276 19.697 4.92213 19.697 4.67213C19.697 4.12526 15.8689 0.312759 15.322 0.312759C15.0876 0.312759 14.697 0.562759 14.2751 0.969009L13.6189 1.62526L12.7595 0.812759C11.2908 -0.577866 11.7283 -0.843491 5.44702 5.43776ZM15.197 4.79713C17.1658 6.75026 18.7595 8.42213 18.7595 8.50026C18.7595 8.57838 18.6033 8.81276 18.4158 9.01588L18.072 9.39088L14.3533 5.67213L10.6501 1.96901L10.9783 1.60963C11.1658 1.40651 11.3845 1.25026 11.4783 1.25026C11.572 1.25026 13.2439 2.84401 15.197 4.79713ZM16.8845 3.20338L18.3689 4.68776L17.9314 5.10963L17.5095 5.54713L15.9939 4.03151L14.4783 2.51588L14.8533 2.10963C15.0564 1.89088 15.2595 1.71901 15.3064 1.71901C15.3689 1.71901 16.072 2.39088 16.8845 3.20338ZM10.2908 3.17213L10.6189 3.53151L7.07202 7.07838L3.50952 10.6409L3.13452 10.2346L2.75952 9.82838L6.25952 6.32838C8.19702 4.39088 9.8064 2.81276 9.8689 2.81276C9.91577 2.81276 10.1033 2.96901 10.2908 3.17213ZM12.197 5.21901C12.197 5.42213 5.46265 12.1878 5.25952 12.1878C5.1814 12.1878 4.94702 12.0315 4.7439 11.844L4.3689 11.5003L7.9314 7.93776L11.4783 4.39088L11.8376 4.71901C12.0408 4.90651 12.197 5.12526 12.197 5.21901ZM13.6033 6.48463L13.9783 6.89088L10.4314 10.4378L6.88452 13.9846L6.46265 13.5471L6.02515 13.1253L9.54077 9.60963C11.4783 7.67213 13.0876 6.09401 13.1501 6.09401C13.197 6.09401 13.4001 6.26588 13.6033 6.48463ZM15.2751 8.15651L15.6501 8.50026L12.0876 12.0628L8.54077 15.6096L8.1814 15.2815C7.97827 15.094 7.82202 14.8753 7.82202 14.7815C7.82202 14.5784 14.5564 7.81276 14.7595 7.81276C14.8376 7.81276 15.072 7.96901 15.2751 8.15651ZM13.7283 13.7034L10.1814 17.2503L9.77515 16.8753L9.3689 16.5003L12.9314 12.9378L16.4939 9.37526L16.8845 9.76588L17.2751 10.1565L13.7283 13.7034ZM9.04077 18.3909C8.85327 18.594 8.63452 18.7503 8.54077 18.7503C8.33765 18.7503 1.25952 11.7034 1.25952 11.5003C1.25952 11.4221 1.41577 11.1878 1.60327 10.9846L1.94702 10.6096L5.66577 14.3284L9.3689 18.0315L9.04077 18.3909ZM4.07202 16.0159L5.5564 17.5003L5.1189 17.9221L4.69702 18.3596L3.1814 16.844L1.66577 15.3284L2.04077 14.9221C2.2439 14.7034 2.44702 14.5315 2.4939 14.5315C2.5564 14.5315 3.25952 15.2034 4.07202 16.0159Z" fill="#76828B"/>
</svg>
