<svg width="18" height="20" viewBox="0 0 18 20" fill="none" xmlns="http://www.w3.org/2000/svg">
<path d="M14.525 4.16667H10.7V1.66667C10.7 1.22464 10.5209 0.800716 10.2021 0.488155C9.88327 0.175595 9.45087 0 9 0L6.45 0C5.99913 0 5.56673 0.175595 5.24792 0.488155C4.92911 0.800716 4.75 1.22464 4.75 1.66667V4.40833C3.52182 4.76732 2.4447 5.50551 1.67893 6.51302C0.913159 7.52053 0.499671 8.74353 0.5 10V20H17.5V7.08333C17.5 6.30978 17.1866 5.56792 16.6286 5.02094C16.0707 4.47396 15.314 4.16667 14.525 4.16667ZM6.45 1.66667H9V4.16667H6.45V1.66667ZM2.71 8.01667C3.07474 7.356 3.61488 6.8043 4.27325 6.41995C4.93163 6.03561 5.68374 5.83292 6.45 5.83333H11.55V9.81667H2.251C2.26406 9.19047 2.42095 8.57522 2.71 8.01667ZM15.8 18.3333H2.2V11.4833H11.55V12.0833C11.55 12.8569 11.8634 13.5987 12.4214 14.1457C12.9793 14.6927 13.736 15 14.525 15H15.8V18.3333ZM15.8 13.3333H14.525C14.1868 13.3333 13.8625 13.2016 13.6234 12.9672C13.3843 12.7328 13.25 12.4149 13.25 12.0833V5.83333H14.525C14.8632 5.83333 15.1875 5.96503 15.4266 6.19945C15.6657 6.43387 15.8 6.75181 15.8 7.08333V13.3333Z" fill="#5B6871"/>
</svg>
