<svg width="20" height="20" viewBox="0 0 20 20" fill="none" xmlns="http://www.w3.org/2000/svg">
<g clip-path="url(#clip0_15_585)">
<path d="M10 0C4.48583 0 0 4.48583 0 10C0 15.5142 4.48583 20 10 20C15.5142 20 20 15.5142 20 10C20 4.48583 15.5142 0 10 0ZM10 18.3333C5.405 18.3333 1.66667 14.595 1.66667 10C1.66667 5.405 5.405 1.66667 10 1.66667C14.595 1.66667 18.3333 5.405 18.3333 10C18.3333 14.595 14.595 18.3333 10 18.3333ZM8.33333 8.33333C8.33333 8.64833 8.55917 8.915 8.87 8.96667L11.4042 9.38917C12.5225 9.575 13.3333 10.5333 13.3333 11.6667C13.3333 13.045 12.2117 14.1667 10.8333 14.1667V15.8333H9.16667V14.1667C7.78833 14.1667 6.66667 13.045 6.66667 11.6667H8.33333C8.33333 12.1267 8.70667 12.5 9.16667 12.5H10.8333C11.2933 12.5 11.6667 12.1267 11.6667 11.6667C11.6667 11.3517 11.4408 11.085 11.13 11.0333L8.59583 10.6108C7.4775 10.425 6.66667 9.46667 6.66667 8.33333C6.66667 6.955 7.78833 5.83333 9.16667 5.83333V4.16667H10.8333V5.83333C12.2117 5.83333 13.3333 6.955 13.3333 8.33333H11.6667C11.6667 7.87417 11.2933 7.5 10.8333 7.5H9.16667C8.70667 7.5 8.33333 7.87417 8.33333 8.33333Z" fill="#307714"/>
</g>
<defs>
<clipPath id="clip0_15_585">
<rect width="20" height="20" fill="white"/>
</clipPath>
</defs>
</svg>
