<svg width="20" height="20" viewBox="0 0 20 20" fill="none" xmlns="http://www.w3.org/2000/svg">
<g clip-path="url(#clip0_151_11426)">
<path d="M19.0008 6.40113L18.2766 5.83451H18.2941V1.66819H16.6275V4.54379L11.5008 0.532456C10.5941 -0.177485 9.32663 -0.177485 8.41996 0.532456L0.919128 6.40113C0.309961 6.87776 -0.0400391 7.59603 -0.0400391 8.37014V20H7.45996V12.5006C7.45996 12.0415 7.83329 11.6674 8.29329 11.6674H11.6266C12.0866 11.6674 12.46 12.0415 12.46 12.5006V20H19.96V8.37014C19.96 7.59603 19.61 6.87776 19.0008 6.40113ZM18.2933 18.3335H14.1266V12.5006C14.1266 11.1224 13.005 10.0008 11.6266 10.0008H8.29329C6.91496 10.0008 5.79329 11.1224 5.79329 12.5006V18.3335H1.62663V8.37014C1.62663 8.11182 1.74329 7.87268 1.94663 7.71352L9.44663 1.84485C9.74913 1.6082 10.1708 1.6082 10.4733 1.84485L17.9733 7.71352C18.1766 7.87268 18.2933 8.11182 18.2933 8.37014V18.3335Z" fill="#307714"/>
</g>
<defs>
<clipPath id="clip0_151_11426">
<rect width="20" height="20" fill="white"/>
</clipPath>
</defs>
</svg>
