<svg width="20" height="20" viewBox="0 0 20 20" fill="none" xmlns="http://www.w3.org/2000/svg">
<g clip-path="url(#clip0_9347_36226)">
<path d="M16.2058 7.20045C15.9993 6.78436 15.6804 6.4344 15.2853 6.19021C14.8901 5.94602 14.4345 5.81735 13.97 5.81878H6.02999C5.56545 5.81726 5.10978 5.94588 4.71461 6.19008C4.31944 6.43429 4.00058 6.7843 3.79415 7.20045L1.88915 11.0104C1.19611 12.4005 0.834703 13.9322 0.83332 15.4854V18.3188H2.49999V19.9854H6.66665V18.3188H13.3333V19.9854H17.5V18.3188H19.1667V15.4854C19.1649 13.9331 18.8035 12.4022 18.1108 11.0129L16.2058 7.20045ZM5.28915 7.95045C5.35695 7.81154 5.46227 7.69437 5.59319 7.61219C5.72411 7.53002 5.87541 7.48611 6.02999 7.48545H13.97C14.1248 7.48486 14.2768 7.52773 14.4085 7.6092C14.5402 7.69066 14.6464 7.80745 14.715 7.94628L16.5683 11.6521H3.43165L5.28915 7.95045ZM17.5 16.6521H2.49999V15.4854C2.50028 14.7537 2.59695 14.0252 2.78749 13.3188H4.16665V14.1521C4.16665 14.3731 4.25445 14.5851 4.41073 14.7414C4.56701 14.8977 4.77897 14.9854 4.99999 14.9854C5.221 14.9854 5.43296 14.8977 5.58924 14.7414C5.74552 14.5851 5.83332 14.3731 5.83332 14.1521V13.3188H14.1667V14.1521C14.1667 14.3731 14.2545 14.5851 14.4107 14.7414C14.567 14.8977 14.779 14.9854 15 14.9854C15.221 14.9854 15.433 14.8977 15.5892 14.7414C15.7455 14.5851 15.8333 14.3731 15.8333 14.1521V13.3188H17.2125C17.403 14.0252 17.4997 14.7537 17.5 15.4854V16.6521ZM17.5 3.31878H19.8467C19.669 3.79952 19.3484 4.21429 18.9278 4.50724C18.5073 4.80018 18.0071 4.95722 17.4946 4.95722C16.9821 4.95722 16.4819 4.80018 16.0613 4.50724C15.6408 4.21429 15.3201 3.79952 15.1425 3.31878H4.85749C4.67986 3.79952 4.35919 4.21429 3.93865 4.50724C3.51811 4.80018 3.01791 4.95722 2.5054 4.95722C1.99289 4.95722 1.49269 4.80018 1.07216 4.50724C0.65162 4.21429 0.330947 3.79952 0.15332 3.31878H2.49999V1.65211H0.15332C0.330947 1.17137 0.65162 0.756601 1.07216 0.463659C1.49269 0.170717 1.99289 0.0136719 2.5054 0.0136719C3.01791 0.0136719 3.51811 0.170717 3.93865 0.463659C4.35919 0.756601 4.67986 1.17137 4.85749 1.65211H15.1425C15.3201 1.17137 15.6408 0.756601 16.0613 0.463659C16.4819 0.170717 16.9821 0.0136719 17.4946 0.0136719C18.0071 0.0136719 18.5073 0.170717 18.9278 0.463659C19.3484 0.756601 19.669 1.17137 19.8467 1.65211H17.5V3.31878Z" fill="#76828B"/>
</g>
<defs>
<clipPath id="clip0_9347_36226">
<rect width="20" height="20" fill="white"/>
</clipPath>
</defs>
</svg>
