<svg width="20" height="20" viewBox="0 0 20 20" fill="none" xmlns="http://www.w3.org/2000/svg">
<g clip-path="url(#clip0_247_10741)">
<path fill-rule="evenodd" clip-rule="evenodd" d="M6.7669 6.60082V3.40321L2.23922 0.794586L-0.131836 3.16285L2.47978 7.68666H5.68014L7.74801 9.75276L8.85266 8.68479L6.7669 6.60082ZM3.36826 6.15082H5.22975L5.23052 4.29092L2.49285 2.71285L1.7896 3.41626L3.36826 6.15082Z" fill="#485159"/>
<path fill-rule="evenodd" clip-rule="evenodd" d="M8.85266 13.0439L14.3435 18.5304C14.7793 18.9651 15.358 19.2054 15.9744 19.2054C16.5908 19.2054 17.1696 18.9658 17.6046 18.5304C18.5038 17.632 18.5038 16.1714 17.6046 15.2729L13.4922 11.1635L11.1356 10.8101L9.44181 12.4302L8.85266 13.0439ZM15.4311 17.4446C15.7216 17.7356 16.2281 17.7356 16.5178 17.4446C16.8176 17.1451 16.8168 16.6583 16.5171 16.3588L11.6965 11.5424L10.6044 12.6228L15.4311 17.4446Z" fill="#485159"/>
<path d="M19.4702 3.76093L18.9753 2.80796L15.18 6.59626C14.8833 6.89401 14.3656 6.8948 14.0673 6.59626C13.9194 6.44856 13.8375 6.25216 13.8375 6.04161C13.8375 5.83106 13.9194 5.63465 14.0681 5.48617L17.8594 1.70101L16.8915 1.21157C16.0558 0.788115 15.1603 0.573639 14.231 0.573639C10.9763 0.573639 8.32919 3.21649 8.32919 6.46585C8.32919 7.21926 8.46926 7.94754 8.74704 8.63968L1.96863 15.4047C1.04952 16.3239 1.04952 17.8182 1.96863 18.7374C2.42897 19.1969 3.03331 19.4263 3.63766 19.4263C4.242 19.4263 4.84713 19.1969 5.30747 18.7374L12.0993 11.9566C12.7799 12.2229 13.4944 12.3573 14.2302 12.3573C17.4849 12.3573 20.132 9.71442 20.132 6.46506C20.132 5.51602 19.9093 4.60627 19.4702 3.76093ZM14.2302 10.786C13.5503 10.786 12.8948 10.6289 12.281 10.3186L11.7719 10.0609L4.19479 17.6265C3.88789 17.9337 3.38899 17.9337 3.0821 17.6265C2.77521 17.3201 2.77521 16.822 3.0821 16.5156L10.6529 8.95707L10.3877 8.4472C10.0659 7.82734 9.90222 7.16034 9.90222 6.46585C9.90222 4.08382 11.8435 2.14489 14.2302 2.14489C14.5253 2.14489 14.8157 2.17475 15.0997 2.23288L12.9546 4.37529C12.5085 4.81996 12.2629 5.41232 12.2629 6.04161C12.2629 6.6709 12.5085 7.26405 12.9538 7.70792C13.8462 8.59804 15.4011 8.59804 16.2927 7.70792L18.459 5.54509C18.5251 5.8452 18.5582 6.15238 18.5582 6.46585C18.5582 8.84787 16.6169 10.7868 14.2302 10.7868V10.786Z" fill="#485159"/>
</g>
<defs>
<clipPath id="clip0_247_10741">
<rect width="20" height="20" fill="white"/>
</clipPath>
</defs>
</svg>
