<svg width="80" height="66" viewBox="0 0 80 66" fill="none" xmlns="http://www.w3.org/2000/svg">
<g clip-path="url(#clip0_3938_18881)">
<path d="M75.7781 62.5971L76.3304 62.6523L76.6433 59.707L77.1772 59.0074C77.1772 59.0074 78.3001 58.9154 79.0088 58.2711C79.9385 57.4243 79.9201 56.3106 79.6807 56.2093C79.1929 56.0161 78.2725 56.4855 77.9411 56.8076C77.2508 57.4979 77.122 58.0778 77.0391 58.4092C77.0023 58.584 76.5789 58.8694 76.5789 58.8694L76.6801 56.9089L77.2876 54.9207C77.2876 54.9207 77.8951 54.9392 78.1896 53.6322C78.3001 53.1443 78.2265 51.8465 77.7571 51.6901C77.3889 51.5704 76.7446 52.3528 76.5605 52.7025C76.1555 53.4665 76.2199 54.0924 76.3948 54.5158C76.4408 54.6354 76.7906 54.8655 76.7906 54.8655L76.266 56.5499C76.266 56.5499 75.953 55.6111 75.3271 55.2245C75.0602 55.0588 74.3055 54.7827 74.0846 54.9944C73.7164 55.3625 74.0201 56.688 74.3699 57.0285C74.9313 57.59 76.1187 57.8385 76.1187 57.8385L75.9898 60.4709C75.9898 60.4709 75.3639 59.4953 74.7289 59.0258C74.3423 58.7405 73.4126 58.5748 73.1917 58.8878C72.7591 59.5137 73.5231 60.1396 73.8636 60.3697C74.2318 60.6274 75.548 60.9587 75.548 60.9587C75.548 60.9587 75.9162 61.0508 75.7781 62.5879V62.5971Z" fill="#2C6957"/>
<path d="M78.5821 63.1699C78.5858 63.5922 74.5418 64.0325 67.3398 64.394C60.1379 64.7554 50.3678 65.0085 40.179 65.0974C29.9902 65.1863 20.2172 65.1038 13.01 64.8681C5.80277 64.6324 1.75174 64.2627 1.74805 63.8404C1.74437 63.4181 5.78834 62.9778 12.9903 62.6163C20.1923 62.2548 29.9624 62.0018 40.1512 61.9128C50.34 61.8239 60.113 61.9064 67.3202 62.1422C74.5274 62.3779 78.5784 62.7476 78.5821 63.1699Z" fill="#DFE1E1"/>
<path d="M50.1794 58.6419C50.1794 58.6419 50.8421 54.5736 50.115 51.0576C49.9217 50.1188 49.1761 48.2043 48.5042 47.514C47.8323 46.8237 45.7614 46.5199 44.7397 47.4588C44.1967 47.9558 43.9481 48.0939 43.3683 49.0695C43.129 49.4745 42.8528 50.0359 42.4386 50.8183C41.7023 52.1897 41.0488 56.8747 41.0488 56.8747L39.1711 58.8996L6.49609 58.5223C6.49609 58.5223 7.20482 63.0599 10.4815 63.511C11.3375 63.6306 13.0679 63.557 13.9331 63.511C16.1605 63.3821 17.4583 59.8753 17.4583 59.8753L37.8181 60.0962C37.8181 60.0962 38.3888 63.1336 40.3953 64.0724C41.4998 64.5878 44.0494 64.6155 45.3104 64.3761C48.311 63.7963 48.8816 58.826 48.8816 58.826L50.1794 58.6511V58.6419Z" fill="#233134"/>
<path d="M71.2016 55.3833L71.7906 55.2269C71.7906 55.2269 72.2325 53.699 72.0023 50.7076C72.0392 49.8056 71.5145 47.9371 70.8242 47.2008C70.6033 46.9707 70.1523 46.6945 69.6092 46.6393C69.0386 46.5749 68.3759 46.7314 67.796 47.3849C66.848 48.4526 65.9368 51.582 65.9368 51.582L64.9611 55.7423L63.6541 57.2058L62.3379 57.4267C62.3379 57.4267 63.0926 61.3845 64.6205 62.4154C65.2037 62.8088 67.8455 62.8309 68.486 62.5265C69.3323 62.1244 70.1576 61.2414 70.6539 59.5827C71.3362 57.3019 71.2016 55.3833 71.2016 55.3833Z" fill="#233134"/>
<path d="M6.50683 58.5505C14.6342 58.6886 39.007 58.9463 39.007 58.9463C39.007 58.9463 40.4429 58.753 41.0872 56.8845C41.6118 55.3658 41.7591 52.9267 42.6611 50.6533C43.1397 49.4291 44.0141 47.2845 46.4256 46.9716C48.1652 46.7507 48.8371 48.2049 49.2973 48.9413C51.2118 52.0063 50.1441 58.6701 50.1441 58.6701L62.5146 57.4368C62.5146 57.4368 64.1438 57.7773 65.0458 55.642C65.7453 53.9852 65.8926 51.003 67.0707 48.7204C67.4389 48.0116 68.2213 46.6126 69.4914 46.6402C70.4671 46.6586 71.4335 47.7631 71.8845 49.8433C72.1699 51.1687 71.7925 55.237 71.7925 55.237C71.7925 55.237 72.492 55.1081 73.1455 52.7978C73.6978 50.8189 72.6945 44.6061 72.6945 44.6061L71.6636 40.4274C71.6636 40.4274 69.9885 38.5681 69.5467 37.8594C68.1752 35.6504 66.2055 30.4592 64.0333 29.0325C60.324 26.5842 55.7679 26.4461 52.39 26.0503C47.3092 25.4521 36.9729 25.5901 31.9197 26.3909C30.5299 26.6118 28.1276 26.7314 26.388 28.0384C24.9429 29.1338 23.4518 30.2659 21.3164 33.2112C19.6045 35.5675 16.7696 37.3071 12.3331 40.6206C10.4923 41.9921 7.74019 42.9033 6.81977 43.8421C5.84412 44.8362 5.21823 45.9315 4.44508 48.6007C4.0677 49.9077 3.80078 52.6414 3.80078 54.0036C3.80078 55.3658 4.08611 56.3783 4.08611 56.3783C4.08611 56.3783 4.02168 57.8786 4.77643 58.302C5.12619 58.5045 5.70606 58.5505 6.51603 58.5597L6.50683 58.5505Z" fill="#2E6F5B"/>
<path d="M9.95501 48.1028C9.42116 49.4835 8.04053 50.3026 6.94522 49.7964C5.76708 49.2441 5.31607 47.8727 5.85912 46.4921C6.40217 45.1114 7.84724 44.2278 8.95175 44.7065C10.1299 45.2127 10.5717 46.5105 9.95501 48.1028Z" fill="white"/>
<path d="M36.0846 50.0357C34.5383 50.947 32.4029 50.8733 31.4732 49.0877C30.7369 47.6887 31.4272 46.0043 32.9827 45.1023C34.5383 44.2003 36.5264 44.4396 37.3732 45.6361C38.2568 46.8971 37.8702 48.9957 36.0938 50.0357H36.0846Z" fill="white"/>
<path d="M27.9835 56.847L10.7348 56.6906C10.7348 56.6906 9.59346 56.0923 10.2101 55.0522L10.9649 53.8741C11.2226 53.5151 11.8025 53.2206 12.2351 53.2021L19.2947 53.2574L25.3879 53.4415C26.8422 53.5887 27.8731 54.8405 28.2412 55.6413C28.4345 56.0647 28.232 56.6721 27.9835 56.8562V56.847Z" fill="#253336"/>
<path d="M71.0979 55.9815C71.0979 58.6415 69.9842 62.0471 68.6128 62.0471C67.2414 62.0471 66.5234 59.2122 66.5234 55.8618C66.5234 52.5115 67.6279 48.3604 68.9994 48.3604C70.7574 48.3604 71.0979 52.6219 71.0979 55.9723V55.9815Z" fill="#304246"/>
<path d="M48.9806 57.1875C48.9806 61.0257 47.1305 64.1459 45.4554 64.1459C43.7802 64.1459 42.418 61.0349 42.418 57.1967C42.418 53.3586 43.4673 48.8945 46.0168 48.8945C48.5664 48.8945 48.9806 53.3402 48.9806 57.1783V57.1875Z" fill="#334249"/>
<path d="M47.7469 56.5248C47.7469 59.1204 46.6792 61.4491 45.6023 61.4491C44.5254 61.4491 43.8535 59.1204 43.8535 56.5248C43.8535 53.9292 44.7279 51.5361 45.8048 51.5361C46.8817 51.5361 47.7469 53.9292 47.7469 56.5248Z" fill="#818E96"/>
<path d="M70.1497 55.4483C70.1497 57.7034 69.5054 59.6823 68.8151 59.6823C68.1248 59.6823 67.4805 57.8138 67.4805 55.5588C67.4805 53.3037 67.8671 50.7266 68.8059 50.7266C69.7999 50.7266 70.1589 53.1933 70.1589 55.4483H70.1497Z" fill="#7F8C95"/>
<path d="M50.1849 40.3715C53.8114 40.0033 64.7092 38.8344 64.7092 38.8344C64.7092 38.8344 66.0438 38.7331 66.5132 38.1717C66.8906 37.7207 66.7525 36.9751 66.6053 36.6161C65.8965 34.895 64.1477 31.5446 62.8591 30.21C62.5002 29.8326 61.6442 29.1791 61.1564 29.0134C59.6653 28.498 56.453 28.001 54.8975 28.2679C54.0507 28.406 52.8541 28.6913 52.2559 29.8786C51.0961 32.2073 49.6327 36.5425 49.0896 38.8528C49.016 39.1657 48.9515 39.9205 49.1816 40.1506C49.4578 40.4175 49.8075 40.4083 50.1849 40.3715Z" fill="#233235"/>
<path d="M57.2356 29.3268C57.2356 29.3268 58.0087 32.5943 58.2112 33.6988C58.4229 34.8401 58.8647 38.3101 58.8647 38.3101L57.4289 38.393L51.575 36.9203C51.575 36.9203 51.3633 36.3588 51.3633 36.184C51.3725 34.7113 52.4402 31.7475 53.1673 30.5602C53.3974 30.1828 53.8852 29.787 54.6308 29.5293C55.5328 29.2071 57.2356 29.336 57.2356 29.336V29.3268Z" fill="#44555C"/>
<path d="M52.2379 39.3776C53.3884 39.4512 55.3029 39.3868 56.2694 39.3776C56.8492 39.3316 57.2174 38.7701 57.3923 38.448C57.6132 38.0522 57.5856 37.0489 57.3923 36.6347C57.1714 36.1561 56.5547 35.8156 56.1957 35.6775C55.441 35.3922 53.7658 35.5763 52.9742 35.7511C52.5877 35.834 51.8789 36.1009 51.6212 36.5703C51.3635 37.0397 51.1426 38.1442 51.3543 38.6044C51.474 38.8714 51.8053 39.35 52.2287 39.3776H52.2379Z" fill="#2D6D55"/>
<path d="M58.7188 29.5566L60.532 38.1718C60.532 38.1718 63.597 37.8497 64.858 37.7392C65.3458 37.6932 65.6219 37.0673 65.5207 36.8004C64.904 35.1528 63.2933 31.7749 61.9126 30.6427C60.9922 29.888 58.728 29.5566 58.728 29.5566H58.7188Z" fill="#44555C"/>
<path d="M21.3033 33.165C22.6563 31.5174 24.5616 28.9679 26.3748 27.9922C35.4594 27.2375 43.0437 27.486 49.6063 27.8265C50.9501 27.9002 50.8028 28.8574 50.6648 29.29C49.864 31.6923 48.7687 35.0427 47.204 38.3746C46.4216 39.4055 44.8109 39.4055 44.8109 39.4055L41.5342 40.9426L38.4416 38.1629C38.4416 38.1629 18.4776 36.6074 21.3033 33.1558V33.165Z" fill="#243235"/>
<path d="M38.3399 38.1811C38.3399 38.1811 43.0433 37.997 44.8657 37.9049C45.4732 37.8773 46.0623 37.638 46.3844 37.0121C47.3601 35.1161 48.8788 31.7841 49.5323 29.7868C49.6519 29.4186 49.7624 28.7467 48.7499 28.7467C43.752 28.7375 32.937 28.1853 27.7274 28.9768C26.8438 29.1149 26.3744 29.4923 26.0062 29.796C25.3896 30.3114 23.8248 32.3364 23.2266 33.1279C23.6776 33.3672 30.1297 34.6374 31.1422 34.8491L38.3399 38.1811Z" fill="#43545B"/>
<path d="M5.68359 35.944C7.25752 35.6495 8.46327 35.3366 12.2278 34.95C14.8694 34.6278 17.4282 34.4806 17.4282 34.4806C23.6871 34.4253 29.4673 33.735 33.6093 36.4043C34.5665 36.8921 36.4258 38.3095 37.9076 39.5429C39.2054 40.6198 40.2179 41.577 40.2179 41.577L35.3857 43.648C35.0451 43.7492 33.6369 44.0346 33.149 44.145C33.0662 44.1634 32.9834 44.1818 32.9097 44.2187L30.6087 45.0562L11.8965 44.8998L10.6171 43.9885C10.2305 43.74 9.78868 43.602 9.33768 43.5744C8.61975 43.5375 7.55206 43.6112 6.80651 43.8045C9.06155 41.6691 11.8596 40.6934 12.2186 40.5738C12.2278 40.5738 12.237 40.5554 12.2278 40.5462C12.2278 40.5462 12.2278 40.5462 12.2278 40.537C11.694 40.132 9.14439 37.7297 5.68359 35.9532V35.944Z" fill="#253336"/>
<path d="M17.2332 43.0869L25.7563 43.1329C25.9772 43.1329 26.3546 43.3722 26.4374 43.5747L26.7874 45.0247L15.6895 44.9319L16.3956 43.5195C16.5337 43.2342 16.9571 43.0961 17.2332 43.0961V43.0869Z" fill="#2D4549"/>
<path d="M40.2162 41.5772C40.2162 41.5772 34.6844 36.34 31.3341 35.3091C29.7049 34.8029 26.824 34.3611 24.5782 34.3611C22.2035 34.3611 15.0886 34.6556 15.0886 34.6556C15.0886 34.6556 11.0479 35.0974 9.70412 35.2815C8.76529 35.4104 7.34784 35.6589 5.9672 35.9258C5.81073 35.9534 5.21245 35.9902 5.0928 35.889C4.79826 35.6497 4.84429 34.987 5.07439 34.9502C8.14861 34.1218 11.2965 33.8641 11.2965 33.8641C11.2965 33.8641 15.8986 33.3302 17.4265 33.2474C18.8531 33.1645 21.9734 33.1737 23.4829 33.1921C25.563 33.2198 29.6957 33.3026 31.7575 33.9929C33.4971 34.5636 38.4398 38.1624 38.4398 38.1624L41.5324 40.9421L40.2162 41.5864V41.5772Z" fill="#34454C"/>
<path d="M6.48442 3.0664C9.00638 1.52009 12.2739 1.99871 14.2988 3.68309C16.3514 5.39507 16.5447 7.6225 16.5447 7.6225C16.5447 7.6225 18.6248 6.15903 21.3861 7.00582C22.6195 7.38319 23.7792 7.85261 25.0586 10.3838C25.6292 11.5159 25.8317 14.1943 23.5307 16.6242C23.052 17.1213 21.2296 18.1429 21.2296 18.1429C21.2296 18.1429 23.006 20.6005 21.3953 23.5458C20.9719 24.3098 20.5393 25.4879 17.4283 26.3071C17.4743 28.4793 16.3514 29.0039 15.3665 29.6482C16.8116 31.0657 16.9312 32.0874 17.235 33.0538C17.5479 34.0387 17.2902 35.8703 16.8392 36.6527C16.4158 37.3982 15.5322 38.6776 15.5138 39.4416C15.5046 39.957 16.1489 40.905 16.3053 41.3929C16.3974 41.6782 16.2777 42.0924 16.2777 42.0924C15.6702 41.7794 15.1364 41.3284 14.7222 40.7762C14.4093 40.3344 13.903 39.5428 13.9399 38.3739C13.9583 37.8308 14.1055 36.579 13.9399 36.2109C13.765 35.8243 12.6513 35.2076 12.2279 34.8486C11.9701 34.6277 11.5652 34.2688 11.3535 33.7901C11.2246 33.4864 10.9025 32.5384 10.9025 32.5384C10.9025 32.5384 8.77628 32.4555 8.02153 32.0782C5.37991 30.7435 5.01174 28.4241 5.26026 26.3715C5.44434 24.77 7.12872 23.5458 7.12872 23.5458C7.12872 23.5458 5.48116 23.3802 3.73235 21.5393C2.97761 20.7385 2.38854 19.4315 2.22286 17.8116C2.12161 16.7531 2.24127 15.262 3.21692 13.9642L4.01769 12.9149C4.01769 12.9149 3.00522 11.2029 3.02363 8.62576C3.03283 8.00908 3.14328 7.4016 3.32737 6.82173C3.77838 5.58836 4.80925 4.09728 6.47522 3.07561L6.48442 3.0664Z" fill="#6A7473"/>
<path d="M58.0411 42.2044L60.6634 41.975C60.7141 41.9705 60.7587 42.008 60.7632 42.0586L60.8538 43.0948C60.8582 43.1454 60.8208 43.19 60.7701 43.1945L58.1477 43.4239C58.0971 43.4283 58.0525 43.3909 58.048 43.3402L57.9574 42.3041C57.953 42.2535 57.9904 42.2088 58.0411 42.2044Z" fill="#263135"/>
<path d="M66.2193 41.6007L68.3892 41.3765C68.4397 41.3712 68.485 41.408 68.4902 41.4586L68.5829 42.3558C68.5881 42.4064 68.5514 42.4516 68.5008 42.4568L66.331 42.6811C66.2804 42.6863 66.2352 42.6495 66.2299 42.599L66.1372 41.7017C66.132 41.6512 66.1687 41.6059 66.2193 41.6007Z" fill="#263435"/>
<path d="M70.4531 40.3894C70.6924 41.3467 70.6924 41.7977 71.8798 43.5557C72.0363 43.7858 72.6898 44.3012 72.6898 44.3012C72.6898 44.3012 72.699 42.9206 72.5977 42.4788C72.4596 41.9173 71.8798 40.3986 71.6589 40.3802C71.2631 40.3342 70.8581 40.3342 70.4623 40.3802L70.4531 40.3894Z" fill="#EC513D"/>
<path d="M5.14007 52.9814L8.00259 53.2576C8.11304 53.276 8.21428 53.3312 8.29712 53.4048C8.42598 53.5153 8.51802 53.6626 8.54564 53.8282C8.60086 54.4173 8.28792 54.8959 8.09463 55.2457C7.95656 55.4574 7.78168 55.6507 7.57919 55.8164C7.57919 55.8164 7.44113 55.9728 7.04535 56.0096L5.67391 55.9636C4.9928 55.8992 4.66145 55.3653 4.50498 54.7303C4.50498 54.7303 4.39452 53.6902 4.43134 53.5337C4.47736 53.3496 4.67986 53.1011 4.86394 53.0459C4.95598 53.0183 5.04802 52.9999 5.14007 52.9999V52.9814Z" fill="#253336"/>
<path d="M31.0863 53.4043L35.8173 53.3398C35.8909 53.3398 35.9554 53.3398 36.0198 53.3675L36.7285 53.5423C37.0507 53.6712 37.2716 53.9289 37.2347 54.3247L37.1795 55.2359C37.1795 55.3648 37.1335 55.4936 37.0691 55.6041C36.977 55.779 36.8666 55.9354 36.7285 56.0827L36.3419 56.3312L32.559 56.276C32.1448 56.184 31.9607 55.9446 31.2704 55.3556L30.5433 54.6192C30.3776 54.4259 30.442 54.1314 30.442 54.1314C30.488 53.8829 30.5525 53.4319 31.0863 53.4043Z" fill="#253336"/>
<path d="M27.4594 47.4956C27.4594 47.4956 28.2325 47.514 28.3153 47.7257C28.7295 48.7658 27.3397 49.9807 26.6494 50.3121C26.318 50.4686 25.6185 50.7723 25.2411 50.7907C22.0473 50.9472 16.5523 50.892 13.3769 50.7907C12.9351 50.7723 12.4933 50.5882 11.8306 49.9531C11.2139 49.3733 11.3059 48.1215 11.4072 47.9374C11.7293 47.3391 12.3092 47.4035 12.6405 47.3851C16.3406 47.2379 27.4594 47.5048 27.4594 47.5048V47.4956Z" fill="#253336"/>
<path d="M50.8488 40.2977C50.8488 40.2977 51.7416 44.366 51.8705 45.719C52.0914 48.0385 51.7232 55.0705 51.7232 55.0705L60.6513 54.2146C60.6513 54.2146 61.1668 48.7196 61.2864 46.842C61.4797 43.7954 60.3108 39.2945 60.3108 39.2945L60.8354 39.2393C60.8354 39.2393 62.124 43.7217 61.8755 46.842C61.7282 48.6736 61.2312 54.1593 61.2312 54.1593C61.2312 54.1593 62.8235 53.9384 63.836 53.782C63.928 53.7635 64.0385 53.8832 64.0477 53.9752C64.0569 54.0673 63.9556 54.3158 63.8544 54.3526C62.4001 54.8589 54.2912 55.5492 51.9717 55.7333C51.3734 55.7793 51.0513 55.5492 51.0605 55.0982C51.1157 52.567 51.4747 48.1305 51.2722 45.8203C51.1525 44.4673 50.1953 40.3622 50.1953 40.3622L50.8488 40.2977Z" fill="#27624E"/>
</g>
<defs>
<clipPath id="clip0_3938_18881">
<rect width="80" height="64.8551" fill="white" transform="translate(0 0.913086)"/>
</clipPath>
</defs>
</svg>
