<svg width="222" height="179" viewBox="0 0 222 179" fill="none" xmlns="http://www.w3.org/2000/svg">
<g clip-path="url(#clip0_955_13720)">
<path d="M209.838 170.249L211.363 170.402L212.228 162.272L213.703 160.342C213.703 160.342 216.805 160.088 218.763 158.309C221.331 155.972 221.28 152.898 220.619 152.619C219.271 152.086 216.729 153.381 215.813 154.27C213.906 156.176 213.55 157.776 213.321 158.691C213.22 159.173 212.05 159.961 212.05 159.961L212.33 154.55L214.008 149.063C214.008 149.063 215.686 149.113 216.5 145.506C216.805 144.16 216.601 140.578 215.305 140.146C214.288 139.816 212.508 141.975 211.999 142.94C210.88 145.049 211.058 146.776 211.541 147.945C211.669 148.275 212.635 148.91 212.635 148.91L211.185 153.559C211.185 153.559 210.321 150.968 208.592 149.901C207.855 149.444 205.77 148.681 205.159 149.266C204.142 150.282 204.981 153.94 205.948 154.88C207.499 156.43 210.779 157.116 210.779 157.116L210.423 164.381C210.423 164.381 208.694 161.688 206.939 160.393C205.871 159.605 203.303 159.148 202.693 160.012C201.498 161.739 203.608 163.466 204.549 164.102C205.566 164.813 209.202 165.727 209.202 165.727C209.202 165.727 210.219 165.981 209.838 170.224V170.249Z" fill="#2C6957"/>
<path d="M217.586 171.828C217.596 172.994 206.425 174.209 186.529 175.207C166.634 176.205 139.644 176.903 111.497 177.148C83.3508 177.394 56.353 177.166 36.4431 176.516C16.5332 175.865 5.34223 174.845 5.33204 173.679C5.32187 172.514 16.4933 171.298 36.3888 170.301C56.2843 169.303 83.2741 168.604 111.421 168.359C139.567 168.114 166.565 168.341 186.475 168.992C206.385 169.643 217.576 170.663 217.586 171.828Z" fill="#DFE1E1"/>
<path d="M139.122 159.332C139.122 159.332 140.953 148.104 138.944 138.4C138.41 135.809 136.351 130.525 134.495 128.619C132.639 126.714 126.918 125.876 124.095 128.467C122.595 129.839 121.909 130.22 120.307 132.913C119.646 134.03 118.883 135.58 117.739 137.739C115.704 141.524 113.899 154.455 113.899 154.455L108.712 160.044L18.4473 159.002C18.4473 159.002 20.4051 171.526 29.457 172.771C31.8217 173.101 36.6019 172.898 38.992 172.771C45.1453 172.415 48.7305 162.737 48.7305 162.737L104.974 163.346C104.974 163.346 106.551 171.729 112.094 174.321C115.145 175.743 122.188 175.819 125.672 175.159C133.961 173.559 135.537 159.841 135.537 159.841L139.122 159.358V159.332Z" fill="#233134"/>
<path d="M197.197 150.34L198.824 149.908C198.824 149.908 200.045 145.691 199.409 137.434C199.511 134.945 198.061 129.788 196.154 127.756C195.544 127.121 194.298 126.358 192.798 126.206C191.222 126.028 189.391 126.46 187.789 128.264C185.17 131.211 182.653 139.848 182.653 139.848L179.958 151.33L176.347 155.369L172.711 155.979C172.711 155.979 174.796 166.903 179.017 169.748C180.628 170.834 187.926 170.895 189.695 170.055C192.033 168.945 194.313 166.508 195.684 161.93C197.569 155.635 197.197 150.34 197.197 150.34Z" fill="#233134"/>
<path d="M18.4715 159.078C40.9233 159.459 108.253 160.171 108.253 160.171C108.253 160.171 112.22 159.637 114 154.48C115.449 150.289 115.856 143.557 118.348 137.282C119.67 133.903 122.085 127.984 128.747 127.121C133.553 126.511 135.409 130.525 136.68 132.557C141.969 141.016 139.02 159.409 139.02 159.409L173.193 156.005C173.193 156.005 177.694 156.945 180.185 151.051C182.118 146.478 182.525 138.247 185.779 131.947C186.796 129.991 188.958 126.13 192.467 126.206C195.162 126.257 197.832 129.305 199.077 135.047C199.866 138.705 198.823 149.933 198.823 149.933C198.823 149.933 200.756 149.577 202.561 143.201C204.087 137.739 201.315 120.592 201.315 120.592L198.467 109.059C198.467 109.059 193.84 103.927 192.619 101.971C188.831 95.874 183.389 81.5463 177.388 77.6088C167.142 70.8514 154.555 70.4703 145.224 69.3779C131.188 67.7267 102.634 68.1078 88.6747 70.3179C84.8353 70.9276 78.1989 71.2578 73.3932 74.8651C69.4012 77.8882 65.2821 81.0128 59.3831 89.142C54.6537 95.6454 46.8223 100.447 34.5666 109.592C29.4813 113.377 21.8787 115.892 19.3361 118.483C16.6408 121.227 14.9118 124.25 12.776 131.617C11.7335 135.224 10.9961 142.769 10.9961 146.529C10.9961 150.289 11.7843 153.083 11.7843 153.083C11.7843 153.083 11.6063 157.224 13.6913 158.392C14.6575 158.951 16.2594 159.078 18.497 159.104L18.4715 159.078Z" fill="#2E6F5B"/>
<path d="M27.9982 130.244C26.5234 134.055 22.7094 136.316 19.6837 134.919C16.429 133.394 15.1831 129.609 16.6833 125.799C18.1835 121.988 22.1755 119.549 25.2267 120.87C28.4813 122.268 29.7018 125.849 27.9982 130.244Z" fill="white"/>
<path d="M100.184 135.579C95.9123 138.094 90.0133 137.891 87.4452 132.963C85.4111 129.101 87.3181 124.452 91.6152 121.963C95.9123 119.473 101.405 120.134 103.744 123.436C106.185 126.916 105.117 132.708 100.209 135.579H100.184Z" fill="white"/>
<path d="M77.8071 154.378L30.1574 153.946C30.1574 153.946 27.0045 152.295 28.7081 149.424L30.7931 146.172C31.5051 145.182 33.1069 144.369 34.302 144.318L53.8043 144.47L70.6368 144.978C74.6542 145.385 77.502 148.84 78.519 151.05C79.053 152.218 78.4936 153.895 77.8071 154.403V154.378Z" fill="#253336"/>
<path d="M196.907 151.99C196.907 159.332 193.83 168.731 190.041 168.731C186.253 168.731 184.27 160.907 184.27 151.66C184.27 142.413 187.321 130.956 191.109 130.956C195.966 130.956 196.907 142.717 196.907 151.964V151.99Z" fill="#304246"/>
<path d="M135.807 155.318C135.807 165.911 130.696 174.523 126.069 174.523C121.441 174.523 117.678 165.937 117.678 155.343C117.678 144.75 120.576 132.429 127.62 132.429C134.663 132.429 135.807 144.699 135.807 155.293V155.318Z" fill="#334249"/>
<path d="M132.4 153.489C132.4 160.652 129.451 167.08 126.476 167.08C123.501 167.08 121.645 160.652 121.645 153.489C121.645 146.325 124.06 139.72 127.035 139.72C130.01 139.72 132.4 146.325 132.4 153.489Z" fill="#818E96"/>
<path d="M194.288 150.516C194.288 156.74 192.508 162.202 190.601 162.202C188.694 162.202 186.914 157.045 186.914 150.821C186.914 144.597 187.982 137.484 190.576 137.484C193.322 137.484 194.313 144.293 194.313 150.516H194.288Z" fill="#7F8C95"/>
<path d="M139.136 108.905C149.154 107.889 179.259 104.663 179.259 104.663C179.259 104.663 182.946 104.383 184.243 102.834C185.285 101.589 184.904 99.5311 184.497 98.5403C182.539 93.7898 177.708 84.5429 174.148 80.8594C173.157 79.8178 170.792 78.0142 169.444 77.5569C165.325 76.1343 156.451 74.7625 152.154 75.4992C149.815 75.8802 146.51 76.6678 144.857 79.9448C141.653 86.372 137.61 98.3371 136.11 104.713C135.907 105.577 135.729 107.66 136.364 108.295C137.127 109.032 138.093 109.007 139.136 108.905Z" fill="#233235"/>
<path d="M158.613 78.4208C158.613 78.4208 160.749 87.4391 161.308 90.4876C161.893 93.6376 163.113 103.215 163.113 103.215L159.147 103.443L142.975 99.3789C142.975 99.3789 142.391 97.8292 142.391 97.3466C142.416 93.282 145.366 85.102 147.374 81.8249C148.01 80.7834 149.358 79.691 151.417 78.9797C153.909 78.0906 158.613 78.4462 158.613 78.4462V78.4208Z" fill="#44555C"/>
<path d="M144.808 106.162C147.986 106.365 153.275 106.187 155.945 106.162C157.547 106.035 158.564 104.485 159.047 103.596C159.657 102.503 159.581 99.7345 159.047 98.5913C158.437 97.2703 156.733 96.3304 155.741 95.9493C153.656 95.1618 149.029 95.6699 146.842 96.1526C145.774 96.3812 143.816 97.1179 143.104 98.4135C142.392 99.7091 141.782 102.758 142.367 104.028C142.698 104.764 143.613 106.085 144.783 106.162H144.808Z" fill="#2D6D55"/>
<path d="M162.707 79.0557L167.716 102.834C167.716 102.834 176.183 101.944 179.667 101.64C181.014 101.513 181.777 99.7851 181.497 99.0484C179.794 94.5011 175.344 85.178 171.53 82.0533C168.987 79.9702 162.732 79.0557 162.732 79.0557H162.707Z" fill="#44555C"/>
<path d="M59.3467 89.0141C63.0844 84.4668 68.3477 77.43 73.3568 74.7372C98.453 72.6541 119.405 73.34 137.534 74.2799C141.246 74.4831 140.839 77.1251 140.458 78.3191C138.246 84.9495 135.22 94.1964 130.897 103.393C128.736 106.238 124.286 106.238 124.286 106.238L115.235 110.48L106.691 102.808C106.691 102.808 51.5407 98.515 59.3467 88.9887V89.0141Z" fill="#243235"/>
<path d="M106.413 102.859C106.413 102.859 119.406 102.351 124.44 102.097C126.118 102.021 127.746 101.36 128.636 99.6329C131.331 94.3997 135.526 85.2036 137.332 79.6909C137.662 78.6748 137.967 76.8203 135.17 76.8203C121.364 76.7949 91.4873 75.2707 77.0958 77.4554C74.6548 77.8365 73.358 78.878 72.341 79.7164C70.6374 81.139 66.3148 86.7278 64.6621 88.9125C65.908 89.573 83.7321 93.0787 86.5291 93.663L106.413 102.859Z" fill="#43545B"/>
<path d="M16.1992 96.6859C20.5472 95.873 23.8781 95.0093 34.2776 93.9423C41.5751 93.0532 48.6437 92.6467 48.6437 92.6467C65.9339 92.4943 81.9018 90.5891 93.3439 97.9561C95.9882 99.3025 101.124 103.215 105.218 106.619C108.803 109.591 111.6 112.233 111.6 112.233L98.2512 117.949C97.3104 118.228 93.4201 119.016 92.0725 119.321C91.8437 119.371 91.6148 119.422 91.4114 119.524L85.0548 121.836L33.3622 121.404L29.8279 118.889C28.76 118.203 27.5395 117.822 26.2936 117.746C24.3103 117.644 21.3608 117.847 19.3013 118.381C25.5308 112.487 33.2605 109.794 34.2522 109.464C34.2776 109.464 34.303 109.413 34.2776 109.388C34.2776 109.388 34.2776 109.388 34.2776 109.362C32.8029 108.245 25.7597 101.614 16.1992 96.7113V96.6859Z" fill="#253336"/>
<path d="M48.1084 116.399L71.6535 116.526C72.2637 116.526 73.3062 117.187 73.5351 117.746L74.5017 121.748L43.8438 121.492L45.7945 117.593C46.1759 116.806 47.3456 116.425 48.1084 116.425V116.399Z" fill="#2D4549"/>
<path d="M111.6 112.233C111.6 112.233 96.3181 97.7786 87.0628 94.9334C82.5623 93.5362 74.6037 92.3168 68.3996 92.3168C61.8395 92.3168 42.1847 93.1297 42.1847 93.1297C42.1847 93.1297 31.0223 94.3491 27.31 94.8572C24.7165 95.2128 20.8008 95.8987 16.9868 96.6354C16.5545 96.7116 14.9018 96.8133 14.5712 96.5338C13.7576 95.8733 13.8847 94.0443 14.5204 93.9427C23.0129 91.6563 31.7088 90.945 31.7088 90.945C31.7088 90.945 44.4222 89.4716 48.643 89.243C52.5842 89.0143 61.2038 89.0397 65.3738 89.0905C71.1203 89.1667 82.5368 89.3954 88.2324 91.3007C93.0381 92.8757 106.692 102.809 106.692 102.809L115.236 110.48L111.6 112.259V112.233Z" fill="#34454C"/>
<path d="M18.4107 5.94394C25.3776 1.67611 34.4041 2.99711 39.998 7.64598C45.6681 12.3711 46.2021 18.5188 46.2021 18.5188C46.2021 18.5188 51.9485 14.4796 59.5765 16.8167C62.9837 17.8583 66.1875 19.1539 69.7218 26.1399C71.2982 29.2645 71.8576 36.657 65.501 43.3636C64.1788 44.7354 59.1443 47.5552 59.1443 47.5552C59.1443 47.5552 64.0516 54.338 59.602 62.4672C58.4323 64.5757 57.2373 67.8273 48.6431 70.0883C48.7702 76.0835 45.6681 77.5315 42.9475 79.3098C46.9395 83.222 47.27 86.0418 48.1091 88.7092C48.9736 91.4274 48.2617 96.4827 47.0157 98.642C45.8461 100.7 43.4052 104.231 43.3543 106.339C43.3289 107.762 45.1087 110.379 45.541 111.725C45.7953 112.512 45.4647 113.656 45.4647 113.656C43.7866 112.792 42.3118 111.547 41.1676 110.023C40.3031 108.804 38.9046 106.619 39.0063 103.393C39.0572 101.894 39.464 98.4388 39.0063 97.4226C38.5232 96.3557 35.4466 94.6536 34.277 93.6629C33.565 93.0532 32.4462 92.0625 31.8614 90.7415C31.5055 89.9032 30.6155 87.2866 30.6155 87.2866C30.6155 87.2866 24.7419 87.0579 22.657 86.0164C15.3595 82.3329 14.3424 75.9311 15.029 70.2661C15.5375 65.8459 20.1906 62.4672 20.1906 62.4672C20.1906 62.4672 15.6392 62.0099 10.8081 56.9292C8.72312 54.719 7.09581 51.1117 6.63814 46.6407C6.35844 43.7192 6.68899 39.6038 9.38422 36.0219L11.5963 33.1259C11.5963 33.1259 8.79941 28.4008 8.85026 21.2878C8.87568 19.5857 9.18081 17.9091 9.68934 16.3086C10.9352 12.9045 13.783 8.78915 18.3853 5.96934L18.4107 5.94394Z" fill="#6A7473"/>
<path d="M160.84 113.964L168.084 113.331C168.224 113.319 168.347 113.422 168.359 113.562L168.61 116.422C168.622 116.561 168.519 116.685 168.379 116.697L161.134 117.33C160.994 117.342 160.871 117.239 160.859 117.099L160.608 114.24C160.596 114.1 160.7 113.977 160.84 113.964Z" fill="#263135"/>
<path d="M183.431 112.299L189.425 111.68C189.565 111.665 189.69 111.767 189.705 111.906L189.961 114.383C189.975 114.522 189.874 114.647 189.734 114.662L183.74 115.28C183.6 115.295 183.475 115.193 183.461 115.054L183.204 112.578C183.19 112.438 183.292 112.313 183.431 112.299Z" fill="#263435"/>
<path d="M195.125 108.956C195.786 111.598 195.786 112.843 199.066 117.695C199.498 118.33 201.304 119.753 201.304 119.753C201.304 119.753 201.329 115.942 201.049 114.723C200.668 113.173 199.066 108.982 198.456 108.931C197.363 108.804 196.244 108.804 195.15 108.931L195.125 108.956Z" fill="#EC513D"/>
<path d="M14.6974 143.708L22.6051 144.47C22.9102 144.521 23.1899 144.674 23.4187 144.877C23.7747 145.182 24.029 145.588 24.1052 146.045C24.2578 147.671 23.3933 148.992 22.8593 149.958C22.4779 150.542 21.9948 151.075 21.4354 151.533C21.4354 151.533 21.054 151.964 19.9607 152.066L16.1721 151.939C14.2905 151.761 13.3752 150.288 12.9429 148.535C12.9429 148.535 12.6378 145.664 12.7395 145.232C12.8666 144.724 13.426 144.038 13.9346 143.886C14.1888 143.81 14.4431 143.759 14.6974 143.759V143.708Z" fill="#253336"/>
<path d="M86.3764 144.877L99.4458 144.699C99.6492 144.699 99.8272 144.699 100.005 144.775L101.963 145.258C102.853 145.614 103.463 146.325 103.361 147.417L103.209 149.932C103.209 150.288 103.082 150.643 102.904 150.948C102.65 151.431 102.344 151.863 101.963 152.269L100.895 152.955L90.4447 152.803C89.3005 152.549 88.792 151.888 86.885 150.262L84.8763 148.23C84.4186 147.697 84.5966 146.884 84.5966 146.884C84.7237 146.198 84.9017 144.953 86.3764 144.877Z" fill="#253336"/>
<path d="M76.3588 128.568C76.3588 128.568 78.4947 128.619 78.7235 129.203C79.8677 132.074 76.0283 135.427 74.1213 136.341C73.2059 136.773 71.2735 137.612 70.231 137.662C61.4079 138.094 46.2282 137.942 37.456 137.662C36.2355 137.612 35.015 137.103 33.1843 135.351C31.4807 133.75 31.735 130.295 32.0146 129.787C32.9046 128.136 34.5065 128.314 35.4218 128.263C45.6434 127.856 76.3588 128.593 76.3588 128.593V128.568Z" fill="#253336"/>
<path d="M140.967 108.702C140.967 108.702 143.434 119.931 143.79 123.665C144.4 130.067 143.383 149.475 143.383 149.475L168.047 147.113C168.047 147.113 169.471 131.947 169.801 126.764C170.335 118.356 167.106 105.933 167.106 105.933L168.555 105.781C168.555 105.781 172.115 118.152 171.429 126.764C171.022 131.82 169.649 146.96 169.649 146.96C169.649 146.96 174.048 146.35 176.844 145.919C177.099 145.868 177.404 146.198 177.429 146.452C177.455 146.706 177.175 147.392 176.895 147.494C172.878 148.891 150.477 150.796 144.069 151.304C142.417 151.431 141.527 150.796 141.552 149.551C141.705 142.565 142.696 130.321 142.137 123.944C141.806 120.21 139.162 108.88 139.162 108.88L140.967 108.702Z" fill="#27624E"/>
</g>
<defs>
<clipPath id="clip0_955_13720">
<rect width="221" height="179" fill="white" transform="translate(0.5)"/>
</clipPath>
</defs>
</svg>
