<svg width="176" height="176" viewBox="0 0 176 176" fill="none" xmlns="http://www.w3.org/2000/svg">
<g clip-path="url(#clip0_4657_7581)">
<path d="M82.8935 76.5336C82.0054 74.4503 82.3396 72.2692 83.6398 71.6621C84.9399 71.055 86.7135 72.2516 87.6016 74.3358C87.9676 75.1631 88.1339 76.0724 88.0866 76.9877L91.7403 85.8657L87.6195 87.6221L84.4552 78.6835C83.7727 78.1088 83.2372 77.3716 82.8935 76.5336Z" fill="#FFAFAF"/>
<path d="M108.144 80.3032C110.371 82.5336 110.232 86.3389 107.848 88.3786L96.173 98.3671C94.8988 99.4572 93.0078 99.072 92.204 97.5586C89.1359 92.2843 88.5576 91.9951 86.7744 86.5894L91.803 84.7216L94.6383 88.4916L100.829 80.7371C102.699 78.3936 106.039 78.1955 108.144 80.3032Z" fill="#288CFF"/>
<path d="M63.0674 66.8164V62.886H26.3901V66.8164H63.0674Z" fill="#E0E5E7"/>
<path d="M155.938 66.8164V62.886H119.261V66.8164H155.938Z" fill="#E0E5E7"/>
<path d="M46.7081 49.311H40.4375C38.0056 49.311 36.0342 51.4045 36.0342 53.9868V78.5766C36.0342 81.159 38.0056 83.2524 40.4375 83.2524H46.7081C49.14 83.2524 51.1115 81.159 51.1115 78.5766V53.9868C51.1115 51.4045 49.14 49.311 46.7081 49.311Z" fill="#3F3D56"/>
<path d="M145.615 49.311H139.345C136.913 49.311 134.941 51.4045 134.941 53.9868V78.5766C134.941 81.159 136.913 83.2524 139.345 83.2524H145.615C148.047 83.2524 150.019 81.159 150.019 78.5766V53.9868C150.019 51.4045 148.047 49.311 145.615 49.311Z" fill="#3F3D56"/>
<path d="M141.64 74.9272H45.8756C42.5462 74.9272 39.6974 72.4024 39.1018 68.9243L35.4395 47.5355C33.8468 38.2337 37.1469 28.7568 44.0535 22.7934L51.2749 6.29521C52.9488 2.47093 56.5966 0 60.568 0H114.513C117.38 0 120.136 1.28831 122.072 3.53473L135.342 18.9297C145.049 25.8763 150.557 37.8904 149.717 50.2898L148.507 68.141C148.25 71.9462 145.233 74.9272 141.64 74.9272Z" fill="#307714"/>
<path d="M125.297 21.2934H52.9451C51.6885 21.2934 50.529 20.6258 49.8434 19.5079C49.1578 18.3897 49.0519 16.9935 49.5601 15.7734L53.3737 6.61792C53.9541 5.22454 55.2559 4.30615 56.6901 4.27832L118.368 4.35806C119.542 4.34993 120.663 4.91122 121.375 5.89903L128.236 14.9747C129.098 16.1711 129.243 17.7531 128.615 19.1039C127.987 20.4544 126.715 21.2934 125.297 21.2934Z" fill="white"/>
<path d="M136.147 45.4687C139.644 45.4687 142.479 42.4582 142.479 38.7445C142.479 35.0308 139.644 32.0203 136.147 32.0203C132.65 32.0203 129.814 35.0308 129.814 38.7445C129.814 42.4582 132.65 45.4687 136.147 45.4687Z" fill="white"/>
<path d="M52.9204 45.4687C56.4177 45.4687 59.2528 42.4582 59.2528 38.7445C59.2528 35.0308 56.4177 32.0203 52.9204 32.0203C49.423 32.0203 46.5879 35.0308 46.5879 38.7445C46.5879 42.4582 49.423 45.4687 52.9204 45.4687Z" fill="white"/>
<path d="M129.965 63.8801H60.9111V63.72C60.9111 59.9239 63.8195 56.8357 67.3944 56.8357H123.482C127.057 56.8357 129.965 59.9239 129.965 63.72V63.8801Z" fill="#3F3D56"/>
<path d="M45.0686 24.2036C44.6949 24.2036 44.3205 24.0773 44.0061 23.8221L41.4778 21.7696C41.2267 21.5657 40.9144 21.4534 40.5982 21.4534H35.0768C34.4451 21.4534 33.8789 21.1069 33.5624 20.5263C33.2459 19.9459 33.2448 19.252 33.5593 18.6704L34.9072 16.177C35.1764 15.6788 35.6572 15.3361 36.1934 15.2601L43.1015 14.282C43.9624 14.1607 44.764 14.7132 45.0104 15.5963L46.7466 21.8183C46.9378 22.5034 46.7373 23.2539 46.2358 23.7308C45.9053 24.0447 45.4875 24.2036 45.0686 24.2036Z" fill="#307714"/>
<path d="M134.652 22.9229C134.233 22.9229 133.815 22.7641 133.484 22.4501C132.983 21.9733 132.783 21.2228 132.974 20.5377L134.71 14.3156C134.956 13.432 135.759 12.8775 136.619 13.0017L143.527 13.9795C144.063 14.0555 144.544 14.3982 144.813 14.8963L146.161 17.3898C146.476 17.9714 146.474 18.6652 146.158 19.2456C145.841 19.8263 145.275 20.1728 144.643 20.1728H139.122C138.806 20.1728 138.494 20.285 138.242 20.4889L135.714 22.5414C135.4 22.7966 135.025 22.9229 134.652 22.9229Z" fill="#307714"/>
<path d="M30.092 12.1484H26.3906V173.294H30.092V12.1484Z" fill="#485159"/>
<path d="M157.958 12.1484H154.257V173.294H157.958V12.1484Z" fill="#485159"/>
<path d="M0 173.45C0 173.573 0.0926388 173.671 0.208001 173.671H175.792C175.907 173.671 176 173.573 176 173.45C176 173.328 175.907 173.229 175.792 173.229H0.208001C0.0926388 173.229 0 173.328 0 173.45Z" fill="#3F3D56"/>
<path d="M115.934 161.261V168.56L121.131 168.738L120.914 161.261H115.934Z" fill="#FFAFAF"/>
<path d="M114.906 165.322C114.835 165.322 114.767 165.332 114.7 165.352C113.762 165.637 108.332 170.784 106.691 172.355C106.488 172.549 106.38 172.826 106.395 173.115C106.41 173.403 106.545 173.664 106.765 173.833C108.01 174.785 110.561 176.291 113.655 175.683C115.079 175.403 116.516 175.226 117.783 175.071C120.497 174.738 122.64 174.476 122.64 173.456C122.64 171.725 122.192 167.164 121.629 166.972C121.578 166.955 121.519 166.997 121.451 167.099C120.59 168.378 117.634 167.697 117.509 167.668L117.476 167.66L117.457 167.63C117.442 167.606 115.994 165.322 114.906 165.322Z" fill="#2F2E41"/>
<path d="M106.21 161.261V168.56L111.407 168.738L111.191 161.261H106.21Z" fill="#FFAFAF"/>
<path d="M104.114 109.01L101.348 111.235L100.845 136.337L105.539 163.753L111.658 164.02L111.826 137.85L119.706 113.995L118.113 108.387L104.114 109.01Z" fill="#2F2E41"/>
<path d="M117.024 113.283L119.707 113.995L121.635 163.753L114.677 163.13L110.066 127.97L117.024 113.283Z" fill="#2F2E41"/>
<path d="M102.5 176C100.115 176 98.177 174.88 97.1421 174.126C96.8294 173.898 96.6358 173.536 96.6111 173.133C96.5861 172.726 96.7354 172.336 97.0208 172.064C99.5894 169.61 104.033 165.453 104.93 165.181C106.093 164.827 107.653 167.188 107.854 167.501C108.178 167.572 110.84 168.112 111.591 166.995C111.734 166.782 111.869 166.772 111.957 166.802C112.759 167.075 113.084 172.562 113.084 173.456C113.084 174.634 110.985 174.892 108.079 175.248C106.814 175.403 105.38 175.579 103.962 175.857C103.46 175.956 102.971 176 102.5 176Z" fill="#2F2E41"/>
<path d="M109.863 76.4973L111.772 80.5824L104.555 84.2838L104.643 77.7349L109.863 76.4973Z" fill="#FFAFAF"/>
<path d="M104.58 79.5876C108.167 79.5876 111.075 76.5001 111.075 72.6915C111.075 68.8829 108.167 65.7954 104.58 65.7954C100.994 65.7954 98.0859 68.8829 98.0859 72.6915C98.0859 76.5001 100.994 79.5876 104.58 79.5876Z" fill="#FFAFAF"/>
<path d="M104.536 82.691L111.195 78.5127C116.079 82.1497 120.146 83.0006 120.276 89.3334L119.376 104.44L119.428 110.945C119.45 113.677 117.372 115.903 114.8 115.903H105.291C102.774 115.903 100.9 113.438 101.429 110.826L103.225 101.975L101.308 84.7266L104.536 82.691Z" fill="#288CFF"/>
<path d="M111.259 76.1611L110.058 77.0746C110.058 77.0746 109.705 73.0935 109.217 72.9168C108.73 72.7402 108.072 73.6577 108.072 73.6577L107.592 75.1523L106.003 74.4492C106.003 74.4492 104.164 73.3975 103.514 73.1619C102.864 72.9264 102.963 70.9263 102.963 70.9263C102.963 70.9263 95.1596 72.0608 96.3319 67.2841C96.3319 67.2841 96.7356 63.77 97.5997 64.4685C98.4638 65.1669 98.4754 63.4372 98.4754 63.4372L100.433 62.9908C100.433 62.9908 103.12 59.1481 108.419 62.4171C113.718 65.6861 111.259 76.1611 111.259 76.1611Z" fill="#2F2E41"/>
<path d="M97.7059 91.4255L95.9515 91.1417C95.4617 91.0625 95.1219 90.572 95.1965 90.0518L95.4109 88.5574C94.7742 88.9752 94.3069 89.6746 94.1853 90.5219C93.9977 91.8292 94.6933 93.0604 95.7972 93.5398L94.2621 104.239C94.2583 104.266 94.2591 104.293 94.2584 104.319C93.0668 104.424 92.0534 105.381 91.8655 106.691C91.7553 107.459 91.9495 108.202 92.3521 108.781L92.5453 107.435C92.6199 106.915 93.0818 106.554 93.5717 106.633L95.3261 106.917C95.8159 106.996 96.1557 107.487 96.0811 108.007L95.8667 109.501C96.5034 109.083 96.9707 108.384 97.0923 107.537C97.2803 106.227 96.5813 104.993 95.4732 104.516C95.4799 104.49 95.4881 104.465 95.492 104.438L97.027 93.7388C98.2153 93.6302 99.2246 92.6748 99.4121 91.3675C99.5223 90.5995 99.3281 89.857 98.9255 89.2777L98.7323 90.6238C98.6577 91.144 98.1958 91.5048 97.7059 91.4255Z" fill="#3F3D56"/>
<path d="M94.4376 100.735C92.3323 100.254 90.8801 98.6711 91.194 97.2002C91.5079 95.7293 93.4689 94.9275 95.5749 95.4093C96.4188 95.5891 97.2061 95.9881 97.8708 96.5729L106.765 98.736L105.643 103.298L96.9941 100.681C96.1531 100.922 95.2765 100.94 94.4376 100.735Z" fill="#FFAFAF"/>
<path d="M112.313 81.4263C115.326 80.8519 118.124 83.2348 118.249 86.483L118.865 102.39C118.932 104.126 117.516 105.511 115.892 105.297C110.074 104.777 110.483 105.41 105.33 103.716L105.675 97.902L110.476 97.8248L108.289 87.928C107.628 84.937 109.465 81.9691 112.313 81.4263Z" fill="#288CFF"/>
</g>
<defs>
<clipPath id="clip0_4657_7581">
<rect width="176" height="176" fill="white"/>
</clipPath>
</defs>
</svg>
