<svg width="249" height="249" viewBox="0 0 249 249" fill="none" xmlns="http://www.w3.org/2000/svg">
<path d="M105.095 36C116.212 36 127.329 36 138.783 36C138.783 41.672 138.783 47.3439 138.783 53.1878C139.918 53.4147 141.052 53.6415 142.221 53.8753C143.303 54.1979 144.359 54.5313 145.422 54.9066C145.712 55.0084 146.002 55.1102 146.301 55.2151C150.034 56.5679 153.992 58.1512 157.294 60.3798C157.538 60.5021 157.782 60.6244 158.034 60.7504C159.087 60.3479 159.787 59.7687 160.575 58.9751C160.795 58.7549 161.015 58.5347 161.242 58.3079C161.475 58.0708 161.709 57.8337 161.949 57.5895C162.192 57.3463 162.434 57.1031 162.683 56.8525C163.456 56.0766 164.225 55.2983 164.995 54.5198C165.518 53.9929 166.042 53.466 166.566 52.9394C167.849 51.649 169.13 50.3566 170.409 49.0627C171.366 49.4999 172.069 49.9498 172.811 50.6942C173.004 50.8861 173.196 51.0779 173.395 51.2756C173.706 51.5901 173.706 51.5901 174.023 51.911C174.244 52.1323 174.466 52.3537 174.694 52.5818C175.425 53.3131 176.153 54.0467 176.881 54.7803C177.388 55.2882 177.895 55.7959 178.402 56.3034C179.734 57.639 181.065 58.9766 182.396 60.3147C183.754 61.68 185.114 63.0433 186.474 64.4069C189.142 67.082 191.808 69.7594 194.472 72.4381C194.01 73.4692 193.497 74.1847 192.697 74.979C192.367 75.3092 192.367 75.3092 192.03 75.6461C191.792 75.8796 191.555 76.1131 191.311 76.3537C190.946 76.717 190.946 76.717 190.574 77.0877C189.798 77.8598 189.02 78.6295 188.242 79.3992C187.715 79.9227 187.188 80.4464 186.661 80.9702C185.371 82.2531 184.078 83.534 182.784 84.8133C183.151 85.9678 183.513 87.0515 184.119 88.1018C184.304 88.4316 184.304 88.4316 184.493 88.7681C184.624 89.0016 184.755 89.235 184.89 89.4755C186.113 91.723 187.139 94.0019 188.048 96.3936C188.156 96.6746 188.263 96.9555 188.374 97.245C189.292 99.7238 189.959 102.189 190.691 104.751C199.199 104.921 202.98 104.921 211.66 105.095C211.66 116.099 211.66 127.102 211.66 138.439C205.875 138.439 196.308 138.439 190.347 138.439C190.234 139.347 190.12 140.254 190.003 141.189C189.778 142.156 189.464 143.086 189.144 144.025C189.055 144.289 188.966 144.552 188.875 144.823C187.369 149.149 185.5 153.43 183.06 157.314C182.694 158.025 182.694 158.025 183.051 158.69C184.458 161.093 186.836 163.853 189.456 164.893C190.605 165.188 191.752 165.363 192.926 165.523C198.229 166.255 202.752 169.343 206.224 173.352C210.341 178.807 211.935 184.946 211.316 191.721C210.839 195.003 209.744 198.059 208.222 201.003C207.045 200.501 206.347 199.865 205.49 198.922C205.227 198.635 204.964 198.349 204.693 198.053C204.268 197.59 204.268 197.59 203.835 197.117C203.067 196.301 202.296 195.488 201.524 194.675C200.72 193.825 199.923 192.97 199.14 192.101C196.026 188.279 196.026 188.279 191.863 186.06C190.028 186.136 188.515 186.741 186.909 187.596C186.801 187.949 186.692 188.302 186.58 188.665C186.32 189.506 186.061 190.347 185.802 191.188C185.531 192.424 185.509 192.945 185.878 194.128C186.466 194.913 186.466 194.913 187.243 195.648C187.532 195.937 187.821 196.226 188.118 196.524C188.432 196.831 188.746 197.138 189.07 197.454C189.39 197.772 189.71 198.09 190.04 198.417C190.888 199.261 191.741 200.1 192.595 200.938C193.466 201.796 194.333 202.657 195.201 203.517C196.902 205.204 198.608 206.886 200.316 208.565C199.558 209.356 199.007 209.778 197.966 210.136C197.714 210.225 197.461 210.313 197.201 210.404C196.807 210.536 196.807 210.536 196.406 210.671C196.146 210.762 195.886 210.853 195.619 210.946C189.769 212.961 183.154 212.54 177.498 210.134C171.457 207.167 167.062 201.79 164.885 195.465C164.501 194.058 164.205 192.805 164.267 191.34C164.342 189.298 164.085 188.066 162.759 186.499C160.905 184.443 160.905 184.443 158.721 182.784C157.333 182.943 156.143 183.714 154.919 184.352C143.128 190.346 143.128 190.346 138.783 190.346C138.783 196.018 138.955 206.159 138.955 212.003C127.838 212.003 116.549 212.003 105.095 212.003C105.095 206.331 105.095 196.19 105.095 190.346C103.961 190.119 102.826 189.893 101.658 189.659C100.589 189.344 99.5482 189.018 98.4994 188.649C98.0677 188.498 98.0677 188.498 97.6273 188.344C93.6245 186.892 89.3973 185.152 85.8448 182.784C84.6793 182.892 84.1205 183.355 83.3257 184.182C83.0022 184.514 83.0022 184.514 82.6721 184.852C82.4429 185.092 82.2137 185.332 81.9775 185.579C81.4871 186.081 80.9965 186.583 80.5058 187.085C79.7349 187.879 78.9653 188.675 78.1976 189.473C77.456 190.241 76.7093 191.004 75.9618 191.767C75.618 192.129 75.618 192.129 75.2672 192.498C75.0515 192.717 74.8358 192.937 74.6136 193.162C74.3313 193.455 74.3313 193.455 74.0433 193.754C73.4696 194.128 73.4695 194.128 72.8105 194.035C71.576 193.602 70.7561 192.594 69.8503 191.684C69.6282 191.465 69.4062 191.246 69.1774 191.02C68.444 190.295 67.7144 189.565 66.9852 188.836C66.4777 188.331 65.9702 187.826 65.4626 187.321C64.3994 186.263 63.3384 185.202 62.2786 184.14C60.9176 182.777 59.5504 181.421 58.1815 180.066C57.132 179.025 56.0864 177.98 55.0419 176.935C54.5393 176.433 54.0353 175.932 53.5299 175.433C52.8252 174.736 52.1262 174.033 51.4284 173.329C51.2172 173.123 51.0059 172.916 50.7883 172.703C50.2173 172.12 50.2173 172.12 49.4065 171.096C49.5589 169.91 49.9894 169.355 50.8307 168.524C51.1713 168.183 51.1713 168.183 51.5188 167.836C51.8884 167.474 51.8884 167.474 52.2654 167.105C52.5167 166.855 52.768 166.606 53.0269 166.348C53.8301 165.551 54.6369 164.757 55.4438 163.963C55.989 163.423 56.5339 162.883 57.0786 162.342C58.4145 161.018 59.7533 159.696 61.0943 158.377C60.9142 158.045 60.7341 157.714 60.5486 157.372C59.191 154.859 57.8714 152.35 56.7543 149.719C56.6268 149.42 56.4992 149.122 56.3677 148.814C53.1879 141.178 53.1879 141.178 53.1879 138.439C47.5159 138.439 41.8439 138.439 36 138.439C36 127.436 36 116.432 36 105.095C41.672 105.095 47.344 105.095 53.1879 105.095C53.4147 103.961 53.6416 102.826 53.8754 101.657C54.1905 100.589 54.5164 99.5479 54.8852 98.4991C54.9858 98.2113 55.0865 97.9235 55.1902 97.627C56.6419 93.6242 58.3822 89.3971 60.7505 85.8446C60.6426 84.6791 60.1789 84.1203 59.3525 83.3255C59.1312 83.1098 58.9099 82.8941 58.6818 82.6719C58.4419 82.4427 58.202 82.2135 57.9548 81.9773C57.453 81.4869 56.9512 80.9963 56.4495 80.5056C55.655 79.7347 54.8592 78.9651 54.0615 78.1974C53.2931 77.4558 52.5299 76.7091 51.7672 75.9616C51.5259 75.7324 51.2846 75.5032 51.0359 75.2671C50.8168 75.0514 50.5976 74.8357 50.3718 74.6134C50.1767 74.4252 49.9816 74.237 49.7805 74.0431C49.4065 73.4694 49.4065 73.4694 49.4978 72.811C49.7775 72.0171 50.0725 71.6448 50.666 71.0546C50.8603 70.859 51.0545 70.6633 51.2547 70.4617C51.4688 70.2512 51.6829 70.0408 51.9036 69.824C52.1283 69.5992 52.3529 69.3743 52.5844 69.1427C53.3279 68.4 54.0749 67.6609 54.8221 66.9219C55.3382 66.4077 55.854 65.8933 56.3697 65.3787C57.7277 64.0246 59.0888 62.6737 60.4505 61.3234C61.8395 59.945 63.2255 58.5637 64.6118 57.1826C67.3323 54.4731 70.0562 51.7669 72.782 49.0627C75.3326 51.2203 75.3326 51.2203 76.3178 52.2484C76.5048 52.4421 76.6917 52.6357 76.8844 52.8353C77.0771 53.0362 77.2698 53.2372 77.4684 53.4443C77.8911 53.878 78.3141 54.3115 78.7374 54.7448C79.3954 55.4199 80.0517 56.0964 80.7037 56.7773C81.3394 57.44 81.9814 58.0959 82.6248 58.751C82.8189 58.9568 83.013 59.1627 83.213 59.3748C83.8236 60.0132 83.8236 60.0132 84.8135 60.7504C86.0045 60.7454 86.853 60.3007 87.8751 59.7178C88.1273 59.5778 88.3794 59.4378 88.6392 59.2936C88.9082 59.1433 89.1771 58.9931 89.4543 58.8383C93.892 56.4315 99.9322 53.1878 105.095 53.1878C105.095 47.5158 105.095 41.8438 105.095 36ZM101.534 102.681C97.4798 107.681 94.5301 113.349 94.095 119.876C94.0773 120.14 94.0595 120.404 94.0413 120.675C93.7726 128.166 96.6145 134.974 101.421 140.609C106.383 145.846 113.159 149.083 120.371 149.509C123.52 149.551 126.465 149.285 129.502 148.408C129.729 148.181 129.956 147.954 130.19 147.721C129.62 147.021 129.333 146.713 128.423 146.589C128.143 146.601 127.862 146.613 127.572 146.625C127.103 146.638 127.103 146.638 126.623 146.652C126.29 146.664 125.957 146.677 125.613 146.689C119.075 146.791 113.067 145.067 108.189 140.502C107.933 140.264 107.677 140.026 107.413 139.781C104.227 136.546 102.185 132.222 101.314 127.783C101.197 127.187 101.197 127.187 101.078 126.58C100.634 121.611 101.456 117.053 103.38 112.478C103.763 111.673 103.763 111.673 103.72 110.939C105.772 112.127 107.208 113.767 108.799 115.504C109.393 116.134 109.987 116.762 110.583 117.39C111.517 118.375 112.445 119.363 113.357 120.369C116.363 124.043 116.363 124.043 120.368 126.227C122.389 126.159 124.281 125.441 125.721 124.001C126.662 122.521 127.267 121.149 127.292 119.373C126.56 116.127 122.567 113.302 120.179 111.112C119.245 110.249 118.33 109.366 117.414 108.484C115.618 106.761 113.801 105.062 111.97 103.376C113.155 102.586 114.383 102.127 115.709 101.636C115.952 101.543 116.195 101.451 116.446 101.356C116.684 101.267 116.922 101.178 117.167 101.087C117.382 101.006 117.597 100.926 117.818 100.844C122.541 99.3414 128.748 99.7788 133.283 101.657C133.637 101.803 133.991 101.949 134.356 102.099C140.171 104.759 143.889 109.275 146.346 115.064C148.025 119.935 147.889 124.777 147.377 129.845C147.718 129.845 148.058 129.845 148.409 129.845C150.414 122.634 149.824 115.211 146.346 108.532C143.615 103.919 140.063 100.132 135.346 97.5323C135.072 97.3745 134.797 97.2168 134.515 97.0543C123.849 91.278 109.759 93.8327 101.534 102.681Z" fill="#4D4D4C"/>
<path d="M110.252 41.1563C114.109 41.1563 117.965 41.1563 121.939 41.1563C121.939 50.5718 121.939 59.9873 121.939 69.6881C122.96 69.6881 123.981 69.6881 125.033 69.6881C126.482 69.8203 127.914 70.0447 129.352 70.2682C129.743 70.3283 130.135 70.3885 130.538 70.4504C133.626 70.9512 136.539 71.7014 139.471 72.7819C139.214 74.5216 138.741 75.9667 138.096 77.5945C136.579 77.454 135.224 77.2364 133.777 76.7565C129.97 75.5613 125.885 75.47 121.939 75.1882C121.939 79.7257 121.939 84.2633 121.939 88.9384C120.124 89.0518 118.309 89.1653 116.439 89.2822C107.227 91.3624 99.2468 95.9861 94.095 104.064C89.6386 111.519 88.1032 120.183 89.6893 128.756C91.0237 133.934 93.3583 138.838 96.845 142.908C97.0781 143.191 97.3112 143.473 97.5514 143.765C99.3856 145.912 101.366 147.544 103.72 149.096C103.992 149.279 104.263 149.463 104.543 149.652C109.953 153.115 115.593 154.142 121.939 154.596C121.939 159.36 121.939 164.125 121.939 169.034C123.414 169.034 124.889 169.034 126.408 169.034C126.713 170.254 126.788 171.145 126.773 172.385C126.77 172.724 126.767 173.062 126.764 173.411C126.76 173.668 126.756 173.925 126.752 174.19C125.067 174.527 123.724 174.534 121.939 174.534C121.939 183.722 121.939 197.38 121.939 206.847C118.082 206.847 114.225 206.847 110.252 206.847C110.252 201.402 110.252 191.488 110.252 185.878C109.117 185.764 107.983 185.651 106.814 185.534C105.663 185.275 104.55 185.002 103.419 184.674C102.954 184.54 102.954 184.54 102.479 184.402C96.8655 182.705 90.3275 180.063 85.7589 176.303C85.1844 175.833 85.1844 175.833 84.5031 175.992C83.6698 176.293 83.2686 176.641 82.6479 177.27C82.4347 177.483 82.2214 177.696 82.0017 177.916C81.7757 178.147 81.5497 178.379 81.3169 178.617C80.965 178.971 80.965 178.971 80.606 179.332C79.8576 180.087 79.1128 180.844 78.3681 181.602C77.8612 182.114 77.3541 182.626 76.8467 183.138C75.6037 184.392 74.3639 185.65 73.1258 186.909C70.1315 184.412 67.4082 181.637 64.6443 178.891C63.9932 178.246 63.341 177.602 62.6858 176.961C61.7394 176.033 60.7986 175.1 59.8589 174.166C59.5639 173.878 59.2689 173.591 58.965 173.295C58.6974 173.027 58.4299 172.758 58.1542 172.482C57.7976 172.129 57.7976 172.129 57.4337 171.77C56.9692 171.096 56.9692 171.096 57.0051 170.389C57.3499 169.641 57.7099 169.21 58.3041 168.64C58.5117 168.438 58.7192 168.236 58.9331 168.028C59.1579 167.814 59.3828 167.6 59.6145 167.379C60.085 166.92 60.5555 166.461 61.0258 166.001C61.7705 165.28 62.5166 164.561 63.2644 163.843C63.9851 163.149 64.7005 162.45 65.4154 161.75C65.6417 161.536 65.868 161.322 66.1011 161.101C66.4092 160.798 66.4092 160.798 66.7235 160.489C66.9064 160.313 67.0893 160.137 67.2778 159.956C67.7042 159.414 67.7042 159.414 67.5316 158.694C67.2573 157.968 66.9235 157.35 66.5179 156.688C66.3624 156.43 66.207 156.171 66.0469 155.905C65.8801 155.629 65.7134 155.353 65.5416 155.068C61.8622 148.821 57.6567 140.669 57.6567 133.283C52.2116 133.283 46.7665 133.283 41.1564 133.283C41.1564 125.682 41.1564 118.082 41.1564 110.251C46.6015 110.251 52.0466 110.251 57.6567 110.251C57.7702 109.117 57.8836 107.982 58.0005 106.814C58.2739 105.697 58.5613 104.621 58.9028 103.527C59.0403 103.081 59.0403 103.081 59.1805 102.626C60.9482 97.0291 63.251 90.9337 66.8925 86.277C67.6959 85.2703 67.6959 85.2703 67.6318 84.369C67.1173 83.0004 66.2042 82.184 65.167 81.177C64.9555 80.9666 64.744 80.7562 64.526 80.5395C64.0794 80.0964 63.6312 79.6551 63.1814 79.2152C62.4915 78.5405 61.8063 77.8612 61.1218 77.1809C60.6872 76.7509 60.2524 76.3212 59.8173 75.8918C59.6114 75.6884 59.4055 75.485 59.1933 75.2755C58.1737 74.2493 58.1737 74.2493 56.9692 73.4694C57.157 72.0988 57.8071 71.4751 58.772 70.5183C59.2365 70.0539 59.2365 70.0539 59.7104 69.5801C60.0503 69.2454 60.3903 68.9108 60.7304 68.5762C61.0769 68.2316 61.4233 67.8867 61.7694 67.5417C62.6798 66.6352 63.5933 65.7318 64.5074 64.8291C65.4402 63.9069 66.37 62.9818 67.3 62.057C69.1245 60.2435 70.9522 58.4334 72.782 56.6253C74.387 57.9659 75.9072 59.3589 77.3784 60.8444C77.5734 61.0399 77.7684 61.2353 77.9693 61.4367C78.5829 62.0522 79.1952 62.6689 79.8076 63.2856C80.2271 63.7069 80.6467 64.1281 81.0665 64.5492C82.0872 65.5737 83.1069 66.5993 84.126 67.6255C85.6192 67.0492 86.9756 66.3197 88.3585 65.52C95.4338 61.5032 101.801 59.243 109.908 57.3129C110.078 49.3154 110.078 49.3154 110.252 41.1563Z" fill="#88878F"/>
<path d="M121.939 41.1563C125.683 41.1563 129.426 41.1563 133.283 41.1563C133.283 46.488 133.283 51.8196 133.283 57.3129C134.985 57.6532 136.687 57.9935 138.44 58.3441C139.791 58.7267 141.109 59.1186 142.436 59.5688C142.785 59.6867 143.134 59.8046 143.494 59.926C148.599 61.7034 153.4 63.967 157.788 67.1368C158.096 67.2981 158.404 67.4594 158.721 67.6255C159.749 67.2478 160.429 66.6876 161.188 65.9133C161.494 65.6037 161.494 65.6037 161.807 65.2878C162.023 65.0658 162.24 64.8437 162.462 64.615C162.688 64.3871 162.913 64.1591 163.145 63.9243C163.864 63.1974 164.58 62.4683 165.296 61.7387C166.24 60.7762 167.186 59.816 168.134 58.8571C168.461 58.5219 168.461 58.5219 168.794 58.18C169.32 57.6487 169.863 57.1351 170.409 56.6253C170.636 56.6253 170.863 56.6253 171.097 56.6253C171.666 57.2148 171.666 57.2148 172.3 57.9789C173.121 59.0043 173.121 59.0043 174.19 59.7192C174.19 59.946 174.19 60.1729 174.19 60.4067C174.531 60.5201 174.871 60.6335 175.222 60.7504C175.974 61.4164 175.974 61.4164 176.597 62.1254C176.597 62.3523 176.597 62.5792 176.597 62.813C177.051 63.0398 177.504 63.2667 177.972 63.5005C177.972 63.7273 177.972 63.9542 177.972 64.188C178.426 64.4149 178.879 64.6417 179.347 64.8755C179.347 65.1024 179.347 65.3292 179.347 65.563C179.567 65.6552 179.786 65.7473 180.013 65.8423C180.722 66.2505 180.722 66.2505 181.066 67.2818C181.406 67.3952 181.746 67.5087 182.097 67.6255C182.097 67.8524 182.097 68.0793 182.097 68.313C182.287 68.3902 182.476 68.4673 182.672 68.5467C183.717 69.1394 184.439 69.903 185.277 70.7623C185.583 71.0752 185.89 71.388 186.206 71.7103C186.554 72.0706 186.554 72.0706 186.909 72.4381C186.458 73.4369 185.974 74.1454 185.197 74.9159C184.991 75.1223 184.784 75.3286 184.572 75.5413C184.239 75.869 184.239 75.869 183.899 76.2033C183.671 76.4303 183.443 76.6572 183.208 76.8911C182.481 77.6141 181.752 78.3348 181.023 79.0554C180.529 79.5458 180.035 80.0364 179.542 80.5271C178.333 81.7285 177.121 82.9277 175.909 84.1258C176.419 85.4491 177.021 86.548 177.8 87.7353C181.699 93.9233 186.222 102.751 186.222 110.251C191.554 110.251 201.01 110.251 206.504 110.251C206.504 117.852 206.504 125.968 206.504 133.799C201.172 133.799 191.715 133.283 186.222 133.283C185.882 134.984 185.541 136.686 185.191 138.439C183.375 145.495 180.231 152.285 176.253 158.377C175.296 157.94 174.593 157.49 173.851 156.746C173.658 156.554 173.466 156.362 173.267 156.164C173.06 155.955 172.853 155.745 172.639 155.529C172.418 155.307 172.196 155.086 171.968 154.858C171.237 154.127 170.509 153.393 169.781 152.659C169.274 152.152 168.767 151.644 168.261 151.136C166.928 149.801 165.597 148.463 164.266 147.125C162.908 145.76 161.548 144.396 160.188 143.033C157.52 140.358 154.854 137.68 152.19 135.002C152.296 134.614 152.296 134.614 152.405 134.218C152.544 133.708 152.544 133.708 152.686 133.188C152.778 132.851 152.87 132.514 152.965 132.167C153.757 129.24 154.435 126.349 154.596 123.314C154.614 123.042 154.633 122.771 154.651 122.491C154.945 114.172 151.921 106.083 146.346 99.9386C146.068 99.6284 145.79 99.3182 145.503 98.9986C139.088 92.2086 131.099 89.9026 121.939 88.9384C121.939 84.4008 121.939 79.8632 121.939 75.1882C127.544 75.1882 127.544 75.1882 130.018 75.6179C130.29 75.6628 130.563 75.7076 130.844 75.7539C133.32 76.1827 135.705 76.826 138.096 77.5945C138.261 77.0503 138.426 76.506 138.59 75.9616C138.682 75.6585 138.774 75.3554 138.868 75.0431C139.088 74.2925 139.288 73.5421 139.471 72.7819C139.165 72.7254 139.165 72.7254 138.852 72.6677C137.334 72.3773 135.858 72.0505 134.379 71.6002C130.365 70.4688 126.07 70.1471 121.939 69.6881C121.939 60.2726 121.939 50.8571 121.939 41.1563Z" fill="#57565C"/>
<path d="M121.596 105.095C127.588 104.765 132.41 105.932 137.065 109.907C140.44 113.293 142.631 117.545 142.66 122.383C142.657 122.626 142.654 122.87 142.651 123.121C142.648 123.377 142.646 123.633 142.644 123.897C142.562 128.251 141.195 131.631 138.44 135.002C138.897 136.022 139.395 136.722 140.201 137.494C140.528 137.806 140.854 138.118 141.19 138.439C142.376 137.949 142.943 137.374 143.682 136.334C143.951 135.96 143.951 135.96 144.224 135.579C144.357 135.389 144.49 135.198 144.627 135.002C145.818 135.512 146.576 136.184 147.48 137.105C147.773 137.402 148.066 137.698 148.368 138.004C148.69 138.333 149.012 138.662 149.334 138.991C149.675 139.338 150.016 139.684 150.357 140.03C151.091 140.774 151.825 141.52 152.557 142.266C153.716 143.446 154.879 144.621 156.043 145.796C156.441 146.199 156.84 146.601 157.238 147.004C157.438 147.205 157.638 147.407 157.843 147.614C160.551 150.35 163.256 153.088 165.953 155.835C167.773 157.689 169.598 159.537 171.43 161.379C172.398 162.354 173.364 163.332 174.323 164.316C175.225 165.242 176.134 166.16 177.049 167.073C177.383 167.409 177.715 167.748 178.043 168.089C179.685 169.934 179.685 169.934 181.861 170.871C182.693 170.794 182.693 170.794 183.816 170.409C190.206 169.995 194.727 170.896 200.015 174.598C202.84 177.103 205.309 181.069 205.816 184.846C205.855 185.971 205.849 187.094 205.838 188.219C205.836 188.523 205.835 188.827 205.833 189.14C205.829 189.886 205.823 190.632 205.816 191.378C204.212 190.056 202.762 188.671 201.365 187.134C200.985 186.73 200.604 186.326 200.223 185.923C199.631 185.298 199.045 184.671 198.47 184.031C196.314 181.483 196.314 181.483 193.373 180.232C192.295 180.4 191.366 180.678 190.347 181.065C189.816 181.211 189.283 181.355 188.75 181.496C188.272 181.643 187.794 181.793 187.318 181.946C185.573 182.498 183.917 182.916 182.097 183.127C182.076 183.517 182.054 183.907 182.032 184.309C181.829 186.228 181.256 188.015 180.658 189.841C180.077 191.683 179.517 193.558 179.691 195.503C180.274 196.588 181.085 197.342 181.988 198.169C182.225 198.401 182.462 198.633 182.706 198.872C183.462 199.606 184.229 200.326 184.997 201.046C185.513 201.543 186.028 202.04 186.542 202.539C187.801 203.756 189.071 204.961 190.347 206.159C189.365 207.141 188.669 206.962 187.296 206.976C182.488 206.949 178.102 204.903 174.599 201.626C170.591 197.357 169.226 192.455 169.311 186.728C169.563 182.235 172.405 178.256 175.222 174.877C174.201 173.856 173.18 172.835 172.128 171.784C170.156 173.098 168.712 175.177 167.659 177.284C166.462 176.771 165.702 176.092 164.793 175.167C164.497 174.868 164.201 174.568 163.897 174.26C163.571 173.927 163.246 173.595 162.921 173.262C162.577 172.913 162.232 172.563 161.888 172.214C161.146 171.462 160.405 170.709 159.665 169.956C158.495 168.764 157.321 167.577 156.145 166.391C155.743 165.984 155.34 165.578 154.938 165.171C154.636 164.866 154.635 164.866 154.327 164.555C151.592 161.792 148.86 159.027 146.136 156.253C144.299 154.381 142.455 152.515 140.605 150.655C139.627 149.67 138.652 148.683 137.683 147.689C136.772 146.754 135.854 145.827 134.93 144.905C134.593 144.566 134.258 144.224 133.926 143.879C132.271 142.018 132.271 142.018 130.079 141.069C129.246 141.146 129.246 141.146 128.127 141.533C121.858 141.955 116.934 141.162 111.909 137.154C108.671 134.212 106.316 129.737 106.09 125.35C106.046 123.753 106.072 122.161 106.126 120.564C106.353 120.564 106.58 120.564 106.814 120.564C107.263 121.014 107.263 121.014 107.802 121.669C109.395 123.538 111.079 125.31 112.795 127.065C113.165 127.446 113.532 127.83 113.896 128.216C114.429 128.781 114.971 129.336 115.515 129.89C115.676 130.063 115.836 130.237 116.002 130.416C116.527 130.967 116.527 130.967 117.47 131.564C118.685 131.569 118.685 131.569 119.877 131.22C120.208 131.147 120.539 131.073 120.88 130.997C121.202 130.915 121.524 130.833 121.856 130.748C122.213 130.657 122.57 130.567 122.937 130.474C123.485 130.333 123.485 130.333 124.045 130.189C124.776 130.003 125.508 129.816 126.239 129.63C126.56 129.548 126.882 129.466 127.213 129.381C128.087 129.168 128.962 128.984 129.846 128.814C129.89 128.512 129.89 128.512 129.936 128.204C130.336 125.76 130.956 123.41 131.645 121.035C131.718 120.782 131.791 120.528 131.867 120.267C131.933 120.043 131.998 119.818 132.066 119.587C132.158 119.22 132.158 119.22 132.252 118.845C132.366 118.529 132.479 118.212 132.596 117.886C132.596 116.611 132.449 116.459 131.625 115.55C131.164 115.093 130.696 114.643 130.223 114.199C129.856 113.84 129.856 113.84 129.482 113.473C128.699 112.708 127.909 111.952 127.117 111.197C126.329 110.435 125.542 109.671 124.756 108.905C124.267 108.429 123.775 107.956 123.282 107.485C123.06 107.271 122.839 107.058 122.611 106.838C122.414 106.65 122.218 106.462 122.016 106.269C121.596 105.782 121.596 105.782 121.596 105.095Z" fill="#FDA611"/>
<path d="M134.636 152.283C135.426 152.561 135.798 152.858 136.386 153.449C136.679 153.74 136.679 153.74 136.979 154.038C137.294 154.359 137.294 154.359 137.616 154.686C137.841 154.911 138.066 155.136 138.298 155.367C139.04 156.111 139.779 156.858 140.518 157.605C141.033 158.121 141.547 158.637 142.062 159.153C143.416 160.511 144.767 161.872 146.117 163.233C147.495 164.622 148.877 166.008 150.258 167.395C152.967 170.115 155.673 172.839 158.378 175.565C152.153 181.888 141.974 184.295 133.627 186.221C133.514 191.553 133.744 201.353 133.627 206.847C129.884 206.847 125.796 206.847 121.939 206.847C121.939 197.658 121.939 184.001 121.939 174.534C123.527 174.42 125.116 174.307 126.752 174.19C126.582 171.637 126.582 171.637 126.408 169.034C124.933 169.034 123.459 169.034 121.939 169.034C121.939 164.269 121.939 159.505 121.939 154.596C125.002 154.255 125.002 154.255 128.127 153.908C129.616 153.547 132.987 152.052 134.636 152.283Z" fill="#57565C"/>
<path d="M106.126 120.564C106.353 120.564 106.58 120.564 106.814 120.564C107.263 121.014 107.263 121.014 107.802 121.669C109.395 123.538 111.079 125.31 112.795 127.065C113.165 127.446 113.532 127.83 113.896 128.216C114.429 128.781 114.971 129.336 115.515 129.89C115.676 130.063 115.836 130.237 116.002 130.416C116.527 130.967 116.527 130.967 117.47 131.564C118.685 131.569 118.685 131.569 119.877 131.22C120.208 131.147 120.539 131.073 120.88 130.997C121.202 130.915 121.524 130.833 121.856 130.748C122.391 130.612 122.391 130.612 122.937 130.474C123.303 130.38 123.668 130.286 124.045 130.189C124.776 130.003 125.508 129.816 126.239 129.63C126.56 129.548 126.882 129.466 127.213 129.381C127.514 129.307 127.816 129.234 128.127 129.158C128.562 129.016 128.562 129.016 129.005 128.871C129.846 128.814 129.846 128.814 130.634 129.363C130.898 129.635 131.161 129.907 131.433 130.188C131.727 130.487 132.021 130.786 132.323 131.093C132.777 131.571 132.777 131.571 133.24 132.058C133.54 132.365 133.84 132.671 134.149 132.987C135.685 134.565 137.168 136.178 138.607 137.846C139.313 138.651 140.062 139.407 140.825 140.158C141.09 140.42 141.355 140.683 141.629 140.953C141.824 141.144 142.02 141.336 142.221 141.533C143.204 141.066 143.891 140.624 144.627 139.814C145.694 140.292 146.472 140.851 147.313 141.662C147.635 141.964 147.635 141.964 147.964 142.272C148.409 142.908 148.409 142.908 148.391 143.566C148.065 144.283 148.065 144.283 146.69 146.002C147.824 147.25 148.959 148.498 150.127 149.783C151.568 149.423 151.92 149.124 152.877 148.064C153.909 148.527 154.624 149.039 155.418 149.84C155.749 150.17 155.749 150.17 156.085 150.507C156.319 150.744 156.553 150.981 156.793 151.225C157.035 151.469 157.278 151.712 157.527 151.962C158.299 152.738 159.069 153.517 159.839 154.295C160.362 154.822 160.886 155.349 161.41 155.875C162.693 157.166 163.973 158.458 165.253 159.752C164.638 161.065 164.638 161.065 163.985 161.621C163.439 162.144 163.439 162.144 163.593 162.959C163.938 164.071 164.393 164.546 165.229 165.35C165.502 165.618 165.775 165.885 166.057 166.161C166.345 166.435 166.632 166.71 166.929 166.992C167.494 167.54 168.059 168.088 168.623 168.637C169.001 168.999 169.001 168.999 169.386 169.368C170.029 170.028 170.587 170.672 171.097 171.44C171.053 172.779 170.159 173.714 169.378 174.748C168.439 175.967 168.439 175.967 167.659 177.284C166.462 176.771 165.702 176.092 164.793 175.167C164.497 174.868 164.201 174.568 163.897 174.26C163.571 173.927 163.246 173.595 162.921 173.262C162.577 172.913 162.232 172.563 161.888 172.214C161.146 171.462 160.405 170.709 159.665 169.956C158.495 168.764 157.321 167.577 156.145 166.391C155.743 165.984 155.34 165.578 154.938 165.171C154.636 164.866 154.635 164.866 154.327 164.555C151.592 161.792 148.86 159.027 146.136 156.253C144.299 154.381 142.455 152.515 140.605 150.655C139.627 149.67 138.652 148.683 137.683 147.689C136.772 146.754 135.854 145.827 134.93 144.905C134.593 144.566 134.258 144.224 133.926 143.879C132.271 142.018 132.271 142.018 130.079 141.069C129.246 141.146 129.246 141.146 128.127 141.533C121.858 141.955 116.934 141.162 111.909 137.154C108.671 134.212 106.316 129.737 106.09 125.35C106.046 123.753 106.072 122.161 106.126 120.564Z" fill="#FBC123"/>
<path d="M70.3757 113.345C72.1047 113.528 73.8196 113.725 75.5321 114.033C75.4497 114.667 75.4497 114.667 75.3656 115.315C73.9335 128.323 77.0818 140.974 85.2003 151.287C85.6413 151.82 86.0851 152.35 86.5323 152.877C86.7335 153.12 86.9347 153.364 87.142 153.614C88.5307 155.257 90.0102 156.688 91.6887 158.033C91.8605 158.171 92.0322 158.309 92.2092 158.451C102.508 166.61 113.582 168.797 126.408 169.034C126.752 170.172 126.788 171.199 126.773 172.385C126.77 172.724 126.767 173.062 126.764 173.411C126.758 173.797 126.758 173.797 126.752 174.19C115.425 174.398 115.425 174.398 110.595 173.159C110.24 173.092 109.885 173.026 109.518 172.957C96.85 170.512 85.4564 161.622 78.2607 151.158C72.2912 142.145 69.63 131.976 69.6238 121.251C69.6196 120.869 69.6153 120.488 69.611 120.094C69.6069 117.76 69.8114 115.611 70.3757 113.345Z" fill="#FCFCFD"/>
<path d="M174.878 175.565C176.488 176.882 177.982 178.287 179.454 179.754C179.726 180.024 179.726 180.024 180.004 180.299C182.063 182.367 182.063 182.367 182.149 183.431C181.935 185.669 181.357 187.731 180.659 189.859C180.074 191.695 179.518 193.563 179.691 195.503C180.274 196.588 181.085 197.342 181.988 198.169C182.225 198.401 182.462 198.633 182.706 198.872C183.462 199.606 184.229 200.326 184.997 201.046C185.513 201.543 186.028 202.04 186.542 202.539C187.801 203.756 189.071 204.961 190.347 206.159C189.365 207.141 188.669 206.962 187.296 206.976C182.488 206.949 178.102 204.903 174.599 201.626C170.591 197.357 169.226 192.455 169.311 186.728C169.538 182.679 171.939 178.359 174.878 175.565Z" fill="#FCC122"/>
<path d="M122.047 69.9244C122.434 69.9231 122.434 69.9231 122.828 69.9217C128.611 69.9195 134.053 70.673 139.471 72.7819C139.214 74.5216 138.741 75.9667 138.096 77.5945C136.579 77.454 135.224 77.2364 133.777 76.7565C129.811 75.5452 125.84 75.4655 121.724 75.446C121.098 75.4412 121.098 75.4412 120.459 75.4363C111.036 75.4688 103.071 78.6299 95.1263 83.4383C94.5591 83.7786 93.9919 84.1189 93.4075 84.4696C92.3865 83.2217 91.3656 81.9739 90.3137 80.6883C91.6439 79.3581 92.7697 78.4143 94.3528 77.487C94.5764 77.3553 94.8 77.2236 95.0304 77.0879C99.4636 74.5248 103.926 72.6954 108.877 71.4068C109.452 71.248 109.452 71.248 110.039 71.0859C114.005 70.026 117.964 69.9381 122.047 69.9244Z" fill="#FCFCFC"/>
<path d="M152.877 148.064C153.909 148.527 154.624 149.039 155.418 149.84C155.749 150.17 155.749 150.17 156.085 150.507C156.319 150.744 156.553 150.981 156.793 151.225C157.035 151.469 157.278 151.712 157.527 151.962C158.299 152.738 159.069 153.517 159.839 154.295C160.362 154.822 160.886 155.349 161.41 155.875C162.693 157.166 163.973 158.458 165.253 159.752C164.734 160.846 164.194 161.574 163.319 162.416C163.102 162.627 162.885 162.838 162.661 163.055C162.413 163.292 162.413 163.292 162.159 163.533C161.128 163.071 160.412 162.559 159.618 161.758C159.398 161.538 159.178 161.318 158.951 161.091C158.717 160.854 158.484 160.617 158.243 160.372C158.001 160.129 157.759 159.886 157.509 159.636C156.737 158.86 155.968 158.081 155.198 157.303C154.674 156.776 154.151 156.249 153.627 155.722C152.344 154.432 151.063 153.14 149.784 151.846C150.303 150.752 150.842 150.024 151.717 149.182C151.934 148.971 152.152 148.76 152.375 148.542C152.541 148.385 152.707 148.227 152.877 148.064Z" fill="#FFFEFC"/>
<path d="M140.502 165.596C140.79 166.268 141.076 166.942 141.362 167.616C141.521 167.99 141.681 168.365 141.845 168.752C142.221 169.721 142.221 169.721 142.221 170.409C141.391 170.698 140.56 170.984 139.729 171.268C139.377 171.391 139.377 171.391 139.018 171.516C137.833 171.919 136.956 172.127 135.69 172.127C135.516 171.519 135.345 170.91 135.174 170.301C135.078 169.962 134.983 169.623 134.884 169.274C134.658 168.346 134.658 168.346 134.658 167.315C135.373 167.025 136.09 166.74 136.807 166.455C137.206 166.296 137.604 166.136 138.015 165.972C139.127 165.596 139.127 165.596 140.502 165.596Z" fill="#FAFAFA"/>
<path d="M85.5011 84.4696C85.8752 84.7754 86.2472 85.0839 86.6183 85.3934C86.9293 85.6506 86.9293 85.6506 87.2467 85.9131C87.9074 86.5321 87.9074 86.5321 89.2824 88.2509C88.148 89.4987 87.0136 90.7466 85.8448 92.0322C84.7662 91.4929 83.9513 90.993 83.0088 90.2705C82.766 90.0852 82.5232 89.9 82.273 89.7092C82.0904 89.5682 81.9078 89.4273 81.7197 89.2822C82.1973 87.805 82.8817 86.9766 83.9971 85.909C84.2781 85.6374 84.559 85.3658 84.8485 85.0859C85.1715 84.7808 85.1715 84.7808 85.5011 84.4696Z" fill="#FCFCFC"/>
<path d="M144.627 139.814C145.694 140.292 146.472 140.851 147.313 141.662C147.528 141.863 147.743 142.064 147.964 142.272C148.409 142.908 148.409 142.908 148.376 143.592C148.004 144.419 147.562 144.947 146.926 145.594C146.722 145.809 146.518 146.023 146.307 146.245C145.659 146.689 145.659 146.689 144.983 146.673C144.07 146.246 143.517 145.678 142.823 144.949C142.58 144.697 142.337 144.445 142.087 144.185C141.904 143.991 141.722 143.796 141.534 143.596C142.018 142.49 142.6 141.766 143.467 140.931C143.684 140.721 143.901 140.51 144.125 140.292C144.291 140.135 144.457 139.977 144.627 139.814Z" fill="#FFFCF9"/>
</svg>
