<svg width="80" height="80" viewBox="0 0 80 80" fill="none" xmlns="http://www.w3.org/2000/svg">
<path d="M33.7895 11.5742C37.3639 11.5742 40.9382 11.5742 44.6209 11.5742C44.6209 13.3979 44.6209 15.2215 44.6209 17.1004C44.9856 17.1733 45.3504 17.2463 45.7261 17.3214C46.0741 17.4252 46.4136 17.5323 46.7554 17.653C46.8487 17.6857 46.9419 17.7185 47.038 17.7522C48.2381 18.1871 49.5106 18.6962 50.5724 19.4128C50.6509 19.4521 50.7294 19.4914 50.8102 19.5319C51.1488 19.4025 51.3741 19.2163 51.6272 18.9611C51.698 18.8903 51.7687 18.8195 51.8417 18.7466C51.9167 18.6704 51.9918 18.5941 52.0692 18.5156C52.1471 18.4374 52.2249 18.3592 52.3052 18.2787C52.5534 18.0292 52.8009 17.7789 53.0484 17.5287C53.2167 17.3592 53.3851 17.1899 53.5535 17.0205C53.9659 16.6056 54.3778 16.1901 54.7891 15.7741C55.0968 15.9147 55.3229 16.0593 55.5613 16.2987C55.6233 16.3604 55.6853 16.422 55.7491 16.4856C55.8491 16.5867 55.8491 16.5867 55.951 16.6899C56.0222 16.7611 56.0934 16.8322 56.1668 16.9056C56.4018 17.1407 56.6359 17.3765 56.8701 17.6124C57.0329 17.7757 57.1959 17.9389 57.3588 18.1021C57.7874 18.5315 58.2153 18.9616 58.6431 19.3918C59.0798 19.8308 59.5171 20.2691 59.9544 20.7075C60.8121 21.5676 61.6692 22.4285 62.5258 23.2897C62.3771 23.6212 62.2124 23.8513 61.955 24.1067C61.8488 24.2128 61.8488 24.2128 61.7405 24.3211C61.6642 24.3962 61.588 24.4713 61.5095 24.5486C61.3922 24.6655 61.3922 24.6655 61.2725 24.7846C61.0231 25.0329 60.7728 25.2804 60.5225 25.5278C60.3531 25.6961 60.1837 25.8645 60.0144 26.0329C59.5995 26.4454 59.184 26.8572 58.768 27.2686C58.8859 27.6397 59.0023 27.9882 59.1971 28.3259C59.2566 28.4319 59.2566 28.4319 59.3173 28.5401C59.3594 28.6152 59.4015 28.6902 59.4449 28.7675C59.8383 29.4902 60.168 30.2228 60.4604 30.9918C60.4949 31.0822 60.5295 31.1725 60.5651 31.2656C60.8602 32.0625 61.0747 32.8552 61.31 33.6789C64.0455 33.7336 65.2613 33.7336 68.052 33.7894C68.052 37.3273 68.052 40.8652 68.052 44.5102C66.1919 44.5102 63.116 44.5102 61.1995 44.5102C61.163 44.802 61.1266 45.0938 61.089 45.3944C61.0167 45.7054 60.9155 46.0041 60.8127 46.3062C60.7841 46.3909 60.7555 46.4755 60.7261 46.5627C60.2419 47.9535 59.641 49.3299 58.8565 50.5787C58.7389 50.8073 58.7389 50.8073 58.8538 51.0212C59.3061 51.7939 60.0708 52.6811 60.9129 53.0157C61.2825 53.1104 61.6511 53.1666 62.0288 53.2182C63.7338 53.4536 65.188 54.4463 66.3043 55.7353C67.6278 57.489 68.1403 59.463 67.9415 61.6414C67.788 62.6965 67.436 63.6791 66.9468 64.6255C66.5681 64.4643 66.3438 64.2598 66.0683 63.9564C65.9837 63.8643 65.8991 63.7721 65.8119 63.6772C65.6755 63.5281 65.6754 63.5281 65.5363 63.3761C65.2891 63.1139 65.0413 62.8523 64.7932 62.5909C64.5346 62.3178 64.2785 62.043 64.0267 61.7636C63.0255 60.5345 63.0255 60.5345 61.6868 59.8212C61.0969 59.8456 60.6104 60.04 60.0943 60.3151C60.0593 60.4285 60.0243 60.5419 59.9883 60.6587C59.9049 60.9291 59.8215 61.1996 59.7381 61.47C59.6511 61.8673 59.6441 62.0348 59.7627 62.415C59.9516 62.6677 59.9516 62.6677 60.2014 62.9039C60.2943 62.9968 60.3872 63.0897 60.483 63.1854C60.5839 63.2841 60.6849 63.3828 60.7889 63.4844C60.8918 63.5867 60.9947 63.6889 61.1007 63.7943C61.3735 64.0655 61.6477 64.3353 61.9221 64.6048C62.2022 64.8804 62.4811 65.1572 62.76 65.4339C63.307 65.9762 63.8554 66.5171 64.4047 67.057C64.1609 67.3112 63.9837 67.4468 63.6492 67.5622C63.568 67.5905 63.4867 67.6189 63.4031 67.6481C63.2766 67.6906 63.2766 67.6906 63.1475 67.734C63.064 67.7632 62.9805 67.7924 62.8945 67.8225C61.0138 68.4702 58.8869 68.335 57.0682 67.5613C55.1261 66.6074 53.7129 64.8785 53.013 62.8451C52.8897 62.3926 52.7942 61.9899 52.8144 61.5188C52.8384 60.8623 52.7559 60.466 52.3295 59.9624C51.7335 59.3011 51.7335 59.3011 51.0313 58.7678C50.5849 58.8188 50.2022 59.0669 49.8086 59.272C46.0177 61.1993 46.0177 61.1993 44.6209 61.1993C44.6209 63.0229 44.6762 66.2834 44.6762 68.1623C41.1018 68.1623 37.4722 68.1623 33.7895 68.1623C33.7895 66.3386 33.7895 63.0782 33.7895 61.1993C33.4248 61.1263 33.0601 61.0534 32.6843 60.9782C32.3408 60.8769 32.0061 60.7721 31.6689 60.6536C31.5301 60.605 31.5301 60.605 31.3885 60.5555C30.1015 60.0888 28.7424 59.5292 27.6002 58.7678C27.2255 58.8025 27.0458 58.9516 26.7903 59.2173C26.6862 59.324 26.6862 59.324 26.5801 59.4329C26.5064 59.51 26.4327 59.5872 26.3568 59.6666C26.1991 59.828 26.0414 59.9893 25.8836 60.1506C25.6357 60.4061 25.3883 60.6619 25.1415 60.9184C24.903 61.1655 24.663 61.4108 24.4226 61.6561C24.3121 61.7724 24.3121 61.7724 24.1993 61.8912C24.13 61.9616 24.0606 62.0321 23.9892 62.1047C23.8984 62.1988 23.8984 62.1988 23.8058 62.2948C23.6213 62.4151 23.6213 62.415 23.4094 62.3853C23.0125 62.2461 22.7489 61.922 22.4577 61.6294C22.3863 61.5589 22.3149 61.4885 22.2413 61.4159C22.0055 61.1826 21.771 60.9482 21.5365 60.7136C21.3733 60.5512 21.2102 60.3889 21.047 60.2266C20.7051 59.8863 20.364 59.5453 20.0232 59.2039C19.5857 58.7657 19.1461 58.3295 18.706 57.8938C18.3685 57.5592 18.0323 57.2234 17.6965 56.8872C17.5349 56.7258 17.3729 56.5648 17.2104 56.4043C16.9838 56.1801 16.7591 55.9543 16.5347 55.728C16.4668 55.6616 16.3989 55.5951 16.3289 55.5267C16.1453 55.3393 16.1453 55.3393 15.8847 55.01C15.9336 54.6285 16.0721 54.4503 16.3425 54.1829C16.4521 54.0734 16.4521 54.0734 16.5638 53.9617C16.6826 53.8455 16.6826 53.8455 16.8038 53.7269C16.8846 53.6465 16.9654 53.5662 17.0487 53.4834C17.3069 53.227 17.5663 52.9718 17.8257 52.7166C18.001 52.543 18.1762 52.3693 18.3514 52.1955C18.7809 51.7697 19.2113 51.3448 19.6425 50.9206C19.5846 50.814 19.5267 50.7074 19.467 50.5975C19.0305 49.7895 18.6062 48.9829 18.2471 48.1368C18.2061 48.0408 18.1651 47.9448 18.1228 47.8459C17.1004 45.3906 17.1004 45.3906 17.1004 44.5102C15.2768 44.5102 13.4531 44.5102 11.5742 44.5102C11.5742 40.9724 11.5742 37.4345 11.5742 33.7894C13.3979 33.7894 15.2215 33.7894 17.1004 33.7894C17.1734 33.4247 17.2463 33.06 17.3215 32.6842C17.4228 32.3407 17.5276 32.006 17.6461 31.6688C17.6785 31.5763 17.7109 31.4837 17.7442 31.3884C18.211 30.1014 18.7705 28.7423 19.5319 27.6001C19.4972 27.2254 19.3481 27.0457 19.0825 26.7902C19.0113 26.7209 18.9401 26.6515 18.8668 26.5801C18.7897 26.5064 18.7126 26.4327 18.6331 26.3567C18.4717 26.199 18.3104 26.0413 18.1491 25.8836C17.8936 25.6357 17.6378 25.3883 17.3813 25.1414C17.1342 24.903 16.8889 24.6629 16.6436 24.4226C16.5661 24.3489 16.4885 24.2752 16.4085 24.1993C16.3381 24.1299 16.2676 24.0606 16.195 23.9891C16.1323 23.9286 16.0695 23.8681 16.0049 23.8057C15.8847 23.6213 15.8847 23.6213 15.914 23.4096C16.0039 23.1543 16.0988 23.0346 16.2896 22.8449C16.3521 22.782 16.4145 22.7191 16.4789 22.6542C16.5477 22.5866 16.6166 22.5189 16.6875 22.4492C16.7597 22.3769 16.832 22.3047 16.9064 22.2302C17.1454 21.9914 17.3856 21.7538 17.6258 21.5162C17.7918 21.3508 17.9576 21.1854 18.1234 21.02C18.5601 20.5846 18.9977 20.1503 19.4355 19.7161C19.8821 19.2729 20.3277 18.8288 20.7734 18.3848C21.6481 17.5136 22.5239 16.6436 23.4003 15.7741C24.2203 16.4678 24.2203 16.4678 24.5371 16.7984C24.5972 16.8606 24.6573 16.9229 24.7193 16.9871C24.7812 17.0517 24.8432 17.1163 24.907 17.1829C25.043 17.3223 25.179 17.4617 25.315 17.601C25.5266 17.8181 25.7376 18.0356 25.9473 18.2545C26.1516 18.4675 26.358 18.6784 26.5649 18.8891C26.6273 18.9552 26.6897 19.0214 26.754 19.0896C26.9503 19.2949 26.9503 19.2949 27.2686 19.5319C27.6515 19.5303 27.9244 19.3873 28.253 19.1999C28.3341 19.1549 28.4151 19.1099 28.4986 19.0635C28.5851 19.0152 28.6716 18.9669 28.7607 18.9171C30.1875 18.1433 32.1295 17.1004 33.7895 17.1004C33.7895 15.2768 33.7895 13.4531 33.7895 11.5742ZM32.6446 33.0132C31.3411 34.6209 30.3927 36.4434 30.2528 38.542C30.2471 38.6267 30.2414 38.7115 30.2355 38.7988C30.1491 41.2072 31.0629 43.396 32.6083 45.2079C34.2036 46.8915 36.3822 47.9324 38.701 48.0694C39.7133 48.0828 40.6603 47.9974 41.6368 47.7154C41.7097 47.6425 41.7826 47.5695 41.8578 47.4944C41.6747 47.2695 41.5825 47.1705 41.2899 47.1304C41.1996 47.1343 41.1094 47.1381 41.0163 47.1421C40.8653 47.1463 40.8653 47.1464 40.7112 47.1507C40.604 47.1547 40.4969 47.1587 40.3864 47.1628C38.2844 47.1955 36.3527 46.6411 34.7843 45.1734C34.7019 45.0969 34.6196 45.0204 34.5347 44.9415C33.5103 43.9015 32.8539 42.5112 32.5738 41.084C32.5362 40.8925 32.5362 40.8925 32.4978 40.6972C32.3552 39.0998 32.6195 37.6343 33.2382 36.1631C33.3611 35.9043 33.3611 35.9043 33.3475 35.6684C34.007 36.0503 34.4689 36.5778 34.9803 37.1362C35.1712 37.3386 35.3625 37.5406 35.554 37.7424C35.8544 38.0591 36.1526 38.3768 36.4457 38.7002C37.4122 39.8817 37.4122 39.8817 38.7001 40.5837C39.3499 40.562 39.9582 40.331 40.421 39.8682C40.7235 39.3923 40.918 38.951 40.9263 38.3801C40.6908 37.3365 39.4071 36.4281 38.6391 35.7241C38.3389 35.4466 38.0449 35.1626 37.7503 34.8791C37.1728 34.3252 36.5887 33.7789 36 33.2368C36.3809 32.9829 36.7758 32.8351 37.202 32.6773C37.2802 32.6476 37.3584 32.6179 37.439 32.5873C37.5155 32.5587 37.592 32.5302 37.6708 32.5007C37.7399 32.4749 37.809 32.4491 37.8802 32.4226C39.3986 31.9396 41.3943 32.0802 42.8525 32.6842C42.9664 32.7311 43.0802 32.778 43.1975 32.8263C45.0671 33.6813 46.2623 35.1335 47.0524 36.9946C47.5923 38.5608 47.5484 40.1175 47.384 41.7471C47.4934 41.7471 47.6028 41.7471 47.7156 41.7471C48.3605 39.4286 48.1706 37.0421 47.0524 34.8947C46.1744 33.4114 45.0324 32.1938 43.5157 31.3579C43.4275 31.3072 43.3393 31.2565 43.2484 31.2042C39.8193 29.3471 35.289 30.1685 32.6446 33.0132Z" fill="#4D4D4C"/>
<path d="M35.4474 13.2321C36.6875 13.2321 37.9276 13.2321 39.2052 13.2321C39.2052 16.2593 39.2052 19.2866 39.2052 22.4055C39.5335 22.4055 39.8617 22.4055 40.1999 22.4055C40.6658 22.448 41.1262 22.5202 41.5884 22.592C41.7143 22.6114 41.8403 22.6307 41.97 22.6506C42.9625 22.8116 43.8994 23.0528 44.8419 23.4002C44.7594 23.9596 44.6074 24.4242 44.3999 24.9476C43.9121 24.9024 43.4766 24.8325 43.0114 24.6782C41.7873 24.2939 40.4738 24.2645 39.2052 24.1739C39.2052 25.6328 39.2052 27.0917 39.2052 28.5948C38.6217 28.6313 38.0381 28.6678 37.4368 28.7054C34.4749 29.3742 31.9092 30.8608 30.2528 33.4579C28.82 35.8548 28.3263 38.6405 28.8363 41.397C29.2653 43.0619 30.0159 44.6384 31.137 45.947C31.2119 46.0379 31.2868 46.1288 31.3641 46.2225C31.9538 46.913 32.5906 47.4377 33.3475 47.9365C33.4348 47.9954 33.5221 48.0544 33.6121 48.1152C35.3515 49.2287 37.1647 49.5591 39.2052 49.7048C39.2052 51.2367 39.2052 52.7686 39.2052 54.3468C39.6794 54.3468 40.1535 54.3468 40.642 54.3468C40.7401 54.7392 40.7642 55.0256 40.7595 55.4244C40.7585 55.5333 40.7575 55.6421 40.7564 55.7543C40.7552 55.8369 40.7539 55.9195 40.7526 56.0047C40.2107 56.113 39.7789 56.1152 39.2052 56.1152C39.2052 59.0695 39.2052 63.4606 39.2052 66.5044C37.9651 66.5044 36.7251 66.5044 35.4474 66.5044C35.4474 64.7537 35.4474 61.5662 35.4474 59.7625C35.0827 59.726 34.7179 59.6895 34.3422 59.652C33.972 59.5688 33.6141 59.4809 33.2507 59.3757C33.1011 59.3323 33.1011 59.3323 32.9484 59.2881C31.1435 58.7425 29.0415 57.893 27.5726 56.6842C27.3879 56.533 27.3879 56.533 27.1688 56.5842C26.9009 56.6809 26.7719 56.7929 26.5723 56.9949C26.5038 57.0635 26.4352 57.1321 26.3646 57.2027C26.2919 57.2771 26.2193 57.3515 26.1444 57.4281C26.0313 57.5419 26.0313 57.5419 25.9158 57.6581C25.6752 57.9006 25.4357 58.1442 25.1963 58.3878C25.0333 58.5525 24.8703 58.717 24.7071 58.8815C24.3075 59.2848 23.9089 59.6892 23.5108 60.0941C22.5481 59.2912 21.6725 58.3992 20.7839 57.5163C20.5745 57.3089 20.3648 57.1019 20.1542 56.8957C19.8499 56.5974 19.5474 56.2974 19.2453 55.9969C19.1504 55.9046 19.0556 55.8122 18.9579 55.7171C18.8718 55.6308 18.7858 55.5444 18.6972 55.4555C18.5825 55.3421 18.5825 55.3421 18.4655 55.2265C18.3162 55.01 18.3162 55.01 18.3277 54.7828C18.4386 54.5421 18.5543 54.4036 18.7454 54.2203C18.8121 54.1554 18.8788 54.0905 18.9476 54.0236C19.0199 53.9547 19.0922 53.8859 19.1667 53.8149C19.318 53.6673 19.4692 53.5197 19.6205 53.372C19.8599 53.1401 20.0998 52.9087 20.3402 52.6779C20.5719 52.4548 20.8019 52.2301 21.0318 52.0051C21.1045 51.9363 21.1773 51.8674 21.2523 51.7965C21.3513 51.6991 21.3513 51.6991 21.4524 51.5997C21.5112 51.5431 21.57 51.4865 21.6306 51.4282C21.7677 51.2541 21.7677 51.2541 21.7122 51.0226C21.624 50.7892 21.5167 50.5903 21.3862 50.3775C21.3363 50.2944 21.2863 50.2114 21.2348 50.1258C21.1812 50.0371 21.1276 49.9483 21.0724 49.8568C19.8894 47.8482 18.5372 45.2272 18.5372 42.8524C16.7865 42.8524 15.0358 42.8524 13.2321 42.8524C13.2321 40.4087 13.2321 37.965 13.2321 35.4473C14.9828 35.4473 16.7335 35.4473 18.5372 35.4473C18.5737 35.0826 18.6102 34.7178 18.6478 34.3421C18.7357 33.983 18.8281 33.637 18.9379 33.2852C18.9821 33.1419 18.9821 33.1419 19.0271 32.9957C19.5955 31.1961 20.3359 29.2364 21.5067 27.7391C21.765 27.4155 21.765 27.4155 21.7444 27.1257C21.579 26.6857 21.2854 26.4232 20.9519 26.0994C20.8839 26.0318 20.8159 25.9641 20.7458 25.8944C20.6022 25.752 20.4581 25.6101 20.3135 25.4687C20.0917 25.2517 19.8714 25.0333 19.6513 24.8146C19.5116 24.6764 19.3718 24.5382 19.2319 24.4001C19.1657 24.3347 19.0995 24.2694 19.0313 24.202C18.7035 23.872 18.7035 23.872 18.3162 23.6213C18.3766 23.1806 18.5856 22.9801 18.8958 22.6724C19.0452 22.5231 19.0452 22.5231 19.1975 22.3708C19.3068 22.2632 19.4161 22.1556 19.5255 22.0481C19.6369 21.9372 19.7482 21.8264 19.8595 21.7154C20.1522 21.424 20.4459 21.1335 20.7399 20.8433C21.0398 20.5468 21.3387 20.2493 21.6377 19.952C22.2243 19.3689 22.812 18.787 23.4003 18.2056C23.9163 18.6366 24.4051 19.0845 24.8781 19.5621C24.9408 19.625 25.0035 19.6878 25.0681 19.7526C25.2654 19.9505 25.4622 20.1487 25.6591 20.347C25.794 20.4825 25.9289 20.6179 26.0639 20.7533C26.3921 21.0827 26.7199 21.4124 27.0476 21.7424C27.5277 21.5571 27.9638 21.3225 28.4084 21.0654C30.6832 19.774 32.7304 19.0473 35.3369 18.4267C35.3916 15.8553 35.3916 15.8553 35.4474 13.2321Z" fill="#88878F"/>
<path d="M39.2052 13.2321C40.4088 13.2321 41.6124 13.2321 42.8525 13.2321C42.8525 14.9463 42.8525 16.6605 42.8525 18.4267C43.3996 18.5361 43.9467 18.6455 44.5104 18.7582C44.945 18.8813 45.3685 19.0072 45.7952 19.152C45.9075 19.1899 46.0197 19.2278 46.1354 19.2669C47.7769 19.8383 49.3205 20.5661 50.7312 21.5852C50.8303 21.6371 50.9293 21.689 51.0313 21.7424C51.3616 21.6209 51.5804 21.4408 51.8244 21.1919C51.9229 21.0923 51.9229 21.0923 52.0233 20.9908C52.0929 20.9194 52.1624 20.848 52.2341 20.7744C52.3066 20.7012 52.379 20.6279 52.4536 20.5524C52.6847 20.3187 52.9149 20.0843 53.1451 19.8497C53.4487 19.5402 53.753 19.2315 54.0578 18.9232C54.1628 18.8154 54.1628 18.8154 54.2699 18.7055C54.4388 18.5347 54.6135 18.3695 54.7891 18.2056C54.8621 18.2056 54.935 18.2056 55.0102 18.2056C55.1932 18.3952 55.1932 18.3952 55.397 18.6408C55.6611 18.9705 55.6611 18.9705 56.0049 19.2003C56.0049 19.2733 56.0049 19.3462 56.0049 19.4214C56.1143 19.4579 56.2237 19.4943 56.3364 19.5319C56.5782 19.7461 56.5782 19.7461 56.7785 19.974C56.7785 20.047 56.7785 20.1199 56.7785 20.1951C56.9244 20.268 57.0703 20.3409 57.2206 20.4161C57.2206 20.489 57.2206 20.562 57.2206 20.6371C57.3665 20.7101 57.5124 20.783 57.6627 20.8582C57.6627 20.9311 57.6627 21.0041 57.6627 21.0792C57.7334 21.1089 57.8041 21.1385 57.8769 21.169C58.1048 21.3003 58.1048 21.3003 58.2154 21.6319C58.3248 21.6683 58.4342 21.7048 58.5469 21.7424C58.5469 21.8153 58.5469 21.8883 58.5469 21.9634C58.6079 21.9882 58.6689 22.013 58.7317 22.0386C59.0677 22.2291 59.3001 22.4746 59.5693 22.7509C59.6679 22.8515 59.7665 22.9521 59.868 23.0557C59.98 23.1715 59.98 23.1715 60.0943 23.2897C59.9491 23.6108 59.7936 23.8386 59.5438 24.0864C59.4774 24.1527 59.411 24.2191 59.3426 24.2874C59.2356 24.3928 59.2356 24.3928 59.1263 24.5003C59.053 24.5733 58.9798 24.6462 58.9042 24.7214C58.6705 24.9539 58.436 25.1856 58.2015 25.4173C58.0428 25.575 57.884 25.7327 57.7253 25.8905C57.3366 26.2767 56.9473 26.6623 56.5575 27.0475C56.7214 27.473 56.915 27.8263 57.1654 28.208C58.4191 30.1976 59.8732 33.0359 59.8732 35.4473C61.5874 35.4473 64.628 35.4473 66.3941 35.4473C66.3941 37.891 66.3941 40.5004 66.3941 43.0182C64.6799 43.0182 61.6394 42.8524 59.8732 42.8524C59.7638 43.3995 59.6544 43.9466 59.5416 44.5102C58.958 46.7789 57.9471 48.962 56.668 50.9206C56.3603 50.78 56.1343 50.6354 55.8958 50.396C55.8338 50.3344 55.7719 50.2727 55.708 50.2091C55.6414 50.1417 55.5748 50.0743 55.5061 50.0048C55.4349 49.9337 55.3637 49.8625 55.2903 49.7891C55.0554 49.554 54.8212 49.3182 54.5871 49.0823C54.4242 48.919 54.2613 48.7558 54.0983 48.5926C53.6697 48.1632 53.2418 47.7331 52.8141 47.3029C52.3774 46.8639 51.94 46.4256 51.5027 45.9872C50.645 45.1271 49.7879 44.2663 48.9313 43.405C48.9655 43.2802 48.9655 43.2802 49.0003 43.1529C49.0451 42.989 49.0451 42.989 49.0908 42.8218C49.1204 42.7135 49.15 42.6052 49.1805 42.4937C49.4353 41.5524 49.6532 40.6229 49.705 39.6472C49.7108 39.5599 49.7167 39.4725 49.7227 39.3825C49.8172 36.7078 48.8449 34.1072 47.0524 32.1316C46.963 32.0319 46.8735 31.9321 46.7813 31.8294C44.7188 29.6463 42.1504 28.9049 39.2052 28.5948C39.2052 27.1359 39.2052 25.677 39.2052 24.1739C41.0072 24.1739 41.0073 24.1739 41.8025 24.3121C41.8902 24.3265 41.9779 24.3409 42.0682 24.3558C42.8642 24.4937 43.6311 24.7005 44.3999 24.9476C44.4529 24.7726 44.5059 24.5976 44.5587 24.4226C44.5882 24.3251 44.6177 24.2277 44.6481 24.1273C44.7187 23.8859 44.7831 23.6447 44.8419 23.4002C44.7434 23.3821 44.7434 23.3821 44.6429 23.3635C44.1548 23.2702 43.6803 23.1651 43.2048 23.0203C41.9141 22.6566 40.5334 22.5531 39.2052 22.4055C39.2052 19.3783 39.2052 16.351 39.2052 13.2321Z" fill="#57565C"/>
<path d="M39.0947 33.7894C41.0213 33.6833 42.5718 34.0586 44.0683 35.3368C45.1536 36.4253 45.8581 37.7924 45.8674 39.3478C45.8664 39.4261 45.8654 39.5044 45.8643 39.585C45.8635 39.6674 45.8628 39.7499 45.862 39.8348C45.8357 41.2345 45.3962 42.3213 44.5104 43.405C44.6573 43.733 44.8175 43.9582 45.0768 44.2063C45.1817 44.3066 45.2865 44.4069 45.3946 44.5102C45.7761 44.3526 45.9584 44.1679 46.1959 43.8333C46.2822 43.7132 46.2822 43.7132 46.3703 43.5906C46.413 43.5294 46.4558 43.4681 46.4998 43.405C46.8826 43.5692 47.1263 43.7852 47.4171 44.0814C47.5113 44.1767 47.6055 44.272 47.7025 44.3702C47.806 44.476 47.9095 44.5819 48.0129 44.6878C48.1226 44.7991 48.2323 44.9104 48.342 45.0216C48.5781 45.261 48.8139 45.5007 49.0494 45.7406C49.422 46.1199 49.7959 46.4979 50.1701 46.8757C50.2982 47.0051 50.4264 47.1345 50.5545 47.2639C50.6187 47.3287 50.6828 47.3935 50.7489 47.4602C51.6197 48.3397 52.4894 49.2202 53.3564 50.1034C53.9415 50.6994 54.5283 51.2937 55.1172 51.8859C55.4287 52.1993 55.7392 52.5136 56.0476 52.8301C56.3376 53.1277 56.6298 53.4229 56.9239 53.7165C57.0314 53.8246 57.138 53.9335 57.2436 54.0433C57.7714 54.6363 57.7714 54.6363 58.471 54.9376C58.7385 54.9127 58.7385 54.9127 59.0995 54.7889C61.1543 54.6561 62.6077 54.9457 64.308 56.1359C65.2162 56.9412 66.01 58.2163 66.1731 59.4309C66.1855 59.7926 66.1835 60.1536 66.18 60.5154C66.1795 60.6131 66.179 60.7108 66.1785 60.8114C66.1772 61.0512 66.1752 61.291 66.1731 61.5309C65.6574 61.1059 65.1912 60.6605 64.7419 60.1666C64.6197 60.0366 64.4973 59.9068 64.3747 59.7772C64.1846 59.5762 63.9961 59.3745 63.8111 59.1687C63.118 58.3494 63.118 58.3494 62.1725 57.9474C61.8257 58.0015 61.5273 58.0909 61.1995 58.2152C61.0286 58.2622 60.8575 58.3085 60.6862 58.3537C60.5324 58.4011 60.3788 58.4493 60.2255 58.4984C59.6646 58.676 59.1322 58.8102 58.5469 58.8783C58.5401 59.0037 58.5332 59.129 58.5262 59.2582C58.4608 59.8751 58.2764 60.4496 58.0845 61.0369C57.8977 61.629 57.7176 62.232 57.7733 62.8571C57.9609 63.2061 58.2217 63.4484 58.512 63.7146C58.5882 63.789 58.6644 63.8635 58.7429 63.9403C58.9857 64.1763 59.2324 64.4078 59.4795 64.6393C59.6453 64.7991 59.8109 64.9591 59.9762 65.1194C60.3809 65.5107 60.7891 65.898 61.1995 66.2834C60.8837 66.5992 60.6598 66.5414 60.2186 66.5459C58.6727 66.5372 57.2624 65.8796 56.1361 64.8258C54.8477 63.4532 54.4088 61.8771 54.4359 60.0358C54.5172 58.5914 55.4309 57.3119 56.3364 56.2257C56.0082 55.8975 55.6799 55.5692 55.3417 55.231C54.7078 55.6536 54.2435 56.3221 53.9049 56.9994C53.5201 56.8347 53.2756 56.6163 52.9834 56.3188C52.8883 56.2226 52.7932 56.1263 52.6952 56.0272C52.5907 55.9203 52.4862 55.8134 52.3816 55.7065C52.2709 55.5941 52.1601 55.4817 52.0493 55.3694C51.8109 55.1276 51.5728 54.8856 51.3348 54.6433C50.9585 54.2603 50.5809 53.8786 50.203 53.4971C50.0736 53.3664 49.9442 53.2358 49.8148 53.1051C49.7176 53.0069 49.7176 53.0069 49.6185 52.9068C48.739 52.0187 47.8607 51.1295 46.985 50.2377C46.3941 49.6358 45.8014 49.0358 45.2067 48.4377C44.8921 48.1212 44.5785 47.8038 44.2671 47.4842C43.9742 47.1837 43.6791 46.8856 43.382 46.5891C43.2735 46.48 43.1659 46.37 43.0591 46.2591C42.5271 45.661 42.5271 45.661 41.8222 45.3556C41.5546 45.3803 41.5546 45.3803 41.1947 45.5049C39.179 45.6406 37.5961 45.3857 35.9802 44.0971C34.9391 43.1512 34.1819 41.7122 34.1093 40.3018C34.0952 39.7882 34.1035 39.2764 34.1211 38.763C34.1941 38.763 34.267 38.763 34.3422 38.763C34.4864 38.9076 34.4864 38.9076 34.6599 39.1183C35.1719 39.7192 35.7134 40.2891 36.265 40.8533C36.384 40.9758 36.502 41.0992 36.6192 41.2234C36.7907 41.4049 36.9648 41.5833 37.1398 41.7614C37.1914 41.8172 37.243 41.873 37.2962 41.9305C37.4652 42.1079 37.4652 42.1079 37.7684 42.2998C38.1589 42.3014 38.1589 42.3014 38.5421 42.1892C38.6485 42.1656 38.755 42.1419 38.8646 42.1176C38.9682 42.0911 39.0718 42.0646 39.1785 42.0373C39.2931 42.0082 39.4078 41.9791 39.526 41.9492C39.7023 41.9039 39.7023 41.9039 39.8822 41.8577C40.1173 41.7977 40.3525 41.7378 40.5876 41.6781C40.6909 41.6516 40.7943 41.6251 40.9007 41.5978C41.1818 41.5292 41.4632 41.4701 41.7473 41.4156C41.7616 41.3186 41.7616 41.3186 41.7762 41.2196C41.9048 40.4338 42.1041 39.6782 42.3259 38.9146C42.3494 38.8331 42.3728 38.7516 42.397 38.6676C42.4182 38.5955 42.4394 38.5233 42.4612 38.449C42.4908 38.3309 42.4908 38.3309 42.5209 38.2104C42.5575 38.1087 42.594 38.007 42.6316 37.9022C42.6314 37.4921 42.5844 37.4431 42.3193 37.1508C42.171 37.0041 42.0206 36.8595 41.8686 36.7166C41.7506 36.601 41.7506 36.601 41.6302 36.4831C41.3786 36.2373 41.1244 35.9942 40.87 35.7512C40.6164 35.5062 40.3634 35.2607 40.1109 35.0146C39.9536 34.8616 39.7956 34.7093 39.6368 34.5578C39.5656 34.4891 39.4944 34.4205 39.4211 34.3497C39.358 34.2894 39.2948 34.2291 39.2297 34.1669C39.0947 34.0105 39.0947 34.0105 39.0947 33.7894Z" fill="#FDA611"/>
<path d="M43.2875 48.9611C43.5413 49.0508 43.6612 49.1463 43.8499 49.3361C43.9443 49.4298 43.9443 49.4298 44.0406 49.5254C44.1421 49.6287 44.1421 49.6287 44.2456 49.734C44.3179 49.8062 44.3902 49.8785 44.4647 49.9529C44.7035 50.192 44.9411 50.4321 45.1787 50.6724C45.344 50.8383 45.5094 51.0042 45.6749 51.1699C46.1102 51.6066 46.5446 52.0442 46.9787 52.482C47.4219 52.9286 47.866 53.3742 48.3101 53.8199C49.1812 54.6946 50.0513 55.5704 50.9208 56.4468C48.9195 58.4799 45.6466 59.2537 42.963 59.873C42.9266 61.5872 43.0006 64.7382 42.963 66.5044C41.7594 66.5044 40.4453 66.5044 39.2052 66.5044C39.2052 63.5501 39.2052 59.159 39.2052 56.1152C39.7158 56.0787 40.2265 56.0423 40.7526 56.0047C40.6979 55.184 40.6979 55.184 40.642 54.3468C40.1679 54.3468 39.6937 54.3468 39.2052 54.3468C39.2052 52.815 39.2052 51.2831 39.2052 49.7048C40.19 49.5954 40.19 49.5954 41.1947 49.4838C41.6734 49.3676 42.7574 48.8869 43.2875 48.9611Z" fill="#57565C"/>
<path d="M34.1211 38.763C34.1941 38.763 34.267 38.763 34.3422 38.763C34.4864 38.9076 34.4864 38.9076 34.6599 39.1183C35.1719 39.7192 35.7134 40.2891 36.265 40.8533C36.384 40.9758 36.502 41.0992 36.6192 41.2234C36.7907 41.4049 36.9648 41.5833 37.1398 41.7614C37.1914 41.8172 37.243 41.873 37.2962 41.9305C37.4652 42.1079 37.4652 42.1079 37.7684 42.2998C38.1589 42.3014 38.1589 42.3014 38.5421 42.1892C38.6485 42.1656 38.755 42.1419 38.8646 42.1176C38.9682 42.0911 39.0718 42.0646 39.1785 42.0373C39.3505 41.9937 39.3505 41.9937 39.526 41.9492C39.6435 41.919 39.7611 41.8888 39.8822 41.8577C40.1173 41.7977 40.3525 41.7378 40.5876 41.6781C40.6909 41.6516 40.7943 41.6251 40.9007 41.5978C40.9977 41.5741 41.0947 41.5505 41.1947 41.5261C41.3344 41.4804 41.3344 41.4804 41.477 41.4337C41.7473 41.4156 41.7473 41.4156 42.0007 41.5919C42.0854 41.6795 42.1702 41.767 42.2576 41.8572C42.352 41.9533 42.4465 42.0494 42.5438 42.1484C42.6898 42.302 42.6898 42.302 42.8387 42.4586C42.9352 42.5572 43.0316 42.6557 43.131 42.7572C43.6248 43.2647 44.1016 43.7833 44.564 44.3194C44.7911 44.5783 45.0318 44.8213 45.2771 45.0629C45.3625 45.1472 45.4478 45.2315 45.5357 45.3184C45.5986 45.38 45.6614 45.4415 45.7261 45.5049C46.0423 45.3547 46.2632 45.2126 46.4998 44.9523C46.8429 45.106 47.0928 45.2856 47.3633 45.5464C47.4669 45.6434 47.4669 45.6434 47.5727 45.7424C47.7156 45.947 47.7156 45.947 47.71 46.1586C47.605 46.3891 47.605 46.3891 47.163 46.9418C47.5277 47.343 47.8924 47.7442 48.2682 48.1575C48.7315 48.0417 48.8447 47.9456 49.1524 47.6049C49.4839 47.7536 49.7139 47.9183 49.9693 48.1757C50.0755 48.2819 50.0755 48.2819 50.1838 48.3902C50.2589 48.4664 50.334 48.5427 50.4113 48.6212C50.4892 48.6994 50.5671 48.7776 50.6473 48.8581C50.8956 49.1076 51.143 49.3579 51.3905 49.6081C51.5588 49.7776 51.7272 49.9469 51.8956 50.1163C52.3081 50.5312 52.7199 50.9467 53.1313 51.3627C52.9335 51.7849 52.9335 51.7849 52.7237 51.9637C52.5482 52.1318 52.5482 52.1318 52.5977 52.3939C52.7085 52.7514 52.8548 52.904 53.1235 53.1626C53.2114 53.2486 53.2993 53.3345 53.3899 53.4231C53.4823 53.5114 53.5748 53.5997 53.6701 53.6906C53.8519 53.8666 54.0335 54.0429 54.2149 54.2195C54.3363 54.3357 54.3363 54.3357 54.4601 54.4544C54.6669 54.6664 54.8464 54.8737 55.0102 55.1205C54.996 55.5512 54.7086 55.8516 54.4575 56.1843C54.1556 56.576 54.1556 56.576 53.9049 56.9994C53.5201 56.8347 53.2756 56.6163 52.9834 56.3188C52.8883 56.2226 52.7932 56.1263 52.6952 56.0272C52.5907 55.9203 52.4862 55.8134 52.3816 55.7065C52.2709 55.5941 52.1601 55.4817 52.0493 55.3694C51.8109 55.1276 51.5728 54.8856 51.3348 54.6433C50.9585 54.2603 50.5809 53.8786 50.203 53.4971C50.0736 53.3664 49.9442 53.2358 49.8148 53.1051C49.7176 53.0069 49.7176 53.0069 49.6185 52.9068C48.739 52.0187 47.8607 51.1295 46.985 50.2377C46.3941 49.6358 45.8014 49.0358 45.2067 48.4377C44.8921 48.1212 44.5785 47.8038 44.2671 47.4842C43.9742 47.1837 43.6791 46.8856 43.382 46.5891C43.2735 46.48 43.1659 46.37 43.0591 46.2591C42.5271 45.661 42.5271 45.661 41.8222 45.3556C41.5546 45.3803 41.5546 45.3803 41.1947 45.5049C39.179 45.6406 37.5961 45.3857 35.9802 44.0971C34.9391 43.1512 34.1819 41.7122 34.1093 40.3018C34.0952 39.7882 34.1035 39.2764 34.1211 38.763Z" fill="#FBC123"/>
<path d="M22.6266 36.442C23.1825 36.5008 23.7339 36.5642 24.2845 36.6631C24.258 36.8672 24.258 36.8672 24.2309 37.0754C23.7705 41.2576 24.7827 45.3254 27.393 48.6411C27.5348 48.8123 27.6775 48.9827 27.8212 49.1522C27.8859 49.2304 27.9506 49.3087 28.0173 49.3892C28.4638 49.9176 28.9394 50.3777 29.4791 50.8101C29.5343 50.8544 29.5896 50.8987 29.6465 50.9443C32.9577 53.5677 36.5182 54.2707 40.642 54.3468C40.7527 54.7127 40.764 55.0432 40.7595 55.4244C40.7585 55.5333 40.7575 55.6421 40.7564 55.7543C40.7545 55.8782 40.7545 55.8782 40.7526 56.0047C37.1108 56.0716 37.1108 56.0716 35.5579 55.6731C35.4437 55.6517 35.3294 55.6304 35.2117 55.6084C31.1386 54.8223 27.4753 51.9638 25.1618 48.5996C23.2425 45.7018 22.3868 42.432 22.3848 38.9841C22.3835 38.8612 22.3821 38.7384 22.3807 38.6119C22.3794 37.8616 22.4452 37.1707 22.6266 36.442Z" fill="#FCFCFD"/>
<path d="M56.2259 56.4468C56.7435 56.8703 57.2239 57.3221 57.6973 57.7938C57.7847 57.8805 57.7847 57.8805 57.874 57.969C58.5361 58.6336 58.5361 58.6336 58.5638 58.9759C58.4948 59.6954 58.3092 60.3584 58.0845 61.0426C57.8967 61.6329 57.7177 62.2334 57.7733 62.8571C57.9609 63.2061 58.2217 63.4484 58.512 63.7146C58.5882 63.789 58.6644 63.8635 58.7429 63.9403C58.9857 64.1763 59.2324 64.4078 59.4795 64.6393C59.6453 64.7991 59.8109 64.9591 59.9762 65.1194C60.3809 65.5107 60.7891 65.898 61.1995 66.2834C60.8837 66.5992 60.6598 66.5414 60.2186 66.5459C58.6727 66.5372 57.2624 65.8796 56.1361 64.8258C54.8477 63.4532 54.4088 61.8771 54.4359 60.0358C54.5092 58.7342 55.2809 57.3452 56.2259 56.4468Z" fill="#FCC122"/>
<path d="M39.2398 22.4815C39.3641 22.4811 39.3641 22.4811 39.491 22.4806C41.3503 22.4799 43.1 22.7222 44.8419 23.4002C44.7594 23.9596 44.6074 24.4242 44.3999 24.9476C43.9121 24.9024 43.4766 24.8325 43.0114 24.6782C41.7361 24.2887 40.4595 24.2631 39.1361 24.2568C38.9348 24.2553 38.9348 24.2553 38.7293 24.2537C35.6996 24.2641 33.1387 25.2805 30.5844 26.8265C30.402 26.9359 30.2196 27.0453 30.0317 27.158C29.7035 26.7568 29.3752 26.3556 29.037 25.9423C29.4647 25.5146 29.8267 25.2112 30.3357 24.913C30.4076 24.8707 30.4795 24.8283 30.5535 24.7847C31.9789 23.9606 33.4137 23.3724 35.0053 22.9581C35.1904 22.9071 35.1904 22.9071 35.3792 22.855C36.6542 22.5142 37.927 22.4859 39.2398 22.4815Z" fill="#FCFCFC"/>
<path d="M49.1524 47.6049C49.4839 47.7536 49.7139 47.9183 49.9693 48.1757C50.0755 48.2819 50.0755 48.2819 50.1838 48.3902C50.2589 48.4664 50.334 48.5427 50.4113 48.6212C50.4892 48.6994 50.5671 48.7776 50.6473 48.8581C50.8956 49.1076 51.143 49.3579 51.3905 49.6081C51.5588 49.7776 51.7272 49.9469 51.8956 50.1163C52.3081 50.5312 52.7199 50.9467 53.1313 51.3627C52.9644 51.7143 52.7909 51.9483 52.5096 52.2192C52.4397 52.2871 52.3699 52.3549 52.298 52.4248C52.2181 52.5008 52.2181 52.5008 52.1365 52.5785C51.805 52.4297 51.575 52.2651 51.3196 52.0076C51.2488 51.9369 51.178 51.8661 51.1051 51.7931C51.03 51.7169 50.955 51.6407 50.8776 51.5622C50.7997 51.484 50.7218 51.4058 50.6416 51.3252C50.3934 51.0757 50.1459 50.8255 49.8984 50.5752C49.7301 50.4058 49.5617 50.2364 49.3933 50.0671C48.9808 49.6522 48.569 49.2367 48.1577 48.8207C48.3245 48.4691 48.498 48.235 48.7794 47.9641C48.8492 47.8963 48.919 47.8285 48.9909 47.7586C49.0442 47.7079 49.0975 47.6572 49.1524 47.6049Z" fill="#FFFEFC"/>
<path d="M45.1735 53.2416C45.2661 53.4578 45.3581 53.6743 45.4498 53.8909C45.5011 54.0115 45.5524 54.132 45.6053 54.2562C45.7261 54.5679 45.7261 54.5679 45.7261 54.7889C45.4593 54.8819 45.1922 54.9738 44.9248 55.0652C44.8118 55.1048 44.8118 55.1048 44.6965 55.1451C44.3154 55.2746 44.0332 55.3415 43.6262 55.3415C43.5704 55.146 43.5153 54.9502 43.4604 54.7544C43.4296 54.6454 43.3989 54.5364 43.3671 54.4241C43.2946 54.1258 43.2946 54.1258 43.2946 53.7942C43.5245 53.7012 43.7548 53.6093 43.9854 53.5179C44.1136 53.4666 44.2418 53.4153 44.3739 53.3625C44.7314 53.2416 44.7314 53.2416 45.1735 53.2416Z" fill="#FAFAFA"/>
<path d="M27.4897 27.158C27.61 27.2564 27.7296 27.3556 27.8489 27.4551C27.9489 27.5378 27.9489 27.5378 28.0509 27.6222C28.2633 27.8212 28.2633 27.8212 28.7054 28.3738C28.3407 28.775 27.976 29.1762 27.6002 29.5896C27.2534 29.4162 26.9914 29.2554 26.6884 29.0231C26.6103 28.9636 26.5322 28.904 26.4518 28.8427C26.3931 28.7974 26.3344 28.752 26.2739 28.7054C26.4274 28.2304 26.6475 27.9641 27.0061 27.6209C27.0965 27.5335 27.1868 27.4462 27.2799 27.3562C27.3837 27.2581 27.3837 27.2581 27.4897 27.158Z" fill="#FCFCFC"/>
<path d="M46.4998 44.9523C46.8429 45.106 47.0928 45.2856 47.3633 45.5464C47.4324 45.6111 47.5015 45.6758 47.5727 45.7424C47.7156 45.947 47.7156 45.947 47.7052 46.1668C47.5854 46.4328 47.4434 46.6025 47.2389 46.8105C47.1733 46.8796 47.1076 46.9487 47.0399 47.0199C46.8314 47.1628 46.8314 47.1628 46.6142 47.1576C46.3206 47.0201 46.1427 46.8376 45.9196 46.6033C45.8415 46.5222 45.7634 46.4411 45.683 46.3576C45.6243 46.2951 45.5656 46.2325 45.5051 46.1681C45.6608 45.8127 45.8481 45.5799 46.1268 45.3115C46.1966 45.2437 46.2664 45.1759 46.3383 45.106C46.3916 45.0553 46.4449 45.0046 46.4998 44.9523Z" fill="#FFFCF9"/>
</svg>
