<svg width="20" height="21" viewBox="0 0 20 21" fill="none" xmlns="http://www.w3.org/2000/svg">
<path id="Union" d="M16.2058 7.7024C15.9993 7.28631 15.6804 6.93635 15.2853 6.69216C14.8901 6.44797 14.4345 6.31931 13.97 6.32073H6.02999C5.56545 6.31921 5.10978 6.44784 4.71461 6.69204C4.31944 6.93624 4.00058 7.28625 3.79415 7.7024L1.88915 11.5124C1.19611 12.9024 0.834703 14.4342 0.83332 15.9874V18.8207H2.49999V20.4874H6.66665V18.8207H13.3333V20.4874H17.5V18.8207H19.1667V15.9874C19.1649 14.435 18.8035 12.9042 18.1108 11.5149L16.2058 7.7024ZM5.28915 8.4524C5.35695 8.31349 5.46227 8.19632 5.59319 8.11414C5.72411 8.03197 5.87541 7.98807 6.02999 7.9874H13.97C14.1248 7.98681 14.2768 8.02968 14.4085 8.11115C14.5402 8.19262 14.6464 8.3094 14.715 8.44823L16.5683 12.1541H3.43165L5.28915 8.4524ZM17.5 17.1541H2.49999V15.9874C2.50028 15.2557 2.59695 14.5272 2.78749 13.8207H4.16665V14.6541C4.16665 14.8751 4.25445 15.087 4.41073 15.2433C4.56701 15.3996 4.77897 15.4874 4.99999 15.4874C5.221 15.4874 5.43296 15.3996 5.58924 15.2433C5.74552 15.087 5.83332 14.8751 5.83332 14.6541V13.8207H14.1667V14.6541C14.1667 14.8751 14.2545 15.087 14.4107 15.2433C14.567 15.3996 14.779 15.4874 15 15.4874C15.221 15.4874 15.433 15.3996 15.5892 15.2433C15.7455 15.087 15.8333 14.8751 15.8333 14.6541V13.8207H17.2125C17.403 14.5272 17.4997 15.2557 17.5 15.9874V17.1541ZM17.5 3.82073H19.8467C19.669 4.30148 19.3484 4.71625 18.9278 5.00919C18.5073 5.30213 18.0071 5.45918 17.4946 5.45918C16.9821 5.45918 16.4819 5.30213 16.0613 5.00919C15.6408 4.71625 15.3201 4.30148 15.1425 3.82073H4.85749C4.67986 4.30148 4.35919 4.71625 3.93865 5.00919C3.51811 5.30213 3.01791 5.45918 2.5054 5.45918C1.99289 5.45918 1.49269 5.30213 1.07216 5.00919C0.65162 4.71625 0.330947 4.30148 0.15332 3.82073H2.49999V2.15407H0.15332C0.330947 1.67332 0.65162 1.25855 1.07216 0.965612C1.49269 0.67267 1.99289 0.515625 2.5054 0.515625C3.01791 0.515625 3.51811 0.67267 3.93865 0.965612C4.35919 1.25855 4.67986 1.67332 4.85749 2.15407H15.1425C15.3201 1.67332 15.6408 1.25855 16.0613 0.965612C16.4819 0.67267 16.9821 0.515625 17.4946 0.515625C18.0071 0.515625 18.5073 0.67267 18.9278 0.965612C19.3484 1.25855 19.669 1.67332 19.8467 2.15407H17.5V3.82073Z" fill="#32337D"/>
</svg>
