<svg width="20" height="21" viewBox="0 0 20 21" fill="none" xmlns="http://www.w3.org/2000/svg">
<path id="Vector" d="M10 0.5C7.34872 0.502877 4.80684 1.56079 2.9321 3.44161C1.05736 5.32244 0.00286757 7.87256 0 10.5324C0.5 23.8254 19.5 23.8196 20 10.5324C19.9971 7.87256 18.9426 5.32244 17.0679 3.44161C15.1932 1.56079 12.6513 0.502877 10 0.5ZM10 18.8928C7.79061 18.8904 5.6724 18.0088 4.11012 16.4414C2.54785 14.8741 1.66909 12.749 1.66667 10.5324C2.08333 -0.543375 17.9167 -0.540867 18.3333 10.5324C18.3309 12.749 17.4522 14.8741 15.8899 16.4414C14.3276 18.0088 12.2094 18.8904 10 18.8928ZM10 3.84415C8.2325 3.84614 6.53796 4.55144 5.28815 5.80531C4.03833 7.05917 3.33532 8.75921 3.33333 10.5324C3.64667 19.3844 16.355 19.3819 16.6667 10.5324C16.6647 8.75921 15.9617 7.05917 14.7119 5.80531C13.462 4.55144 11.7675 3.84614 10 3.84415ZM9.305 11.4404C9.28739 11.2104 9.2472 10.9827 9.185 10.7607C9.12242 10.5402 9.0387 10.3263 8.935 10.122C9.33732 9.96331 9.70064 9.71917 10 9.40631C10.2986 9.71887 10.6611 9.96299 11.0625 10.122C10.9588 10.3263 10.8751 10.5402 10.8125 10.7607C10.7503 10.9827 10.7101 11.2104 10.6925 11.4404C10.2348 11.3454 9.76266 11.3454 9.305 11.4404ZM14.2667 7.919L12.6583 8.56442C12.4564 8.6448 12.2379 8.67444 12.0219 8.65078C11.8059 8.62711 11.599 8.55085 11.4191 8.42863C11.2391 8.30641 11.0917 8.14193 10.9897 7.94951C10.8876 7.75708 10.8339 7.54255 10.8333 7.32457V5.58645C11.5383 5.70706 12.2095 5.97761 12.8016 6.37993C13.3938 6.78224 13.8933 7.30701 14.2667 7.919ZM9.16667 5.58645V7.32457C9.16609 7.54255 9.11243 7.75708 9.01034 7.94951C8.90826 8.14193 8.76085 8.30641 8.58095 8.42863C8.40104 8.55085 8.19409 8.62711 7.9781 8.65078C7.76211 8.67444 7.54363 8.6448 7.34167 8.56442L5.73333 7.919C6.10666 7.30701 6.60619 6.78224 7.19836 6.37993C7.79054 5.97761 8.46166 5.70706 9.16667 5.58645ZM5 10.5324C4.99999 10.1758 5.03771 9.82017 5.1125 9.47152L6.52917 10.0409C6.78174 10.142 7.00776 10.3 7.18974 10.5027C7.37172 10.7055 7.50479 10.9475 7.57866 11.21C7.65252 11.4726 7.66521 11.7487 7.61573 12.0169C7.56626 12.2852 7.45595 12.5385 7.29333 12.7571L6.37667 13.9853C5.49216 13.0548 4.9991 11.8182 5 10.5324ZM7.70917 14.9902L8.66667 13.7094C8.82735 13.5099 9.03048 13.3489 9.26119 13.2384C9.49189 13.1278 9.74433 13.0705 10 13.0705C10.2557 13.0705 10.5081 13.1278 10.7388 13.2384C10.9695 13.3489 11.1727 13.5099 11.3333 13.7094L12.2908 14.9894C11.5816 15.353 10.7966 15.5427 10.0001 15.5428C9.20364 15.5429 8.41851 15.3536 7.70917 14.9902ZM13.6258 13.987L13.0792 13.2571L12.7108 12.7638C12.5472 12.5452 12.4359 12.2917 12.3857 12.023C12.3355 11.7543 12.3477 11.4776 12.4214 11.2144C12.4951 10.9511 12.6282 10.7085 12.8105 10.5053C12.9928 10.302 13.2193 10.1437 13.4725 10.0425L14.8892 9.47319C15.0584 10.2719 15.0317 11.0999 14.8112 11.8859C14.5907 12.6719 14.183 13.3924 13.6233 13.9853L13.6258 13.987Z" fill="#32337D"/>
</svg>
