<svg width="20" height="14" viewBox="0 0 20 14" fill="none" xmlns="http://www.w3.org/2000/svg">
<g id="Group">
<path id="Vector" d="M5.91702 1.31304C5.24567 1.98492 4.69922 2.60992 4.69922 2.70367C4.69922 2.79742 5.26128 3.40679 5.93263 4.06304C7.32217 5.42242 7.66565 5.50054 7.66565 4.46929V3.85992H10.0076H12.3495V4.46929C12.3495 5.50054 12.693 5.42242 14.0825 4.06304C14.7539 3.40679 15.3159 2.79742 15.3159 2.70367C15.3159 2.59429 14.7539 1.96929 14.0825 1.29742C12.693 -0.0932074 12.3495 -0.171332 12.3495 0.891168V1.51617H10.0232H7.68126L7.63443 0.859918C7.6032 0.422418 7.50952 0.172418 7.35339 0.141168C7.22849 0.125543 6.57275 0.656793 5.91702 1.31304ZM10.0076 2.21929H13.0521L13.0989 1.84429C13.1614 1.48492 13.177 1.50054 13.7703 2.07867L14.3792 2.67242L13.8015 3.28179C13.2238 3.85992 13.2082 3.85992 13.1301 3.51617L13.0365 3.15679H10.0076H6.96307L6.91624 3.53179C6.85379 3.89117 6.83817 3.87554 6.24489 3.29742L5.63599 2.70367L6.21366 2.09429C6.79133 1.51617 6.80695 1.51617 6.88501 1.85992L6.97869 2.21929H10.0076Z" fill="#33373C"/>
<path id="Vector_2" d="M0.530835 4.85938L0.0936768 5.23438L0.0468384 9.01562L0 12.7812L0.530835 13.3125C1.06167 13.8438 1.12412 13.8594 2.26386 13.8594C2.90398 13.8594 3.62217 13.7812 3.84075 13.6719C4.35597 13.4375 4.69945 12.7969 4.69945 12.0781C4.69945 11.5312 4.69945 11.5312 5.44887 11.4844C6.18267 11.4375 6.18267 11.4375 6.22951 10.8438L6.27635 10.2656H10.0078H13.7393L13.7861 10.8438C13.8329 11.4375 13.8329 11.4375 14.5824 11.4844C15.3162 11.5312 15.3162 11.5312 15.3162 12.0781C15.3162 12.7969 15.6596 13.4375 16.1749 13.6719C16.3934 13.7812 17.1116 13.8594 17.7518 13.8594C18.8915 13.8594 18.9539 13.8438 19.4692 13.3281L20 12.7969V9.26562C20 4.54688 19.9688 4.48438 17.58 4.48438C16.2998 4.48438 16.2061 4.5 15.7689 4.9375C15.4098 5.3125 15.3162 5.53125 15.3162 6.10938V6.8125L14.5824 6.85938C13.8642 6.90625 13.8329 6.92188 13.7861 7.40625L13.7393 7.92188H10.0078H6.27635L6.22951 7.40625C6.18267 6.92188 6.15144 6.90625 5.44887 6.85938L4.69945 6.8125V6.10938C4.69945 5.53125 4.60578 5.3125 4.24668 4.9375C3.80952 4.5 3.73146 4.48438 2.37315 4.48438C1.10851 4.48438 0.921155 4.51562 0.530835 4.85938ZM3.73146 5.45312C3.84075 5.5625 3.91881 5.90625 3.91881 6.23438V6.82812L3.52849 6.57812C3.32553 6.45312 3.07572 6.375 2.98205 6.4375C2.66979 6.625 2.84153 7.0625 3.37237 7.42188C3.79391 7.6875 3.91881 7.875 3.91881 8.23438C3.91881 8.6875 3.71585 8.85938 3.52849 8.54688C3.48165 8.45312 3.2943 8.39062 3.12256 8.39062C2.62295 8.39062 2.76347 8.96875 3.37237 9.35938C3.80952 9.65625 3.91881 9.8125 3.91881 10.2344C3.91881 10.7344 3.91881 10.7344 3.52849 10.4844C3.32553 10.3594 3.07572 10.2812 2.98205 10.3438C2.66979 10.5312 2.84153 10.9688 3.37237 11.3281C3.79391 11.5938 3.91881 11.7812 3.91881 12.125C3.91881 12.8594 3.57533 13.0781 2.40437 13.0781C1.2178 13.0781 0.796253 12.8281 0.796253 12.125C0.796253 11.7969 0.936768 11.6094 1.3427 11.3594C1.87354 11.0312 2.06089 10.5469 1.73302 10.3438C1.65496 10.2969 1.40515 10.375 1.18657 10.5156L0.796253 10.7656V10.25C0.796253 9.8125 0.905543 9.65625 1.3427 9.35938C1.9516 8.96875 2.09212 8.39062 1.59251 8.39062C1.42077 8.39062 1.23341 8.45312 1.18657 8.54688C0.999219 8.85938 0.796253 8.6875 0.796253 8.23438C0.796253 7.875 0.921155 7.6875 1.3427 7.42188C1.87354 7.0625 2.04528 6.625 1.73302 6.4375C1.63934 6.375 1.38954 6.45312 1.18657 6.57812C0.796253 6.82812 0.796253 6.82812 0.796253 6.35938C0.796253 5.40625 0.983607 5.26562 2.32631 5.26562C3.06011 5.26562 3.62217 5.34375 3.73146 5.45312ZM19.0632 5.5625C19.1413 5.73438 19.2194 6.09375 19.2194 6.35938C19.2194 6.82812 19.2194 6.82812 18.829 6.57812C18.6261 6.45312 18.3763 6.375 18.2826 6.4375C17.9703 6.625 18.1421 7.0625 18.6729 7.42188C19.0945 7.6875 19.2194 7.875 19.2194 8.23438C19.2194 8.6875 19.0164 8.85938 18.829 8.54688C18.7822 8.45312 18.5948 8.39062 18.4231 8.39062C17.9235 8.39062 18.064 8.96875 18.6729 9.35938C19.1101 9.65625 19.2194 9.8125 19.2194 10.25V10.7656L18.829 10.5156C18.6105 10.375 18.3607 10.2969 18.2826 10.3438C17.9547 10.5469 18.1421 11.0312 18.6729 11.3594C19.2818 11.7344 19.4067 12.3125 18.9539 12.7969C18.7666 13.0156 18.4699 13.0781 17.6425 13.0781C16.4403 13.0781 16.0968 12.8594 16.0968 12.125C16.0968 11.7812 16.2217 11.5938 16.6432 11.3281C17.1741 10.9688 17.3458 10.5312 17.0336 10.3438C16.9399 10.2812 16.6901 10.3594 16.4871 10.4844C16.0968 10.7344 16.0968 10.7344 16.0968 10.2344C16.0968 9.8125 16.2061 9.65625 16.6432 9.35938C17.2521 8.96875 17.3927 8.39062 16.8931 8.39062C16.7213 8.39062 16.534 8.45312 16.4871 8.54688C16.2998 8.85938 16.0968 8.6875 16.0968 8.23438C16.0968 7.875 16.2217 7.6875 16.6432 7.42188C17.1741 7.0625 17.3458 6.625 17.0336 6.4375C16.9399 6.375 16.6901 6.45312 16.4871 6.57812L16.0968 6.82812V6.23438C16.0968 5.39062 16.2998 5.26562 17.6893 5.26562C18.7197 5.26562 18.9227 5.3125 19.0632 5.5625ZM5.48009 9.17188V10.7344H5.08977H4.69945V9.17188V7.60938H5.08977H5.48009V9.17188ZM15.3162 9.17188V10.7344H14.9258H14.5355V9.17188V7.60938H14.9258H15.3162V9.17188ZM13.7549 9.09375V9.48438H10.0078H6.26073V9.09375V8.70312H10.0078H13.7549V9.09375Z" fill="#33373C"/>
</g>
</svg>
