<svg width="20" height="20" viewBox="0 0 20 20" fill="none" xmlns="http://www.w3.org/2000/svg">
<path id="Union" d="M17.015 2.60323C16.8389 2.12953 16.5194 1.72035 16.0994 1.43087C15.6795 1.1414 15.1794 0.98556 14.6667 0.984375H5.33334C4.82056 0.98556 4.32049 1.1414 3.90057 1.43087C3.48066 1.72035 3.1611 2.12953 2.98501 2.60323L1.19834 7.43438C0.40393 9.57827 -0.00167049 11.8427 5.17077e-06 14.1245V15.7385H1.66667V19.0172H6.66667V15.7385H13.3333V19.0172H18.3333V15.7385H20V14.1245C20.0017 11.8427 19.5961 9.57827 18.8017 7.43438L17.015 2.60323ZM4.55084 3.16306C4.60929 3.00508 4.71572 2.8686 4.8557 2.77212C4.99567 2.67565 5.16242 2.62384 5.33334 2.62372H14.6667C14.8376 2.62384 15.0043 2.67565 15.1443 2.77212C15.2843 2.8686 15.3907 3.00508 15.4492 3.16306L17.2358 7.99913C17.38 8.39011 17.5 8.78765 17.6158 9.18519H2.38417C2.50001 8.78765 2.62001 8.39011 2.76417 7.99913L4.55084 3.16306ZM5.00001 17.3778H3.33334V15.7385H5.00001V17.3778ZM16.6667 17.3778H15V15.7385H16.6667V17.3778ZM1.66667 14.0991C1.67041 12.9989 1.77697 11.9014 1.98501 10.8204H3.33334V11.6401C3.33334 11.8575 3.42114 12.066 3.57742 12.2197C3.7337 12.3734 3.94566 12.4598 4.16667 12.4598C4.38769 12.4598 4.59965 12.3734 4.75593 12.2197C4.91221 12.066 5.00001 11.8575 5.00001 11.6401V10.8204H15V11.6401C15 11.8575 15.0878 12.066 15.2441 12.2197C15.4004 12.3734 15.6123 12.4598 15.8333 12.4598C16.0544 12.4598 16.2663 12.3734 16.4226 12.2197C16.5789 12.066 16.6667 11.8575 16.6667 11.6401V10.8204H18.015C18.223 11.9014 18.3296 12.9989 18.3333 14.0991H1.66667Z" fill="#9BA7AD"/>
</svg>
