<svg width="28" height="28" viewBox="0 0 28 28" fill="none" xmlns="http://www.w3.org/2000/svg">
<g clip-path="url(#clip0_9511_42232)">
<path d="M4.66667 12.8333H11.6667V15.1666H4.66667V12.8333ZM21 10.5H18.6667V12.8333H16.3333V15.1666H18.6667V17.5H21V15.1666H23.3333V12.8333H21V10.5ZM28 9.33331V25.6666H0V9.33331C0 8.40506 0.368749 7.51482 1.02513 6.85844C1.6815 6.20206 2.57174 5.83331 3.5 5.83331V2.33331H12.8333V5.83331H15.1667V2.33331H24.5V5.83331C25.4283 5.83331 26.3185 6.20206 26.9749 6.85844C27.6313 7.51482 28 8.40506 28 9.33331ZM25.6667 9.33331C25.6667 9.02389 25.5438 8.72715 25.325 8.50836C25.1062 8.28956 24.8094 8.16665 24.5 8.16665H22.1667V4.66665H17.5V8.16665H10.5V4.66665H5.83333V8.16665H3.5C3.19058 8.16665 2.89383 8.28956 2.67504 8.50836C2.45625 8.72715 2.33333 9.02389 2.33333 9.33331V23.3333H25.6667V9.33331Z" fill="#76828B"/>
</g>
<defs>
<clipPath id="clip0_9511_42232">
<rect width="28" height="28" fill="white"/>
</clipPath>
</defs>
</svg>
