<svg width="20" height="18" viewBox="0 0 20 18" fill="none" xmlns="http://www.w3.org/2000/svg">
<path id="Union" d="M3.33333 8.16699H8.33333V9.83366H3.33333V8.16699ZM15 6.50033H13.3333V8.16699H11.6667V9.83366H13.3333V11.5003H15V9.83366H16.6667V8.16699H15V6.50033ZM20 5.66699V17.3337H0V5.66699C0 5.00395 0.263392 4.36807 0.732233 3.89923C1.20107 3.43038 1.83696 3.16699 2.5 3.16699V0.666992H9.16667V3.16699H10.8333V0.666992H17.5V3.16699C18.163 3.16699 18.7989 3.43038 19.2678 3.89923C19.7366 4.36807 20 5.00395 20 5.66699ZM18.3333 5.66699C18.3333 5.44598 18.2455 5.23402 18.0893 5.07774C17.933 4.92146 17.721 4.83366 17.5 4.83366H15.8333V2.33366H12.5V4.83366H7.5V2.33366H4.16667V4.83366H2.5C2.27899 4.83366 2.06702 4.92146 1.91074 5.07774C1.75446 5.23402 1.66667 5.44598 1.66667 5.66699V15.667H18.3333V5.66699Z" fill="#9BA7AD"/>
</svg>
