<svg width="20" height="20" viewBox="0 0 20 20" fill="none" xmlns="http://www.w3.org/2000/svg">
<g clip-path="url(#clip0_6782_8728)">
<path d="M6.69924 9.87597C5.80726 8.96804 4.19002 8.96804 3.29804 9.87597L1.46239 11.4609C-0.487464 13.411 -0.487464 16.585 1.46239 18.5351C2.40689 19.4798 3.66317 20 4.99864 20C6.33411 20 7.59039 19.4798 8.53573 18.5351C10.4856 16.585 10.4856 13.411 8.49071 11.4184L6.70008 9.87514L6.69924 9.87597ZM7.35698 17.3562C6.09653 18.6168 3.90075 18.616 2.64114 17.3562C1.34068 16.0556 1.34068 13.9396 2.59613 12.6823C2.59613 12.6823 4.45845 11.0757 4.47846 11.054C4.61517 10.909 4.80024 10.8289 4.99948 10.8289C5.19871 10.8289 5.38378 10.909 5.52049 11.054C5.5405 11.0749 7.35781 12.6398 7.35781 12.6398C8.65827 13.9404 8.65744 16.0564 7.35698 17.3562ZM18.6376 7.14716L17.0146 5.64811C16.1359 4.7877 14.7037 4.7877 13.8418 5.63144L12.1778 7.16967C11.3117 8.03592 10.8349 9.18731 10.8349 10.4121C10.8349 11.6368 11.3117 12.789 12.1778 13.6545C13.044 14.5207 14.1952 14.9976 15.4198 14.9976C16.6444 14.9976 17.7957 14.5207 18.6618 13.6545C20.4499 11.8661 20.4499 8.9572 18.6385 7.14633L18.6376 7.14716ZM17.4822 12.4756C16.3802 13.5778 14.4587 13.5786 13.3558 12.4756C12.8047 11.9245 12.5013 11.1916 12.5013 10.4121C12.5013 9.63252 12.8047 8.89967 13.3324 8.37108L14.9897 6.83952C15.1064 6.72529 15.2581 6.66777 15.4132 6.66777C15.5732 6.66777 15.7366 6.7303 15.865 6.85619L17.4814 8.34941C18.6193 9.48745 18.6193 11.3383 17.4814 12.4764L17.4822 12.4756ZM10.719 1.83128L9.46772 0.453951C8.8425 -0.156342 7.82464 -0.15801 7.16357 0.489801L5.97565 1.8021C5.34543 2.43157 4.99864 3.26947 4.99864 4.1599C4.99864 5.05032 5.34543 5.88823 5.97482 6.51769C6.60421 7.14716 7.44201 7.49483 8.33315 7.49483C9.2243 7.49483 10.0613 7.148 10.6915 6.51769C11.9919 5.21707 11.9911 3.10189 10.719 1.83128ZM9.5119 5.3388C8.88168 5.9691 7.78379 5.9691 7.1544 5.3388C6.83929 5.02364 6.6659 4.60511 6.6659 4.1599C6.6659 3.71468 6.83929 3.29615 7.18275 2.95182L8.33315 1.68287L9.51274 2.98183C10.163 3.63214 10.163 4.68932 9.51274 5.33963L9.5119 5.3388Z" fill="#9BA7AD"/>
</g>
<defs>
<clipPath id="clip0_6782_8728">
<rect width="20" height="20" fill="white"/>
</clipPath>
</defs>
</svg>
