<svg width="20" height="20" viewBox="0 0 20 20" fill="none" xmlns="http://www.w3.org/2000/svg">
<g clip-path="url(#clip0_8625_15624)">
<path d="M20 11.1667C20 10.5036 19.7366 9.86774 19.2678 9.3989C18.7989 8.93006 18.163 8.66667 17.5 8.66667H17.1017L13.2 3.07083C12.9697 2.74032 12.663 2.47035 12.3059 2.28391C11.9488 2.09746 11.552 2.00006 11.1492 2H5.31584C4.80901 2.00208 4.31466 2.15734 3.89766 2.44541C3.48066 2.73348 3.16049 3.14088 2.97917 3.61417L0.812502 9.32083C0.55607 9.55502 0.35135 9.84015 0.211441 10.158C0.0715322 10.4758 -0.0004834 10.8194 2.44194e-06 11.1667V15.3333H1.66667V15.75C1.66667 16.5235 1.97396 17.2654 2.52094 17.8124C3.06792 18.3594 3.80979 18.6667 4.58334 18.6667C5.35688 18.6667 6.09875 18.3594 6.64573 17.8124C7.19271 17.2654 7.5 16.5235 7.5 15.75V15.3333H12.5V15.75C12.5 16.5235 12.8073 17.2654 13.3543 17.8124C13.9013 18.3594 14.6431 18.6667 15.4167 18.6667C16.1902 18.6667 16.9321 18.3594 17.4791 17.8124C18.026 17.2654 18.3333 16.5235 18.3333 15.75V15.3333H20V11.1667ZM11.8333 4.02333L15.07 8.66667H9.16667V3.66667H11.1492C11.2835 3.66657 11.4159 3.69895 11.535 3.76105C11.6541 3.82315 11.7565 3.91314 11.8333 4.02333ZM4.53917 4.20417C4.59914 4.04624 4.70568 3.91028 4.84468 3.81429C4.98369 3.71829 5.14858 3.66681 5.3175 3.66667H7.5V8.66667H2.84667L4.53917 4.20417ZM5.83333 15.75C5.83333 16.0815 5.70164 16.3995 5.46722 16.6339C5.2328 16.8683 4.91486 17 4.58334 17C4.25181 17 3.93387 16.8683 3.69945 16.6339C3.46503 16.3995 3.33334 16.0815 3.33334 15.75V15.3333H5.83333V15.75ZM16.6667 15.75C16.6667 16.0815 16.535 16.3995 16.3006 16.6339C16.0661 16.8683 15.7482 17 15.4167 17C15.0851 17 14.7672 16.8683 14.5328 16.6339C14.2984 16.3995 14.1667 16.0815 14.1667 15.75V15.3333H16.6667V15.75ZM18.3333 13.6667H1.66667V11.1667C1.66667 10.9457 1.75447 10.7337 1.91075 10.5774C2.06703 10.4211 2.27899 10.3333 2.5 10.3333H17.5C17.721 10.3333 17.933 10.4211 18.0893 10.5774C18.2455 10.7337 18.3333 10.9457 18.3333 11.1667V13.6667Z" fill="#9BA7AD"/>
</g>
<defs>
<clipPath id="clip0_8625_15624">
<rect width="20" height="20" fill="white"/>
</clipPath>
</defs>
</svg>
