<svg width="28" height="28" viewBox="0 0 28 28" fill="none" xmlns="http://www.w3.org/2000/svg">
<g clip-path="url(#clip0_9511_42236)">
<path d="M28 15.1666C28 14.2384 27.6313 13.3482 26.9749 12.6918C26.3185 12.0354 25.4283 11.6666 24.5 11.6666H23.9423L18.48 3.83248C18.1576 3.36977 17.7282 2.99181 17.2283 2.73078C16.7284 2.46976 16.1728 2.3334 15.6088 2.33331H7.44217C6.73262 2.33623 6.04053 2.5536 5.45672 2.95689C4.87292 3.36018 4.42468 3.93055 4.17084 4.59315L1.1375 12.5825C0.778499 12.9103 0.49189 13.3095 0.296017 13.7545C0.100145 14.1995 -0.000676759 14.6805 3.41871e-06 15.1666V21H2.33334V21.5833C2.33334 22.6663 2.76354 23.7049 3.52932 24.4707C4.29509 25.2364 5.3337 25.6666 6.41667 25.6666C7.49964 25.6666 8.53825 25.2364 9.30402 24.4707C10.0698 23.7049 10.5 22.6663 10.5 21.5833V21H17.5V21.5833C17.5 22.6663 17.9302 23.7049 18.696 24.4707C19.4618 25.2364 20.5004 25.6666 21.5833 25.6666C22.6663 25.6666 23.7049 25.2364 24.4707 24.4707C25.2365 23.7049 25.6667 22.6663 25.6667 21.5833V21H28V15.1666ZM16.5667 5.16598L21.098 11.6666H12.8333V4.66665H15.6088C15.7969 4.66651 15.9822 4.71184 16.149 4.79878C16.3158 4.88573 16.4591 5.01171 16.5667 5.16598ZM6.35484 5.41915C6.43879 5.19806 6.58796 5.0077 6.78256 4.87331C6.97716 4.73892 7.20801 4.66685 7.4445 4.66665H10.5V11.6666H3.98534L6.35484 5.41915ZM8.16667 21.5833C8.16667 22.0474 7.9823 22.4926 7.65411 22.8208C7.32592 23.1489 6.8808 23.3333 6.41667 23.3333C5.95254 23.3333 5.50742 23.1489 5.17923 22.8208C4.85104 22.4926 4.66667 22.0474 4.66667 21.5833V21H8.16667V21.5833ZM23.3333 21.5833C23.3333 22.0474 23.149 22.4926 22.8208 22.8208C22.4926 23.1489 22.0475 23.3333 21.5833 23.3333C21.1192 23.3333 20.6741 23.1489 20.3459 22.8208C20.0177 22.4926 19.8333 22.0474 19.8333 21.5833V21H23.3333V21.5833ZM25.6667 18.6666H2.33334V15.1666C2.33334 14.8572 2.45625 14.5605 2.67505 14.3417C2.89384 14.1229 3.19058 14 3.5 14H24.5C24.8094 14 25.1062 14.1229 25.325 14.3417C25.5438 14.5605 25.6667 14.8572 25.6667 15.1666V18.6666Z" fill="#76828B"/>
</g>
<defs>
<clipPath id="clip0_9511_42236">
<rect width="28" height="28" fill="white"/>
</clipPath>
</defs>
</svg>
