<svg width="20" height="20" viewBox="0 0 20 20" fill="none" xmlns="http://www.w3.org/2000/svg">
<g clip-path="url(#clip0_8625_15652)">
<path d="M19.9151 8.74093C19.95 9.00552 19.9737 9.27306 19.9863 9.54357C20.0323 10.5154 19.9653 11.54 19.7436 12.492C19.5934 13.1332 19.3152 13.7004 18.721 14.067C17.5984 14.7599 16.7401 13.6335 15.5302 13.2554C14.1634 12.8283 12.2463 13.4387 11.6783 14.7464C11.1102 16.054 11.6913 17.5982 11.582 18.9851C11.5443 19.4588 11.3466 19.8478 10.8445 19.9392C10.176 20.0609 9.48709 19.9742 8.81807 19.9016C8.15216 19.8232 7.49642 19.6748 6.86177 19.4588C5.63095 19.0524 4.48957 18.4143 3.49943 17.5788C3.04165 17.1915 2.62134 16.7621 2.24405 16.2963C0.0586397 13.5933 -0.610375 9.81355 0.591131 6.54451C1.28108 4.68289 2.50445 3.06509 4.10882 1.89266C5.21729 1.09077 6.47936 0.525476 7.81633 0.232038C9.1533 -0.0614 10.5365 -0.076692 11.8796 0.187117C14.5265 0.727948 16.8508 2.29404 18.3433 4.54236C19.1804 5.80427 19.718 7.24025 19.9151 8.74093ZM17.0665 12.2356C17.3589 12.3875 17.6863 12.4502 17.9505 12.2079C18.1634 12.0131 18.2586 11.7207 18.2983 11.435C18.4631 10.2269 18.3751 8.99789 18.0399 7.82549C17.3521 5.38311 15.5365 3.28748 13.1873 2.30573C11.9593 1.79322 10.627 1.57847 9.29983 1.67907C7.59799 1.81053 5.97808 2.46242 4.66066 3.54598C1.61741 6.07818 0.742822 10.2501 2.52756 13.7703C3.3543 15.3825 4.68136 16.6843 6.31045 17.4812C7.33437 17.9809 8.45088 18.2634 9.58961 18.311C9.68467 18.3167 9.77903 18.2915 9.85852 18.2391C9.93802 18.1868 9.99839 18.1101 10.0306 18.0206C10.1101 17.8217 10.0829 17.6096 10.0687 17.4008C10.051 17.1506 10.0211 16.9015 9.99656 16.6524C9.92752 15.9516 9.94896 15.2545 10.177 14.5834C10.3712 14.0211 10.6748 13.5027 11.0704 13.058C11.6647 12.3844 12.4386 11.8934 13.3019 11.6423C13.5942 11.559 13.8943 11.5053 14.1974 11.482C14.7353 11.4481 15.275 11.5042 15.7943 11.6481C16.1082 11.7301 16.3927 11.8747 16.6789 12.0209C16.8023 12.082 16.932 12.1656 17.0665 12.2356Z" fill="#9BA7AD"/>
<path d="M6.18229 6.65469C6.34704 6.65468 6.51016 6.68728 6.66222 6.7506C6.81427 6.81392 6.95225 6.90671 7.06816 7.0236C7.18407 7.14048 7.27563 7.27915 7.33752 7.43158C7.39942 7.58401 7.43044 7.74718 7.42878 7.91165C7.42482 8.24059 7.29186 8.55487 7.05842 8.78704C6.82499 9.01921 6.50969 9.15076 6.1802 9.15347C5.84759 9.15237 5.52892 9.01997 5.29373 8.78517C5.05854 8.55037 4.92592 8.23222 4.92481 7.90017C4.92467 7.73573 4.95717 7.5729 5.02043 7.42107C5.0837 7.26925 5.17648 7.13146 5.29341 7.01564C5.41033 6.89983 5.54909 6.80831 5.70166 6.74635C5.85423 6.6844 6.01759 6.65324 6.18229 6.65469Z" fill="#9BA7AD"/>
<path d="M15.7781 7.90643C15.7781 8.07099 15.7455 8.23392 15.6822 8.38584C15.6188 8.53775 15.5259 8.67564 15.4089 8.79156C15.292 8.90749 15.1531 8.99915 15.0005 9.06126C14.8479 9.12337 14.6844 9.15471 14.5196 9.15347C14.1902 9.14846 13.8758 9.01525 13.6434 8.78222C13.411 8.54919 13.2789 8.23476 13.2752 7.90591C13.2745 7.73953 13.3071 7.57469 13.3711 7.42107C13.4351 7.26745 13.5292 7.12816 13.648 7.01138C13.7667 6.89461 13.9076 6.80272 14.0624 6.74111C14.2172 6.67949 14.3828 6.6494 14.5494 6.65261C14.7127 6.65397 14.8741 6.68753 15.0243 6.75135C15.1745 6.81518 15.3107 6.90802 15.4248 7.02453C15.539 7.14105 15.629 7.27894 15.6896 7.43029C15.7503 7.58163 15.7803 7.74345 15.7781 7.90643Z" fill="#9BA7AD"/>
<path d="M6.17654 11.658C6.34145 11.6573 6.50486 11.6893 6.65731 11.7521C6.80975 11.8148 6.94822 11.9072 7.06468 12.0237C7.18114 12.1403 7.27329 12.2788 7.33579 12.4311C7.39829 12.5835 7.4299 12.7467 7.42879 12.9113C7.4254 13.2396 7.29345 13.5535 7.06118 13.7859C6.82891 14.0182 6.51476 14.1506 6.18596 14.1547C5.8532 14.1553 5.53373 14.0244 5.29727 13.7907C5.0608 13.5569 4.92654 13.2393 4.92378 12.9071C4.92315 12.7428 4.95514 12.5799 5.0179 12.428C5.08065 12.2761 5.17293 12.1381 5.28941 12.0219C5.40588 11.9058 5.54425 11.8138 5.69651 11.7514C5.84878 11.6889 6.01193 11.6572 6.17654 11.658Z" fill="#9BA7AD"/>
<path d="M9.10472 5.39199C9.10428 5.22745 9.13674 5.06448 9.20021 4.91263C9.26368 4.76078 9.35688 4.62311 9.47434 4.50769C9.5918 4.39227 9.73116 4.30143 9.88425 4.24049C10.0373 4.17954 10.2011 4.14972 10.3659 4.15278C10.6953 4.15526 11.0104 4.28731 11.2429 4.52028C11.4753 4.75326 11.6064 5.06836 11.6076 5.39721C11.605 5.72881 11.4719 6.04609 11.2371 6.28057C11.0022 6.51505 10.6844 6.64792 10.3523 6.65052C10.1874 6.65011 10.0243 6.61718 9.87231 6.55363C9.72028 6.49008 9.58233 6.39715 9.4664 6.2802C9.35047 6.16324 9.25883 6.02456 9.19676 5.87213C9.13469 5.7197 9.10342 5.55653 9.10472 5.39199Z" fill="#9BA7AD"/>
</g>
<defs>
<clipPath id="clip0_8625_15652">
<rect width="20" height="20" fill="white"/>
</clipPath>
</defs>
</svg>
