<svg width="20" height="20" viewBox="0 0 20 20" fill="none" xmlns="http://www.w3.org/2000/svg">
<g clip-path="url(#clip0_8625_13144)">
<path d="M3.33167 15H8.33167V10H3.33167V15ZM4.99833 11.6667H6.665V13.3333H4.99833V11.6667ZM17.5 1.66667H15V0H13.3333V1.66667H6.66667V0H5V1.66667H2.5C1.12167 1.66667 0 2.78833 0 4.16667V20H20V4.16667C20 2.78833 18.8783 1.66667 17.5 1.66667ZM2.5 3.33333H17.5C17.96 3.33333 18.3333 3.7075 18.3333 4.16667V6.66667H1.66667V4.16667C1.66667 3.7075 2.04 3.33333 2.5 3.33333ZM1.66667 18.3333V8.33333H18.3333V18.3333H1.66667Z" fill="#9BA7AD"/>
</g>
<defs>
<clipPath id="clip0_8625_13144">
<rect width="20" height="20" fill="white"/>
</clipPath>
</defs>
</svg>
