<svg width="18" height="20" viewBox="0 0 18 20" fill="none" xmlns="http://www.w3.org/2000/svg">
<path id="Vector" d="M4.75 10H13.25V11.6667H4.75V10ZM4.75 15H10.7V13.3333H4.75V15ZM17.5 6.32167V20H0.5V2.5C0.5 1.83696 0.76866 1.20107 1.24688 0.732233C1.7251 0.263392 2.3737 0 3.05 0L11.0519 0L17.5 6.32167ZM11.55 5.83333H14.5981L11.55 2.845V5.83333ZM15.8 18.3333V7.5H9.85V1.66667H3.05C2.82457 1.66667 2.60837 1.75446 2.44896 1.91074C2.28955 2.06702 2.2 2.27899 2.2 2.5V18.3333H15.8Z" fill="#2E7615"/>
</svg>
