<svg width="18" height="20" viewBox="0 0 18 20" fill="none" xmlns="http://www.w3.org/2000/svg">
<path id="Vector" d="M11.4545 20L6.54545 16.25V11.9833L0 4.48333V2.5C0 1.83696 0.258603 1.20107 0.71892 0.732233C1.17924 0.263392 1.80356 0 2.45455 0L15.5455 0C16.1964 0 16.8208 0.263392 17.2811 0.732233C17.7414 1.20107 18 1.83696 18 2.5V4.48333L11.4545 11.9833V20ZM8.18182 15.4167L9.81818 16.6667V11.35L16.3636 3.85V2.5C16.3636 2.27899 16.2774 2.06702 16.124 1.91074C15.9706 1.75446 15.7624 1.66667 15.5455 1.66667H2.45455C2.23755 1.66667 2.02944 1.75446 1.876 1.91074C1.72256 2.06702 1.63636 2.27899 1.63636 2.5V3.85L8.18182 11.35V15.4167Z" fill="#9BA7AD"/>
</svg>
