<svg width="18" height="21" viewBox="0 0 18 21" fill="none" xmlns="http://www.w3.org/2000/svg">
<path id="Vector" d="M11.4545 20.5L6.54545 16.75V12.4833L0 4.98333V3C0 2.33696 0.258603 1.70107 0.71892 1.23223C1.17924 0.763392 1.80356 0.5 2.45455 0.5L15.5455 0.5C16.1964 0.5 16.8208 0.763392 17.2811 1.23223C17.7414 1.70107 18 2.33696 18 3V4.98333L11.4545 12.4833V20.5ZM8.18182 15.9167L9.81818 17.1667V11.85L16.3636 4.35V3C16.3636 2.77899 16.2774 2.56702 16.124 2.41074C15.9706 2.25446 15.7624 2.16667 15.5455 2.16667H2.45455C2.23755 2.16667 2.02944 2.25446 1.876 2.41074C1.72256 2.56702 1.63636 2.77899 1.63636 3V4.35L8.18182 11.85V15.9167Z" fill="#32337D"/>
</svg>
