<svg width="20" height="20" viewBox="0 0 20 20" fill="none" xmlns="http://www.w3.org/2000/svg">
<g id="Icons20x20" clip-path="url(#clip0_9057_37380)">
<path id="Union" fill-rule="evenodd" clip-rule="evenodd" d="M18.8743 3.23433L19.3693 4.18729C19.8084 5.03263 20.0311 5.94238 20.0311 6.89142C20.0311 10.036 17.5519 12.6126 14.4421 12.7755L17.7364 16.0674C18.6357 16.9659 18.6357 18.4264 17.7364 19.3249C17.3014 19.7603 16.7227 19.9999 16.1063 19.9999C15.4899 19.9999 14.9111 19.7595 14.4754 19.3249L9.76221 14.6154L5.20652 19.1637C4.74618 19.6233 4.14105 19.8527 3.5367 19.8527C2.93236 19.8527 2.32801 19.6233 1.86767 19.1637C0.948567 18.2445 0.948567 16.7503 1.86767 15.8311L7.52111 10.1888L5.81197 8.48112H2.61162L0 3.95731L2.37106 1.58905L6.89874 4.19767V7.39528L8.60849 9.10357L8.64609 9.06604C8.36831 8.3739 8.22824 7.64563 8.22824 6.89221C8.22824 3.64285 10.8754 1 14.13 1C15.0594 1 15.9549 1.21448 16.7906 1.63793L17.7585 2.12738L13.9672 5.91253C13.8184 6.06101 13.7366 6.25742 13.7366 6.46797C13.7366 6.67852 13.8184 6.87493 13.9664 7.02262C14.2646 7.32116 14.7824 7.32038 15.0791 7.02262L18.8743 3.23433ZM10.8492 13.5302L15.5629 18.2391C15.8534 18.5301 16.3599 18.5301 16.6497 18.2391H16.6489C16.9486 17.9396 16.9486 17.4527 16.6489 17.1532L11.9364 12.4448L10.8492 13.5302ZM12.1801 10.7449C12.7939 11.0553 13.4494 11.2124 14.1293 11.2124V11.2132C16.5159 11.2132 18.4572 9.27423 18.4572 6.89221C18.4572 6.57874 18.4242 6.27156 18.3581 5.97145L16.1917 8.13429C15.3002 9.0244 13.7452 9.0244 12.8529 8.13429C12.4075 7.69041 12.162 7.09726 12.162 6.46797C12.162 5.83868 12.4075 5.24632 12.8537 4.80165L14.9988 2.65925C14.7147 2.60111 14.4243 2.57126 14.1293 2.57126C11.7426 2.57126 9.80127 4.51019 9.80127 6.89221C9.80127 7.5867 9.96494 8.2537 10.2868 8.87356L10.552 9.38343L2.98115 16.942C2.67425 17.2484 2.67425 17.7464 2.98115 18.0528C3.28804 18.36 3.78694 18.36 4.09383 18.0528L11.671 10.4872L12.1801 10.7449ZM5.36159 6.94528H3.5001L1.92144 4.21072L2.62469 3.50731L5.36235 5.08538L5.36159 6.94528Z" fill="#33373C"/>
</g>
<defs>
<clipPath id="clip0_9057_37380">
<rect width="20" height="20" fill="white"/>
</clipPath>
</defs>
</svg>
