<svg width="20" height="20" viewBox="0 0 20 20" fill="none" xmlns="http://www.w3.org/2000/svg">
<g clip-path="url(#clip0_4799_23489)">
<path d="M10 20C8.02219 20 6.08879 19.4135 4.4443 18.3147C2.7998 17.2159 1.51808 15.6541 0.761203 13.8268C0.00432714 11.9996 -0.193706 9.98891 0.192146 8.0491C0.577998 6.10929 1.53041 4.32746 2.92893 2.92894C4.32746 1.53041 6.10929 0.578004 8.0491 0.192152C9.98891 -0.193701 11.9996 0.00433286 13.8268 0.761209C15.6541 1.51809 17.2159 2.79981 18.3147 4.4443C19.4135 6.08879 20 8.02219 20 10C19.9971 12.6513 18.9426 15.1932 17.0679 17.0679C15.1932 18.9426 12.6513 19.9971 10 20ZM10 1.66667C8.35182 1.66667 6.74066 2.15541 5.37025 3.07109C3.99984 3.98677 2.93173 5.28826 2.301 6.81098C1.67027 8.33369 1.50524 10.0092 1.82679 11.6258C2.14833 13.2423 2.942 14.7271 4.10744 15.8926C5.27288 17.058 6.75774 17.8517 8.37425 18.1732C9.99076 18.4948 11.6663 18.3297 13.189 17.699C14.7117 17.0683 16.0132 16.0002 16.9289 14.6298C17.8446 13.2593 18.3333 11.6482 18.3333 10C18.3309 7.79061 17.4522 5.67241 15.8899 4.11013C14.3276 2.54785 12.2094 1.6691 10 1.66667Z" fill="#4E4EDD"/>
<path d="M10.8331 12.4997H9.16639V11.8805C9.15408 11.2925 9.29937 10.712 9.58716 10.1991C9.87496 9.68623 10.2948 9.25972 10.8031 8.96386C11.111 8.79428 11.3573 8.53169 11.507 8.21364C11.6567 7.89559 11.702 7.53836 11.6364 7.19303C11.5715 6.86403 11.4099 6.56186 11.1724 6.3251C10.9349 6.08835 10.6323 5.92777 10.3031 5.86386C10.0628 5.8194 9.81576 5.82829 9.57934 5.88991C9.34293 5.95154 9.12295 6.06438 8.93499 6.22046C8.74703 6.37654 8.59569 6.57203 8.49167 6.79309C8.38765 7.01415 8.3335 7.25538 8.33306 7.4997H6.6664C6.66661 6.91178 6.8223 6.33439 7.11769 5.82607C7.41308 5.31776 7.83766 4.89661 8.34835 4.60535C8.85905 4.31409 9.43769 4.16308 10.0256 4.16764C10.6135 4.1722 11.1897 4.33217 11.6958 4.63131C12.2019 4.93046 12.6199 5.35814 12.9074 5.87098C13.1949 6.38381 13.3416 6.96355 13.3327 7.5514C13.3238 8.13924 13.1595 8.71427 12.8567 9.21816C12.5538 9.72205 12.123 10.1369 11.6081 10.4205C11.362 10.5744 11.1608 10.7903 11.0248 11.0466C10.8887 11.3029 10.8226 11.5905 10.8331 11.8805V12.4997Z" fill="#4E4EDD"/>
<path d="M10.8331 14.1664H9.16641V15.8331H10.8331V14.1664Z" fill="#4E4EDD"/>
</g>
<defs>
<clipPath id="clip0_4799_23489">
<rect width="20" height="20" fill="white"/>
</clipPath>
</defs>
</svg>
