<svg width="20" height="20" viewBox="0 0 20 20" fill="none" xmlns="http://www.w3.org/2000/svg">
<g clip-path="url(#clip0_9347_36221)">
<path d="M18.3333 4.76984V1.66651C18.3333 1.20651 17.9608 0.833177 17.5 0.833177C17.0392 0.833177 16.6667 1.20651 16.6667 1.66651V3.63818L12.3308 0.712344C10.915 -0.242656 9.085 -0.242656 7.66917 0.712344L1.83583 4.64901C0.686667 5.42484 0 6.71568 0 8.10318V15.8332C0 18.1307 1.86917 19.9998 4.16667 19.9998H6.66667C7.1275 19.9998 7.5 19.6265 7.5 19.1665V12.4998C7.5 12.0407 7.87333 11.6665 8.33333 11.6665H11.6667C12.1267 11.6665 12.5 12.0407 12.5 12.4998V19.1665C12.5 19.6265 12.8725 19.9998 13.3333 19.9998H15.8333C18.1308 19.9998 20 18.1307 20 15.8332V8.10318C20 6.78568 19.38 5.55484 18.3333 4.76984ZM18.3333 15.8332C18.3333 17.2115 17.2117 18.3332 15.8333 18.3332H14.1667V12.4998C14.1667 11.1215 13.045 9.99984 11.6667 9.99984H8.33333C6.955 9.99984 5.83333 11.1215 5.83333 12.4998V18.3332H4.16667C2.78833 18.3332 1.66667 17.2115 1.66667 15.8332V8.10318C1.66667 7.27068 2.07833 6.49568 2.76833 6.03068L8.60167 2.09401C9.45167 1.52068 10.5483 1.52068 11.3975 2.09401L17.2308 6.03068C17.9208 6.49568 18.3325 7.27068 18.3325 8.10318L18.3333 15.8332Z" fill="#9BA7AD"/>
</g>
<defs>
<clipPath id="clip0_9347_36221">
<rect width="20" height="20" fill="white"/>
</clipPath>
</defs>
</svg>
