<svg width="20" height="20" viewBox="0 0 20 20" fill="none" xmlns="http://www.w3.org/2000/svg">
<path id="Vector" d="M19.0408 6.40113L18.3167 5.83451H18.3342V1.66819H16.6675V4.54379L11.5408 0.532456C10.6342 -0.177485 9.36667 -0.177485 8.46 0.532456L0.959167 6.40113C0.35 6.87776 0 7.59603 0 8.37014V20H7.5V12.5006C7.5 12.0415 7.87333 11.6674 8.33333 11.6674H11.6667C12.1267 11.6674 12.5 12.0415 12.5 12.5006V20H20V8.37014C20 7.59603 19.65 6.87776 19.0408 6.40113ZM18.3333 18.3335H14.1667V12.5006C14.1667 11.1224 13.045 10.0008 11.6667 10.0008H8.33333C6.955 10.0008 5.83333 11.1224 5.83333 12.5006V18.3335H1.66667V8.37014C1.66667 8.11182 1.78333 7.87268 1.98667 7.71352L9.48667 1.84485C9.78917 1.6082 10.2108 1.6082 10.5133 1.84485L18.0133 7.71352C18.2167 7.87268 18.3333 8.11182 18.3333 8.37014V18.3335Z" fill="#9BA7AD"/>
</svg>
