<svg width="36" height="34" viewBox="0 0 36 34" fill="none" xmlns="http://www.w3.org/2000/svg">
<path fill-rule="evenodd" clip-rule="evenodd" d="M0 2.48678C0 1.63113 0.693634 0.9375 1.54928 0.9375H34.4507C35.3064 0.9375 36 1.63113 36 2.48678V31.5104C36 32.3661 35.3064 33.0597 34.4507 33.0597H16.1567C7.23361 33.0597 0 25.8261 0 16.903V2.48678ZM10.225 13.5542H10.2246V6.25684H10.8531C14.858 6.25684 18.1093 9.48292 18.1501 13.4781V6.25684H26.0761V6.28679H31.2243L29.9277 13.5842H22.0018V13.5542H18.1509V20.4048V20.4053H26.0761L24.7801 27.7027H18.1501V27.7022H17.5224C13.6422 27.7022 10.4694 24.6738 10.2385 20.8517H10.225V20.4048V13.5542Z" fill="#70DD3E"/>
</svg>
