<svg width="31" height="27" viewBox="0 0 31 27" fill="none" xmlns="http://www.w3.org/2000/svg">
<path id="Subtract" fill-rule="evenodd" clip-rule="evenodd" d="M0 1.30223C0 0.583027 0.583027 0 1.30223 0H28.9572C29.6764 0 30.2594 0.583027 30.2594 1.30223V25.6978C30.2594 26.417 29.6764 27 28.9572 27H13.5804C6.08015 27 0 20.9199 0 13.4196V1.30223ZM15.2538 4.47134V10.546C15.2221 7.18559 12.4882 4.47122 9.12031 4.47122H8.59201V10.605H15.2538V10.605H8.5918V16.3632V16.7388H8.60311C8.79718 19.9514 11.4641 22.4969 14.7256 22.4969H15.2539V22.4969H20.8265L21.9158 16.3632H15.2539V10.6051H18.4916V10.6306H25.1537L26.2435 4.49683H21.9158V4.47134H15.2538Z" fill="#8CE95F"/>
</svg>
