<svg width="230" height="27" viewBox="0 0 230 27" fill="none" xmlns="http://www.w3.org/2000/svg">
<path fill-rule="evenodd" clip-rule="evenodd" d="M0 1.30223C0 0.583027 0.583027 0 1.30223 0H28.9572C29.6764 0 30.2594 0.583027 30.2594 1.30223V25.6978C30.2594 26.417 29.6764 27 28.9572 27H13.5804C6.08015 27 0 20.9199 0 13.4196V1.30223ZM15.2538 4.47134V10.546C15.2221 7.18559 12.4882 4.47122 9.12031 4.47122H8.59201V10.605H15.2538V10.605H8.5918V16.3632V16.7388H8.60311C8.79718 19.9514 11.4641 22.4969 14.7256 22.4969H15.2539V22.4969H20.8265L21.9158 16.3632H15.2539V10.6051H18.4916V10.6306H25.1537L26.2435 4.49683H21.9158V4.47134H15.2538Z" fill="#8CE95F"/>
<path d="M33.7051 24.7675L37.1016 4.30876H45.1732C46.7182 4.30876 47.9902 4.58181 48.9892 5.1279C49.9948 5.674 50.7007 6.44986 51.107 7.45548C51.5199 8.45444 51.6165 9.63321 51.3967 10.9918C51.1703 12.3504 50.6808 13.5158 49.9282 14.4882C49.1823 15.4605 48.21 16.2097 47.0113 16.7358C45.8192 17.2553 44.4373 17.515 42.8656 17.515H37.4612L38.0606 14.0386H42.7557C43.5815 14.0386 44.2874 13.9254 44.8735 13.699C45.4595 13.4725 45.9224 13.1329 46.262 12.68C46.6083 12.2272 46.8348 11.6644 46.9413 10.9918C47.0545 10.3058 47.0146 9.73311 46.8215 9.27359C46.6283 8.80741 46.2787 8.45444 45.7725 8.21469C45.2664 7.96828 44.6004 7.84508 43.7746 7.84508H40.8577L38.0306 24.7675H33.7051ZM46.292 15.4571L49.8383 24.7675H45.0633L41.6269 15.4571H46.292ZM58.6469 25.0671C57.0818 25.0671 55.7865 24.7342 54.7609 24.0682C53.7353 23.3956 53.0127 22.4632 52.5932 21.2711C52.1803 20.0723 52.1037 18.6771 52.3634 17.0855C52.6165 15.5138 53.1426 14.1385 53.9418 12.9597C54.7409 11.781 55.7566 10.8653 56.9886 10.2126C58.2207 9.5533 59.6092 9.22364 61.1543 9.22364C62.7126 9.22364 64.0046 9.55996 65.0302 10.2326C66.0558 10.8986 66.7784 11.8309 67.198 13.0297C67.6175 14.2284 67.6975 15.6236 67.4377 17.2153C67.178 18.7804 66.6452 20.1523 65.8394 21.331C65.0336 22.5098 64.018 23.4288 62.7926 24.0882C61.5672 24.7408 60.1853 25.0671 58.6469 25.0671ZM59.0664 21.7706C59.7857 21.7706 60.4217 21.5675 60.9745 21.1612C61.5339 20.7483 61.9967 20.1889 62.363 19.483C62.736 18.7704 62.9957 17.9645 63.1422 17.0655C63.2887 16.1797 63.2987 15.3939 63.1722 14.7079C63.0456 14.0153 62.7792 13.4692 62.373 13.0696C61.9734 12.6701 61.424 12.4703 60.7247 12.4703C60.0055 12.4703 59.3661 12.6767 58.8067 13.0896C58.2473 13.4959 57.7844 14.0553 57.4182 14.7679C57.0519 15.4805 56.7955 16.2896 56.649 17.1953C56.5091 18.0744 56.4991 18.8603 56.619 19.5529C56.7389 20.2388 57.0019 20.7816 57.4082 21.1812C57.8144 21.5741 58.3672 21.7706 59.0664 21.7706ZM79.3556 9.42343L78.8261 12.6201H69.5757L70.1152 9.42343H79.3556ZM72.8124 5.74726H77.0679L74.6904 20.0524C74.6238 20.4453 74.6338 20.7516 74.7204 20.9714C74.807 21.1845 74.9501 21.3344 75.1499 21.4209C75.3564 21.5075 75.6028 21.5508 75.8892 21.5508C76.089 21.5508 76.2921 21.5342 76.4985 21.5009C76.705 21.4609 76.8615 21.4309 76.968 21.411L77.1279 24.5777C76.8881 24.6509 76.5651 24.7308 76.1589 24.8174C75.7593 24.904 75.2865 24.9573 74.7404 24.9772C73.7014 25.0172 72.8224 24.8807 72.1031 24.5677C71.3839 24.248 70.8677 23.7585 70.5547 23.0992C70.2417 22.4399 70.1751 21.6107 70.3549 20.6118L72.8124 5.74726ZM83.5964 25.0572C82.6241 25.0572 81.7816 24.8873 81.069 24.5477C80.3631 24.2014 79.8436 23.6886 79.5106 23.0093C79.1776 22.33 79.0944 21.4875 79.2609 20.4819C79.4074 19.6295 79.6838 18.9169 80.09 18.3441C80.5029 17.7647 81.0057 17.2986 81.5985 16.9456C82.1912 16.5926 82.8472 16.3229 83.5664 16.1364C84.2923 15.95 85.0415 15.8234 85.8141 15.7568C86.7065 15.6636 87.4324 15.5737 87.9918 15.4871C88.5579 15.4005 88.9808 15.2773 89.2605 15.1175C89.5402 14.951 89.71 14.7046 89.77 14.3783V14.3183C89.8698 13.6923 89.7533 13.2062 89.4203 12.8599C89.094 12.5069 88.5712 12.3304 87.8519 12.3304C87.0927 12.3304 86.4467 12.4969 85.914 12.8299C85.3878 13.1629 85.0116 13.5858 84.7851 14.0986L80.9092 13.7789C81.2555 12.8465 81.7783 12.0407 82.4775 11.3614C83.1835 10.6755 84.0326 10.1493 85.0249 9.78306C86.0172 9.41011 87.1294 9.22364 88.3614 9.22364C89.2139 9.22364 90.0097 9.32354 90.7489 9.52333C91.4948 9.72312 92.1375 10.0328 92.6769 10.4524C93.223 10.8719 93.6159 11.4114 93.8557 12.0707C94.1021 12.7233 94.1521 13.5058 94.0055 14.4182L92.2773 24.7675H88.2415L88.6012 22.6397H88.4813C88.155 23.1192 87.7554 23.5421 87.2825 23.9084C86.8097 24.268 86.2669 24.551 85.6542 24.7575C85.0415 24.9573 84.3556 25.0572 83.5964 25.0572ZM85.3046 22.1202C85.924 22.1202 86.4934 21.997 87.0128 21.7506C87.5389 21.4975 87.9718 21.1579 88.3115 20.7317C88.6578 20.3054 88.8775 19.8226 88.9708 19.2832L89.2305 17.6549C89.0973 17.7414 88.9042 17.818 88.6511 17.8846C88.4047 17.9512 88.135 18.0145 87.842 18.0744C87.5556 18.1277 87.2659 18.1777 86.9729 18.2243C86.6798 18.2642 86.4168 18.3042 86.1837 18.3441C85.6709 18.4174 85.2114 18.5339 84.8051 18.6938C84.3989 18.8536 84.0692 19.0701 83.8162 19.3431C83.5631 19.6095 83.4066 19.9425 83.3466 20.3421C83.2534 20.9215 83.3899 21.3643 83.7562 21.6707C84.1292 21.9704 84.6453 22.1202 85.3046 22.1202ZM96.0487 24.7675L99.4451 4.30876H111.712L111.353 6.50647H101.563L100.404 13.4193H109.275L108.915 15.617H100.044L98.5261 24.7675H96.0487ZM111.93 24.7675L114.487 9.42343H116.845L114.287 24.7675H111.93ZM116.385 6.82614C115.926 6.82614 115.529 6.66963 115.196 6.35663C114.87 6.04362 114.707 5.66734 114.707 5.2278C114.707 4.78826 114.87 4.41198 115.196 4.09898C115.529 3.78597 115.926 3.62946 116.385 3.62946C116.845 3.62946 117.238 3.78597 117.564 4.09898C117.897 4.41198 118.063 4.78826 118.063 5.2278C118.063 5.66734 117.897 6.04362 117.564 6.35663C117.238 6.66963 116.845 6.82614 116.385 6.82614ZM122.172 15.5371L120.654 24.7675H118.296L120.853 9.42343H123.131L122.731 11.8209H122.931C123.411 11.0417 124.06 10.4157 124.879 9.94289C125.698 9.46339 126.687 9.22364 127.846 9.22364C128.872 9.22364 129.737 9.43675 130.443 9.86297C131.156 10.2825 131.659 10.9219 131.952 11.781C132.251 12.6334 132.295 13.7123 132.082 15.0176L130.443 24.7675H128.086L129.684 15.1774C129.884 13.9787 129.727 13.0397 129.215 12.3604C128.708 11.6811 127.906 11.3414 126.807 11.3414C126.048 11.3414 125.345 11.5046 124.699 11.8309C124.06 12.1573 123.517 12.6334 123.071 13.2594C122.631 13.8855 122.332 14.6447 122.172 15.5371ZM138.917 25.1271C137.945 25.1271 137.092 24.9439 136.36 24.5777C135.627 24.2047 135.085 23.6686 134.732 22.9693C134.379 22.2634 134.282 21.411 134.442 20.412C134.595 19.5329 134.891 18.8203 135.331 18.2742C135.771 17.7215 136.303 17.2886 136.929 16.9756C137.562 16.6559 138.241 16.4195 138.967 16.2663C139.7 16.1065 140.429 15.9833 141.155 15.8967C142.101 15.7768 142.87 15.6836 143.463 15.617C144.055 15.5504 144.501 15.4405 144.801 15.2873C145.101 15.1342 145.284 14.8711 145.351 14.4981V14.4182C145.51 13.4393 145.381 12.6767 144.961 12.1306C144.541 11.5779 143.792 11.3015 142.713 11.3015C141.594 11.3015 140.659 11.5479 139.906 12.0407C139.154 12.5335 138.598 13.0596 138.238 13.6191L136.16 12.8199C136.706 11.8875 137.359 11.1616 138.118 10.6422C138.877 10.116 139.673 9.74976 140.506 9.54331C141.338 9.3302 142.141 9.22364 142.913 9.22364C143.406 9.22364 143.962 9.28358 144.581 9.40345C145.201 9.51667 145.78 9.75309 146.32 10.1127C146.866 10.4723 147.275 11.0151 147.548 11.741C147.828 12.4669 147.868 13.4393 147.668 14.658L145.99 24.7675H143.632L143.992 22.6896H143.872C143.659 23.0226 143.333 23.3789 142.893 23.7585C142.46 24.1381 141.911 24.4611 141.245 24.7275C140.586 24.9939 139.81 25.1271 138.917 25.1271ZM139.597 23.0093C140.529 23.0093 141.345 22.8261 142.044 22.4599C142.75 22.0936 143.316 21.6207 143.742 21.0413C144.175 20.4619 144.445 19.8526 144.551 19.2132L144.911 17.0555C144.791 17.1754 144.555 17.2852 144.202 17.3851C143.849 17.4784 143.449 17.5616 143.003 17.6349C142.563 17.7015 142.134 17.7614 141.714 17.8147C141.301 17.8613 140.968 17.9013 140.715 17.9346C140.089 18.0145 139.493 18.1444 138.927 18.3242C138.368 18.4973 137.895 18.7604 137.509 19.1133C137.129 19.4596 136.893 19.9325 136.799 20.5319C136.66 21.351 136.856 21.9704 137.389 22.3899C137.922 22.8028 138.658 23.0093 139.597 23.0093ZM153.859 15.5371L152.341 24.7675H149.983L152.541 9.42343H154.818L154.419 11.8209H154.619C155.098 11.0417 155.747 10.4157 156.567 9.94289C157.386 9.46339 158.375 9.22364 159.534 9.22364C160.559 9.22364 161.425 9.43675 162.131 9.86297C162.843 10.2825 163.346 10.9219 163.639 11.781C163.939 12.6334 163.982 13.7123 163.769 15.0176L162.131 24.7675H159.773L161.372 15.1774C161.571 13.9787 161.415 13.0397 160.902 12.3604C160.396 11.6811 159.593 11.3414 158.495 11.3414C157.735 11.3414 157.033 11.5046 156.387 11.8309C155.747 12.1573 155.205 12.6334 154.758 13.2594C154.319 13.8855 154.019 14.6447 153.859 15.5371ZM172.323 25.0871C170.878 25.0871 169.692 24.7475 168.767 24.0682C167.848 23.3889 167.208 22.4532 166.849 21.2611C166.489 20.069 166.436 18.7071 166.689 17.1754C166.942 15.617 167.455 14.2417 168.227 13.0497C169 11.8509 169.962 10.9152 171.114 10.2426C172.266 9.56329 173.535 9.22364 174.92 9.22364C175.999 9.22364 176.938 9.42343 177.737 9.82302C178.536 10.2226 179.152 10.782 179.585 11.5013C180.018 12.2205 180.221 13.0596 180.195 14.0186H177.837C177.771 13.3194 177.471 12.7 176.938 12.1606C176.412 11.6145 175.633 11.3414 174.601 11.3414C173.682 11.3414 172.836 11.5812 172.063 12.0607C171.291 12.5335 170.641 13.2028 170.115 14.0686C169.589 14.9277 169.233 15.9367 169.046 17.0954C168.847 18.2809 168.863 19.3131 169.096 20.1922C169.329 21.0713 169.752 21.7539 170.365 22.2401C170.978 22.7262 171.75 22.9693 172.683 22.9693C173.295 22.9693 173.868 22.8628 174.401 22.6497C174.934 22.4365 175.406 22.1302 175.819 21.7306C176.232 21.331 176.559 20.8515 176.798 20.2921H179.156C178.863 21.1978 178.393 22.0137 177.747 22.7396C177.101 23.4588 176.319 24.0316 175.4 24.4578C174.481 24.8773 173.455 25.0871 172.323 25.0871ZM187.927 25.0871C186.455 25.0871 185.24 24.7608 184.281 24.1081C183.322 23.4488 182.652 22.5298 182.273 21.351C181.893 20.1656 181.833 18.787 182.093 17.2153C182.353 15.6436 182.869 14.2584 183.641 13.0596C184.414 11.8542 185.376 10.9152 186.528 10.2426C187.681 9.56329 188.946 9.22364 190.324 9.22364C191.124 9.22364 191.893 9.35683 192.632 9.62322C193.371 9.88961 194.011 10.3225 194.55 10.9219C195.089 11.5146 195.466 12.3004 195.679 13.2794C195.892 14.2584 195.879 15.4638 195.639 16.8957L195.479 17.8946H183.651L183.971 15.8567H193.401C193.554 14.991 193.514 14.2184 193.281 13.5391C193.055 12.8599 192.659 12.3237 192.093 11.9308C191.533 11.5379 190.824 11.3414 189.965 11.3414C189.079 11.3414 188.253 11.5812 187.487 12.0607C186.722 12.5335 186.082 13.1329 185.569 13.8588C185.057 14.5781 184.737 15.3106 184.61 16.0565L184.331 17.8147C184.131 19.0867 184.161 20.099 184.421 20.8515C184.687 21.6041 185.15 22.1469 185.809 22.4798C186.468 22.8062 187.294 22.9693 188.287 22.9693C188.919 22.9693 189.502 22.8828 190.035 22.7096C190.568 22.5298 191.044 22.2634 191.463 21.9104C191.883 21.5508 192.236 21.1046 192.522 20.5718L194.68 21.2112C194.314 21.9837 193.797 22.663 193.132 23.249C192.472 23.8284 191.7 24.2813 190.814 24.6076C189.935 24.9273 188.973 25.0871 187.927 25.0871ZM197.652 24.7675L200.209 9.42343H202.567L200.01 24.7675H197.652ZM202.107 6.82614C201.648 6.82614 201.252 6.66963 200.919 6.35663C200.592 6.04362 200.429 5.66734 200.429 5.2278C200.429 4.78826 200.592 4.41198 200.919 4.09898C201.252 3.78597 201.648 3.62946 202.107 3.62946C202.567 3.62946 202.96 3.78597 203.286 4.09898C203.619 4.41198 203.786 4.78826 203.786 5.2278C203.786 5.66734 203.619 6.04362 203.286 6.35663C202.96 6.66963 202.567 6.82614 202.107 6.82614ZM204.018 24.7675L206.575 9.42343H208.853L208.454 11.741H208.613C209.013 10.9818 209.622 10.3658 210.441 9.89294C211.261 9.4201 212.13 9.18368 213.049 9.18368C213.229 9.18368 213.445 9.18701 213.698 9.19367C213.951 9.19367 214.148 9.20366 214.287 9.22364L213.888 11.6211C213.808 11.6012 213.628 11.5712 213.348 11.5312C213.069 11.4846 212.769 11.4613 212.449 11.4613C211.703 11.4613 211.014 11.6178 210.382 11.9308C209.749 12.2372 209.219 12.6634 208.793 13.2095C208.367 13.7489 208.094 14.365 207.974 15.0576L206.376 24.7675H204.018ZM218.706 25.1271C217.733 25.1271 216.881 24.9439 216.148 24.5777C215.416 24.2047 214.873 23.6686 214.52 22.9693C214.167 22.2634 214.07 21.411 214.23 20.412C214.383 19.5329 214.68 18.8203 215.119 18.2742C215.559 17.7215 216.092 17.2886 216.718 16.9756C217.35 16.6559 218.03 16.4195 218.756 16.2663C219.488 16.1065 220.217 15.9833 220.943 15.8967C221.889 15.7768 222.658 15.6836 223.251 15.617C223.844 15.5504 224.29 15.4405 224.589 15.2873C224.889 15.1342 225.072 14.8711 225.139 14.4981V14.4182C225.299 13.4393 225.169 12.6767 224.749 12.1306C224.33 11.5779 223.581 11.3015 222.502 11.3015C221.383 11.3015 220.447 11.5479 219.695 12.0407C218.942 12.5335 218.386 13.0596 218.026 13.6191L215.948 12.8199C216.495 11.8875 217.147 11.1616 217.906 10.6422C218.666 10.116 219.461 9.74976 220.294 9.54331C221.126 9.3302 221.929 9.22364 222.701 9.22364C223.194 9.22364 223.75 9.28358 224.37 9.40345C224.989 9.51667 225.568 9.75309 226.108 10.1127C226.654 10.4723 227.064 11.0151 227.337 11.741C227.616 12.4669 227.656 13.4393 227.456 14.658L225.778 24.7675H223.421L223.78 22.6896H223.66C223.447 23.0226 223.121 23.3789 222.681 23.7585C222.249 24.1381 221.699 24.4611 221.033 24.7275C220.374 24.9939 219.598 25.1271 218.706 25.1271ZM219.385 23.0093C220.317 23.0093 221.133 22.8261 221.832 22.4599C222.538 22.0936 223.104 21.6207 223.531 21.0413C223.963 20.4619 224.233 19.8526 224.34 19.2132L224.699 17.0555C224.579 17.1754 224.343 17.2852 223.99 17.3851C223.637 17.4784 223.238 17.5616 222.791 17.6349C222.352 17.7015 221.922 17.7614 221.503 17.8147C221.09 17.8613 220.757 17.9013 220.504 17.9346C219.878 18.0145 219.282 18.1444 218.716 18.3242C218.156 18.4973 217.683 18.7604 217.297 19.1133C216.917 19.4596 216.681 19.9325 216.588 20.5319C216.448 21.351 216.644 21.9704 217.177 22.3899C217.71 22.8028 218.446 23.0093 219.385 23.0093Z" fill="#245017"/>
</svg>
