<svg width="20" height="20" viewBox="0 0 20 20" fill="none" xmlns="http://www.w3.org/2000/svg">
<path d="M13.9697 5.81836C14.4342 5.81693 14.89 5.94624 15.2852 6.19043C15.6803 6.4346 15.9996 6.78415 16.2061 7.2002L18.1104 11.0127C18.803 12.4019 19.1652 13.933 19.167 15.4854V18.3184H17.5V19.9854H13.333V18.3184H6.66699V19.9854H2.5V18.3184H0.833008V15.4854C0.834405 13.9323 1.19578 12.4006 1.88867 11.0107L3.79395 7.2002C4.00037 6.7841 4.31971 6.43461 4.71484 6.19043C5.11001 5.94623 5.56575 5.81683 6.03027 5.81836H13.9697ZM2.78711 13.3184C2.59658 14.0248 2.5003 14.7537 2.5 15.4854V16.6523H17.5V15.4854C17.4997 14.7537 17.4034 14.0248 17.2129 13.3184H15.833V14.1523C15.8329 14.3733 15.7451 14.585 15.5889 14.7412C15.4326 14.8974 15.221 14.9853 15 14.9854C14.779 14.9854 14.5674 14.8974 14.4111 14.7412C14.2549 14.585 14.1671 14.3733 14.167 14.1523V13.3184H5.83301V14.1523C5.83295 14.3733 5.74509 14.585 5.58887 14.7412C5.4326 14.8974 5.22096 14.9853 5 14.9854C4.77904 14.9854 4.5674 14.8974 4.41113 14.7412C4.25491 14.585 4.16705 14.3733 4.16699 14.1523V13.3184H2.78711ZM6.03027 7.48535C5.8757 7.48602 5.72369 7.53013 5.59277 7.6123C5.46207 7.69444 5.3568 7.81148 5.28906 7.9502L3.43164 11.6523H16.5684L14.7148 7.94629C14.6462 7.80748 14.5399 7.69083 14.4082 7.60938C14.2765 7.52795 14.1245 7.48476 13.9697 7.48535H6.03027ZM17.4941 0.0136719C18.0066 0.0136719 18.5072 0.170925 18.9277 0.463867C19.3482 0.756808 19.6691 1.17162 19.8467 1.65234H17.5V3.31836H19.8467C19.6691 3.79905 19.3482 4.2139 18.9277 4.50684C18.5072 4.79978 18.0066 4.95703 17.4941 4.95703C16.9818 4.95694 16.4819 4.7997 16.0615 4.50684C15.641 4.2139 15.3202 3.79908 15.1426 3.31836H4.85742C4.6798 3.79908 4.35898 4.2139 3.93848 4.50684C3.51807 4.79969 3.01821 4.95694 2.50586 4.95703C1.99335 4.95703 1.4928 4.79978 1.07227 4.50684C0.651786 4.2139 0.330931 3.79906 0.15332 3.31836H2.5V1.65234H0.15332C0.330944 1.17161 0.651741 0.756808 1.07227 0.463867C1.4928 0.170925 1.99335 0.0136719 2.50586 0.0136719C3.0182 0.0137649 3.51807 0.171021 3.93848 0.463867C4.35901 0.756809 4.67979 1.1716 4.85742 1.65234H15.1426C15.3202 1.1716 15.641 0.756809 16.0615 0.463867C16.4819 0.171024 16.9818 0.0137599 17.4941 0.0136719Z" fill="#5B6871"/>
</svg>
