<svg width="21" height="20" viewBox="0 0 21 20" fill="none" xmlns="http://www.w3.org/2000/svg">
<g id="Icons20x20" clip-path="url(#clip0_8862_23274)">
<path id="Union" fill-rule="evenodd" clip-rule="evenodd" d="M19.7076 3.23433L20.2025 4.18729C20.6416 5.03263 20.8643 5.94238 20.8643 6.89142C20.8643 10.036 18.3851 12.6126 15.2754 12.7755L18.5697 16.0674C19.4689 16.9659 19.4689 18.4264 18.5697 19.3249C18.1347 19.7603 17.5559 19.9999 16.9395 19.9999C16.3231 19.9999 15.7444 19.7595 15.3086 19.3249L10.5955 14.6154L6.03977 19.1637C5.57943 19.6233 4.9743 19.8527 4.36995 19.8527C3.76561 19.8527 3.16127 19.6233 2.70093 19.1637C1.78182 18.2445 1.78182 16.7503 2.70093 15.8311L8.35436 10.1888L6.64522 8.48112H3.44487L0.833252 3.95731L3.20431 1.58905L7.73199 4.19767V7.39528L9.44174 9.10357L9.47934 9.06604C9.20156 8.3739 9.06149 7.64563 9.06149 6.89221C9.06149 3.64285 11.7086 1 14.9633 1C15.8926 1 16.7881 1.21448 17.6238 1.63793L18.5917 2.12738L14.8004 5.91253C14.6517 6.06101 14.5698 6.25742 14.5698 6.46797C14.5698 6.67852 14.6517 6.87493 14.7996 7.02262C15.0979 7.32116 15.6156 7.32038 15.9123 7.02262L19.7076 3.23433ZM11.6825 13.5302L16.3961 18.2391C16.6867 18.5301 17.1932 18.5301 17.4829 18.2391H17.4821C17.7819 17.9396 17.7819 17.4527 17.4821 17.1532L12.7697 12.4448L11.6825 13.5302ZM13.0133 10.7449C13.6271 11.0553 14.2826 11.2124 14.9625 11.2124V11.2132C17.3492 11.2132 19.2905 9.27423 19.2905 6.89221C19.2905 6.57874 19.2574 6.27156 19.1913 5.97145L17.025 8.13429C16.1334 9.0244 14.5785 9.0244 13.6861 8.13429C13.2408 7.69041 12.9952 7.09726 12.9952 6.46797C12.9952 5.83868 13.2408 5.24632 13.6869 4.80165L15.832 2.65925C15.548 2.60111 15.2576 2.57126 14.9625 2.57126C12.5758 2.57126 10.6345 4.51019 10.6345 6.89221C10.6345 7.5867 10.7982 8.2537 11.12 8.87356L11.3852 9.38343L3.8144 16.942C3.5075 17.2484 3.5075 17.7464 3.8144 18.0528C4.12129 18.36 4.62019 18.36 4.92708 18.0528L12.5042 10.4872L13.0133 10.7449ZM6.19484 6.94528H4.33335L2.75469 4.21072L3.45794 3.50731L6.19561 5.08538L6.19484 6.94528Z" fill="#9BA7AD"/>
</g>
<defs>
<clipPath id="clip0_8862_23274">
<rect width="20" height="20" fill="white" transform="translate(0.833252)"/>
</clipPath>
</defs>
</svg>
