<svg width="23" height="23" viewBox="0 0 23 23" fill="none" xmlns="http://www.w3.org/2000/svg">
<path id="Vector" d="M22.3943 15.3481L19.8938 6.76128C19.3598 4.92445 18.1963 3.31055 16.5885 2.17647C14.9807 1.04238 13.0209 0.45327 11.0211 0.502897C9.02126 0.552525 7.09634 1.23804 5.55266 2.45033C4.00898 3.66263 2.93525 5.33204 2.50238 7.19287L0.568293 15.4856C0.474708 15.8873 0.476991 16.304 0.574973 16.7048C0.672956 17.1056 0.864138 17.4803 1.13441 17.8013C1.40469 18.1223 1.74717 18.3814 2.13657 18.5595C2.52597 18.7375 2.95237 18.83 3.38431 18.8301H6.85335C7.07409 19.8658 7.66385 20.797 8.5227 21.4658C9.38156 22.1346 10.4567 22.5 11.5659 22.5C12.6752 22.5 13.7503 22.1346 14.6092 21.4658C15.468 20.797 16.0578 19.8658 16.2785 18.8301H19.6158C20.0602 18.8299 20.4986 18.7319 20.8968 18.5437C21.2949 18.3556 21.642 18.0823 21.911 17.7452C22.1801 17.4082 22.3638 17.0165 22.4478 16.6007C22.5318 16.1849 22.5128 15.7562 22.3943 15.3481ZM11.5659 20.6628C10.9713 20.6604 10.392 20.4831 9.9072 20.155C9.42241 19.827 9.05584 19.3643 8.85764 18.8301H14.2742C14.076 19.3643 13.7095 19.827 13.2247 20.155C12.7399 20.4831 12.1606 20.6604 11.5659 20.6628ZM20.3804 16.6355C20.2907 16.7489 20.1744 16.8406 20.0408 16.9035C19.9072 16.9663 19.76 16.9985 19.611 16.9975H3.38431C3.24029 16.9975 3.09813 16.9666 2.9683 16.9073C2.83847 16.8479 2.72429 16.7615 2.63419 16.6544C2.54409 16.5474 2.48037 16.4225 2.44774 16.2888C2.4151 16.1552 2.41438 16.0163 2.44563 15.8823L4.37972 7.58964C4.72052 6.12921 5.56393 4.81924 6.77589 3.86796C7.98784 2.91668 9.49877 2.37868 11.0685 2.3395C12.6382 2.30032 14.1766 2.76221 15.4392 3.65172C16.7018 4.54124 17.616 5.80735 18.0366 7.24876L20.5372 15.8356C20.578 15.9714 20.5851 16.1144 20.5579 16.2532C20.5307 16.392 20.4699 16.5229 20.3804 16.6355Z" fill="#0C0D0F"/>
</svg>
