<svg width="28" height="28" viewBox="0 0 28 28" fill="none" xmlns="http://www.w3.org/2000/svg">
<g clip-path="url(#clip0_9511_42337)">
<path d="M10.6992 13.876C9.80726 12.968 8.19002 12.968 7.29804 13.876L5.46239 15.4609C3.51254 17.411 3.51254 20.585 5.46239 22.5351C6.40689 23.4798 7.66317 24 8.99864 24C10.3341 24 11.5904 23.4798 12.5357 22.5351C14.4856 20.585 14.4856 17.411 12.4907 15.4184L10.7001 13.8751L10.6992 13.876ZM11.357 21.3562C10.0965 22.6168 7.90075 22.616 6.64114 21.3562C5.34068 20.0556 5.34068 17.9396 6.59613 16.6823C6.59613 16.6823 8.45845 15.0757 8.47846 15.054C8.61517 14.909 8.80024 14.8289 8.99948 14.8289C9.19871 14.8289 9.38378 14.909 9.52049 15.054C9.5405 15.0749 11.3578 16.6398 11.3578 16.6398C12.6583 17.9404 12.6574 20.0564 11.357 21.3562ZM22.6376 11.1472L21.0146 9.64811C20.1359 8.7877 18.7037 8.7877 17.8418 9.63144L16.1778 11.1697C15.3117 12.0359 14.8349 13.1873 14.8349 14.4121C14.8349 15.6368 15.3117 16.789 16.1778 17.6545C17.044 18.5207 18.1952 18.9976 19.4198 18.9976C20.6444 18.9976 21.7957 18.5207 22.6618 17.6545C24.4499 15.8661 24.4499 12.9572 22.6385 11.1463L22.6376 11.1472ZM21.4822 16.4756C20.3802 17.5778 18.4587 17.5786 17.3558 16.4756C16.8047 15.9245 16.5013 15.1916 16.5013 14.4121C16.5013 13.6325 16.8047 12.8997 17.3324 12.3711L18.9897 10.8395C19.1064 10.7253 19.2581 10.6678 19.4132 10.6678C19.5732 10.6678 19.7366 10.7303 19.865 10.8562L21.4814 12.3494C22.6193 13.4875 22.6193 15.3383 21.4814 16.4764L21.4822 16.4756ZM14.719 5.83128L13.4677 4.45395C12.8425 3.84366 11.8246 3.84199 11.1636 4.4898L9.97565 5.8021C9.34543 6.43157 8.99864 7.26947 8.99864 8.1599C8.99864 9.05032 9.34543 9.88823 9.97482 10.5177C10.6042 11.1472 11.442 11.4948 12.3332 11.4948C13.2243 11.4948 14.0613 11.148 14.6915 10.5177C15.9919 9.21707 15.9911 7.10189 14.719 5.83128ZM13.5119 9.3388C12.8817 9.9691 11.7838 9.9691 11.1544 9.3388C10.8393 9.02364 10.6659 8.60511 10.6659 8.1599C10.6659 7.71468 10.8393 7.29615 11.1827 6.95182L12.3332 5.68287L13.5127 6.98183C14.163 7.63214 14.163 8.68932 13.5127 9.33963L13.5119 9.3388Z" fill="#5B6871"/>
</g>
<defs>
<clipPath id="clip0_9511_42337">
<rect width="28" height="28" fill="white"/>
</clipPath>
</defs>
</svg>
