<svg width="21" height="20" viewBox="0 0 21 20" fill="none" xmlns="http://www.w3.org/2000/svg">
<path id="Union" d="M17.1815 2.60323C17.0054 2.12953 16.6859 1.72035 16.2659 1.43087C15.846 1.1414 15.346 0.98556 14.8332 0.984375H5.49984C4.98707 0.98556 4.48699 1.1414 4.06708 1.43087C3.64716 1.72035 3.3276 2.12953 3.15151 2.60323L1.36484 7.43438C0.570434 9.57827 0.164833 11.8427 0.166509 14.1245V15.7385H1.83318V19.0172H6.83318V15.7385H13.4998V19.0172H18.4998V15.7385H20.1665V14.1245C20.1682 11.8427 19.7626 9.57827 18.9682 7.43438L17.1815 2.60323ZM4.71734 3.16306C4.7758 3.00508 4.88223 2.8686 5.0222 2.77212C5.16217 2.67565 5.32892 2.62384 5.49984 2.62372H14.8332C15.0041 2.62384 15.1708 2.67565 15.3108 2.77212C15.4508 2.8686 15.5572 3.00508 15.6157 3.16306L17.4023 7.99913C17.5465 8.39011 17.6665 8.78765 17.7823 9.18519H2.55068C2.66651 8.78765 2.78651 8.39011 2.93068 7.99913L4.71734 3.16306ZM5.16651 17.3778H3.49984V15.7385H5.16651V17.3778ZM16.8332 17.3778H15.1665V15.7385H16.8332V17.3778ZM1.83318 14.0991C1.83691 12.9989 1.94347 11.9014 2.15151 10.8204H3.49984V11.6401C3.49984 11.8575 3.58764 12.066 3.74392 12.2197C3.9002 12.3734 4.11216 12.4598 4.33318 12.4598C4.55419 12.4598 4.76615 12.3734 4.92243 12.2197C5.07871 12.066 5.16651 11.8575 5.16651 11.6401V10.8204H15.1665V11.6401C15.1665 11.8575 15.2543 12.066 15.4106 12.2197C15.5669 12.3734 15.7788 12.4598 15.9998 12.4598C16.2209 12.4598 16.4328 12.3734 16.5891 12.2197C16.7454 12.066 16.8332 11.8575 16.8332 11.6401V10.8204H18.1815C18.3895 11.9014 18.4961 12.9989 18.4998 14.0991H1.83318Z" fill="#9BA7AD"/>
</svg>
