<svg width="20" height="20" viewBox="0 0 20 20" fill="none" xmlns="http://www.w3.org/2000/svg">
<g id="arrow-progress-alt 1" clip-path="url(#clip0_9057_37315)">
<path id="Vector" d="M0 6.66568C0 4.82734 1.495 3.33234 3.33333 3.33234H17.4108L15.7325 1.82818L16.8475 0.589844L19.45 2.93234C19.7992 3.24484 20 3.69568 20 4.16568C20 4.63568 19.7992 5.08651 19.4483 5.40068L16.8475 7.74234L15.7325 6.50401L17.4033 4.99984H3.33333C2.41417 4.99984 1.66667 5.74734 1.66667 6.66651C1.66667 7.58568 2.41417 8.33318 3.33333 8.33318H15C16.8383 8.33318 18.3333 9.82818 18.3333 11.6665H16.6667C16.6667 10.7473 15.9192 9.99984 15 9.99984H3.33333C1.495 9.99984 0 8.50484 0 6.66651V6.66568ZM10.1808 12.2557L9.06583 13.494L10.7567 14.9982H6.66583V16.6648H10.705L9.035 18.1198L10.1292 19.3765L12.7808 17.0665C13.1308 16.7523 13.3325 16.3023 13.3325 15.8315C13.3325 15.3607 13.1317 14.9107 12.7825 14.5982L10.18 12.2557H10.1808ZM0 13.3323H5V18.3323H0V13.3323ZM1.66667 16.6657H3.33333V14.999H1.66667V16.6657ZM15 13.3323H20V18.3323H15V13.3323ZM16.6667 16.6657H18.3333V14.999H16.6667V16.6657Z" fill="#4E4EDD"/>
</g>
<defs>
<clipPath id="clip0_9057_37315">
<rect width="20" height="20" fill="white"/>
</clipPath>
</defs>
</svg>
