<svg width="20" height="20" viewBox="0 0 20 20" fill="none" xmlns="http://www.w3.org/2000/svg">
<path id="Vector" d="M14.5833 8.33333C14.5833 6.495 13.0883 5 11.25 5H8.33333C7.18417 5 6.25 5.93417 6.25 7.08333V15H7.91667V11.6667H10.2533L12.2475 15H14.1667L12.12 11.5517C13.5375 11.1683 14.5833 9.87083 14.5833 8.33333ZM11.25 10H7.91667V7.08333C7.91667 6.85417 8.10417 6.66667 8.33333 6.66667H11.25C12.1692 6.66667 12.9167 7.41417 12.9167 8.33333C12.9167 9.2525 12.1692 10 11.25 10ZM10 0C4.48583 0 0 4.48583 0 10C0 15.5142 4.48583 20 10 20C15.5142 20 20 15.5142 20 10C20 4.48583 15.5142 0 10 0ZM10 18.3333C5.405 18.3333 1.66667 14.595 1.66667 10C1.66667 5.405 5.405 1.66667 10 1.66667C14.595 1.66667 18.3333 5.405 18.3333 10C18.3333 14.595 14.595 18.3333 10 18.3333Z" fill="#9BA7AD"/>
</svg>
