<svg width="24" height="24" viewBox="0 0 24 24" fill="none" xmlns="http://www.w3.org/2000/svg">
<g id="toggle-on 1" clip-path="url(#clip0_9347_36057)">
<path id="Vector" d="M16 4H8C3.589 4 0 7.589 0 12C0 16.411 3.589 20 8 20H16C20.411 20 24 16.411 24 12C24 7.589 20.411 4 16 4ZM16 18H8C4.691 18 2 15.309 2 12C2 8.691 4.691 6 8 6H16C19.309 6 22 8.691 22 12C22 15.309 19.309 18 16 18ZM20 12C20 14.206 18.206 16 16 16C13.794 16 12 14.206 12 12C12 9.794 13.794 8 16 8C18.206 8 20 9.794 20 12Z" fill="#3E9C14"/>
</g>
<defs>
<clipPath id="clip0_9347_36057">
<rect width="24" height="24" fill="white"/>
</clipPath>
</defs>
</svg>
