<svg width="44" height="44" viewBox="0 0 44 44" fill="none" xmlns="http://www.w3.org/2000/svg">
<rect width="44" height="44" rx="22" fill="#DA2829"/>
<path d="M20.2898 13.86L11.8198 28C11.6451 28.3024 11.5527 28.6453 11.5518 28.9945C11.5508 29.3437 11.6413 29.6871 11.8142 29.9905C11.9871 30.2939 12.2365 30.5467 12.5375 30.7238C12.8385 30.9009 13.1806 30.9961 13.5298 31H30.4698C30.819 30.9961 31.1611 30.9009 31.4621 30.7238C31.7631 30.5467 32.0124 30.2939 32.1854 29.9905C32.3583 29.6871 32.4488 29.3437 32.4478 28.9945C32.4468 28.6453 32.3544 28.3024 32.1798 28L23.7098 13.86C23.5315 13.5661 23.2805 13.3231 22.981 13.1544C22.6814 12.9858 22.3435 12.8972 21.9998 12.8972C21.656 12.8972 21.3181 12.9858 21.0186 13.1544C20.7191 13.3231 20.468 13.5661 20.2898 13.86Z" stroke="white" stroke-width="2" stroke-linecap="round" stroke-linejoin="round"/>
<path d="M22 19V23" stroke="white" stroke-width="2" stroke-linecap="round" stroke-linejoin="round"/>
<path d="M22 27H22.01" stroke="white" stroke-width="2" stroke-linecap="round" stroke-linejoin="round"/>
</svg>
