<svg width="24" height="24" viewBox="0 0 24 24" fill="none" xmlns="http://www.w3.org/2000/svg">
<g id="toggle-on 1" clip-path="url(#clip0_9347_36052)">
<path id="Vector" d="M8 4H16C20.411 4 24 7.589 24 12C24 16.411 20.411 20 16 20H8C3.589 20 0 16.411 0 12C0 7.589 3.589 4 8 4ZM8 18H16C19.309 18 22 15.309 22 12C22 8.691 19.309 6 16 6H8C4.691 6 2 8.691 2 12C2 15.309 4.691 18 8 18ZM4 12C4 14.206 5.794 16 8 16C10.206 16 12 14.206 12 12C12 9.794 10.206 8 8 8C5.794 8 4 9.794 4 12Z" fill="#9BA7AD"/>
</g>
<defs>
<clipPath id="clip0_9347_36052">
<rect width="24" height="24" fill="white" transform="matrix(-1 0 0 1 24 0)"/>
</clipPath>
</defs>
</svg>
